<svg width="16" height="16" viewBox="0 0 16 16" fill="none" xmlns="http://www.w3.org/2000/svg">
<path fill-rule="evenodd" clip-rule="evenodd" d="M2 0C0.895431 0 0 0.895431 0 2V14C0 15.1046 0.895431 16 2 16H14C15.1046 16 16 15.1046 16 14V2C16 0.895431 15.1046 0 14 0H2ZM3.64866 3.83332C3.43845 4.02851 3.33334 4.27626 3.33334 4.57656C3.33334 4.87686 3.43544 5.12611 3.63965 5.32431C3.84386 5.52251 4.11112 5.62161 4.44145 5.62161H4.45046C4.7928 5.62161 5.06908 5.52251 5.27929 5.32431C5.4835 5.13211 5.5856 4.89188 5.5856 4.60359C5.5856 4.28527 5.48049 4.02701 5.27028 3.82882C5.06607 3.63662 4.79881 3.54053 4.46848 3.54053C4.13214 3.54053 3.85887 3.63812 3.64866 3.83332ZM3.45046 6.44143V12.4594H5.45046V6.44143H3.45046ZM8.55857 12.4594H6.55857C6.57058 10.6456 6.57659 9.23722 6.57659 8.23422C6.57659 7.23121 6.57058 6.63362 6.55857 6.44143H8.55857V7.29728L8.54956 7.3153H8.55857V7.29728C8.991 6.63062 9.59461 6.29728 10.3694 6.29728C11.0601 6.29728 11.6156 6.52701 12.036 6.98647C12.4565 7.44593 12.6667 8.1201 12.6667 9.009V12.4594H10.6667V9.24323C10.6667 8.33632 10.3303 7.88287 9.65767 7.88287C9.39941 7.88287 9.1847 7.95344 9.01352 8.09458C8.84235 8.23572 8.71472 8.40839 8.63064 8.6126C8.5826 8.72671 8.55857 8.88887 8.55857 9.09909V12.4594Z" fill="#0E5249"/>
</svg>
