<svg width="16" height="16" viewBox="0 0 16 16" fill="none" xmlns="http://www.w3.org/2000/svg">
<path d="M8.66894 12.7596C8.7584 12.8487 8.82939 12.9547 8.87783 13.0713C8.92626 13.188 8.9512 13.313 8.9512 13.4393C8.9512 13.5657 8.92626 13.6907 8.87783 13.8074C8.82939 13.924 8.7584 14.03 8.66894 14.1191L8.1939 14.5941C7.29375 15.4943 6.07288 16 4.79988 16C3.52687 16 2.306 15.4943 1.40585 14.5941C0.5057 13.694 0 12.4731 0 11.2001C0 9.92712 0.5057 8.70625 1.40585 7.8061L3.33478 5.87796C4.19967 5.01094 5.36334 4.50742 6.58744 4.47055C7.81153 4.43367 9.0034 4.86624 9.91891 5.67963C10.0134 5.76365 10.0905 5.86546 10.1456 5.97925C10.2008 6.09305 10.233 6.21659 10.2405 6.34283C10.2479 6.46908 10.2304 6.59555 10.1889 6.71502C10.1475 6.8345 10.0829 6.94464 9.99888 7.03916C9.91486 7.13368 9.81305 7.21073 9.69926 7.2659C9.58547 7.32107 9.46192 7.35329 9.33568 7.36072C9.20943 7.36814 9.08296 7.35063 8.96349 7.30918C8.84401 7.26773 8.73387 7.20315 8.63935 7.11913C8.09035 6.63156 7.37581 6.37218 6.64189 6.39403C5.90797 6.41588 5.21013 6.71732 4.69111 7.23669L2.76378 9.16243C2.22378 9.70243 1.9204 10.4348 1.9204 11.1985C1.9204 11.9622 2.22378 12.6946 2.76378 13.2346C3.30379 13.7746 4.03619 14.078 4.79988 14.078C5.56356 14.078 6.29597 13.7746 6.83597 13.2346L7.31101 12.7596C7.40014 12.6704 7.50598 12.5996 7.62248 12.5513C7.73898 12.503 7.86386 12.4781 7.98997 12.4781C8.11609 12.4781 8.24097 12.503 8.35747 12.5513C8.47397 12.5996 8.57981 12.6704 8.66894 12.7596ZM14.5933 1.40351C13.6924 0.504744 12.4718 0 11.1993 0C9.92671 0 8.70612 0.504744 7.80524 1.40351L7.3302 1.87855C7.14992 2.05883 7.04863 2.30335 7.04863 2.55831C7.04863 2.81327 7.14992 3.05779 7.3302 3.23808C7.51049 3.41836 7.75501 3.51964 8.00997 3.51964C8.26493 3.51964 8.50945 3.41836 8.68973 3.23808L9.16477 2.76304C9.70477 2.22304 10.4372 1.91966 11.2009 1.91966C11.9645 1.91966 12.697 2.22304 13.237 2.76304C13.777 3.30305 14.0803 4.03545 14.0803 4.79914C14.0803 5.56282 13.777 6.29523 13.237 6.83523L11.3088 8.76417C10.7894 9.28332 10.0911 9.58432 9.35702 9.60558C8.62291 9.62684 7.90843 9.36675 7.35979 8.87853C7.26527 8.79451 7.15513 8.72993 7.03565 8.68848C6.91618 8.64703 6.78971 8.62952 6.66346 8.63694C6.53722 8.64437 6.41367 8.67659 6.29988 8.73176C6.18609 8.78693 6.08428 8.86398 6.00026 8.9585C5.91624 9.05302 5.85167 9.16316 5.81022 9.28264C5.76877 9.40211 5.75125 9.52858 5.75868 9.65483C5.76611 9.78107 5.79833 9.90462 5.8535 10.0184C5.90867 10.1322 5.98572 10.234 6.08023 10.318C6.9951 11.1312 8.18617 11.5641 9.40969 11.528C10.6332 11.4918 11.7967 10.9895 12.662 10.1237L14.5909 8.19556C15.4907 7.2949 15.9963 6.07397 15.9968 4.80083C15.9972 3.5277 15.4925 2.30641 14.5933 1.40511V1.40351Z" fill="#0E5249"/>
</svg>
