<svg width="498" height="374" viewBox="0 0 498 374" fill="none" xmlns="http://www.w3.org/2000/svg">
<path d="M169.848 394.522C174.374 392.919 179.011 391.648 183.722 390.721L184.292 392.811C184.356 393.057 184.506 393.273 184.716 393.417C184.925 393.562 185.18 393.626 185.432 393.598L204.085 391.426C209.216 379.725 218.637 361.996 218.773 361.724C218.637 357.299 218.773 353.579 218.773 349.344C208.103 353.308 188.365 360.828 178.048 365.634C177.814 365.784 177.634 366.004 177.532 366.262C177.43 366.52 177.411 366.804 177.478 367.073C177.478 367.073 177.668 367.752 177.912 368.729C172.862 368.729 157.739 367.996 154.101 371.444C153.536 372.232 153.258 373.191 153.314 374.159C153.097 377.906 154.97 407.011 157.957 415.563C159.504 420.043 162.762 419.554 164.989 415.264C167.565 408.804 169.22 402.013 169.903 395.092C169.903 394.739 169.821 394.766 169.848 394.522ZM166.726 370.222C170.038 369.951 171.07 370.005 178.183 369.788C179.459 374.621 182.093 384.557 183.451 389.635C178.66 390.377 173.932 391.475 169.305 392.92C167.864 385.431 167.001 377.843 166.726 370.222Z" fill="#CCE4FF"/>
<path d="M419.737 132.605C420.416 131.655 419.547 130.433 418.814 129.483C420.89 127.347 423.193 125.444 425.683 123.809C429.883 121.715 433.723 118.966 437.059 115.664C438.443 114.225 441.05 111.265 440.072 109.528C439.095 107.79 437.357 107.681 434.995 108.686C436.019 107.612 436.854 106.373 437.466 105.021C438.226 102.903 436.434 101.193 432.552 102.767C433.963 100.514 434.289 98.1518 431.9 97.0115C429.972 96.0884 427.149 98.2876 425.52 99.7265C422.321 102.521 419.318 105.533 416.533 108.74C414.823 105.157 412.108 101.03 408.714 102.333C405.32 103.636 407.954 109.473 409.691 112.65L403.528 116.912C402.597 116.41 401.544 116.175 400.488 116.234C393.483 117.428 361.31 141.918 358.052 141.918C355.554 141.918 319.879 124.813 289.037 119.872C288.977 119.687 288.867 119.522 288.718 119.398C288.569 119.273 288.388 119.192 288.195 119.166C282.816 118.248 277.361 117.839 271.905 117.944C271.74 117.955 271.579 118.002 271.433 118.082C271.288 118.162 271.162 118.272 271.063 118.406H268.783C268.24 116.207 266.231 111.13 265.525 109.175C267.371 107.573 269.923 106.758 271.254 104.179C273.697 99.4007 273.588 91.0928 272.91 85.7714C275.978 83.4365 276.059 79.6898 275.353 75.8617C275.082 74.3141 274.24 70.8118 272.937 69.943C272.204 69.4543 270.656 69.943 269.326 70.4317C267.996 67.3366 267.996 68.7484 268.539 67.4995C268.791 66.9239 268.938 66.3078 268.973 65.6804C270.412 66.1148 273.398 63.2369 272.367 59.4359C271.826 58.0752 271.163 56.7666 270.385 55.5263C270.765 54.6032 271.579 53.4901 269.027 50.0963C267.928 48.9107 266.501 48.079 264.928 47.7071H263.679C262.778 46.3992 261.455 45.4406 259.932 44.9921C257.632 44.4058 255.195 44.7471 253.144 45.9424C252.601 46.3496 252.167 46.8926 251.624 47.2727C250.396 46.5273 248.988 46.1331 247.552 46.1331C246.115 46.1331 244.707 46.5273 243.479 47.2727C242.76 47.5547 242.106 47.9791 241.556 48.5203C241.005 49.0615 240.57 49.7084 240.275 50.4221C238.945 49.9631 237.534 49.7864 236.131 49.9033C234.729 50.0202 233.366 50.428 232.13 51.1009C227.44 53.6441 223.932 57.9223 222.356 63.0197C222.312 63.7883 222.312 64.5588 222.356 65.3275H222.058C217.985 64.7302 212.8 74.3956 216.954 81.9161C217.442 82.8121 218.067 83.6537 218.664 84.6311C220.402 87.3461 219.723 88.1606 223.605 91.4729C224.746 92.4503 224.936 92.3689 225.642 92.9662C226.347 93.5635 226.076 93.2648 226.483 94.7852C226.705 95.6809 227.103 96.5236 227.653 97.2646C228.203 98.0056 228.894 98.6301 229.687 99.1021C229.975 101.758 231.108 104.251 232.918 106.215C233.491 106.857 234.159 107.406 234.9 107.844C235.099 107.957 235.322 108.022 235.551 108.034C236.366 113.084 237.37 119.655 237.805 122.451L235.388 123.754C232.227 125.026 229.152 126.505 226.185 128.18C225.952 128.341 225.787 128.583 225.723 128.858C222.845 130.379 220.13 131.818 218.583 132.741C197.025 145.529 135.802 229.829 135.178 233.685C135.109 233.906 135.109 234.142 135.178 234.363C136.055 235.763 137.124 237.034 138.354 238.137C137.975 238.829 137.52 239.475 136.997 240.065C131.567 243.622 123.422 248.916 119.051 253.64C118.744 253.913 118.514 254.262 118.383 254.651C118.253 255.04 118.226 255.457 118.305 255.86C118.385 256.263 118.568 256.638 118.837 256.949C119.105 257.259 119.451 257.495 119.838 257.631C120.652 257.902 120.788 257.821 126.082 254.916C124.627 256.192 123.437 257.742 122.58 259.477C122.227 260.97 123.585 261.839 125.295 261.568C126.258 261.315 127.174 260.912 128.01 260.373C127.52 261.129 127.26 262.011 127.26 262.912C127.26 263.812 127.52 264.694 128.01 265.45C130.725 268.871 137.838 258.092 141.585 255.432C143.106 257.359 145.169 261.866 148.454 260.672C151.305 259.613 148.183 253.341 148.454 251.522C149.559 250.461 150.738 249.482 151.984 248.59C154.078 250.143 156.473 251.243 159.015 251.821C163.495 251.821 210.247 204.634 213.804 200.86C212.528 212.861 206.094 264.364 207.451 274.382C208.075 278.917 218.963 279.568 223.551 279.812C222.166 312.392 221.243 361.751 220.999 362.267C213.804 377.77 211.849 382.005 209.433 386.702C205.035 395.119 186.518 426.178 184.428 433.237C184.129 434.35 184.102 434.785 185.269 436.848C181.771 440.526 178.524 444.436 175.55 448.55C174.057 451.265 180.464 476.569 184.998 485.528C186.03 487.537 187.713 490.632 189.966 490.551C196.754 490.306 196.727 465.926 196.537 459.111C196.536 458.901 196.458 458.698 196.319 458.541C197.55 456.705 198.892 454.946 200.338 453.274C201.201 453.868 202.108 454.394 203.053 454.849C203.976 455.256 205.008 454.55 205.768 453.925C214.809 446.812 263.57 386.05 274.023 357.38C278.774 344.294 285.1 326.212 286.892 313.397C287.987 305.295 288.088 297.089 287.191 288.962C287.191 288.847 287.236 288.736 287.318 288.655C287.399 288.573 287.51 288.528 287.625 288.528C287.74 288.528 287.851 288.573 287.932 288.655C288.014 288.736 288.059 288.847 288.059 288.962C289.419 297.135 289.684 305.453 288.847 313.696C286.838 331.479 272.801 368.539 265.308 382.168C271.769 380.973 284.91 378.367 291.263 376.466C312.44 370.032 331.988 350.837 333.698 329.28C334.252 319.124 334.252 308.946 333.698 298.79C333.515 284.77 331.693 270.82 328.268 257.224C334.024 254.101 339.291 250.436 341.002 247.07C344.667 239.875 334.975 198.471 332.857 186.851C344.45 188.127 364.188 190.435 373.392 183.24C383.926 174.769 406.678 150.931 419.737 132.605ZM195.071 457.618C190.184 454.659 183.342 447.627 182.31 442.115C183.423 440.703 184.591 439.4 185.677 437.934C189.356 443.549 193.944 448.513 199.252 452.622C197.761 454.203 196.364 455.871 195.071 457.618ZM410.913 113.41C411.053 113.32 411.154 113.181 411.195 113.019C411.235 112.857 411.212 112.686 411.13 112.541C410.18 110.777 407.329 104.559 409.311 103.853C410.452 103.419 411.456 104.125 412.298 105.075C413.583 106.706 414.583 108.541 415.257 110.505C415.307 110.665 415.4 110.808 415.525 110.919C415.651 111.03 415.804 111.105 415.968 111.135C416.133 111.166 416.303 111.151 416.46 111.093C416.616 111.034 416.755 110.935 416.859 110.804C419.574 107.79 425.927 100.921 429.511 99.0749C432.226 97.6631 432.877 100.27 426.226 106.351C424.698 107.516 423.23 108.758 421.827 110.071C421.75 110.177 421.708 110.306 421.708 110.437C421.708 110.569 421.75 110.697 421.827 110.804C421.827 111.51 422.398 112.297 423.375 111.564C425.735 109.492 428.229 107.579 430.841 105.835C432.174 104.888 433.724 104.291 435.348 104.098C434.534 106.595 426.959 113.383 426.307 114.143C426.101 114.328 425.975 114.587 425.957 114.864C425.94 115.141 426.031 115.414 426.213 115.624C426.394 115.834 426.651 115.964 426.928 115.987C427.204 116.009 427.479 115.923 427.692 115.745C430.705 113.79 435.973 109.229 437.792 109.908C439.611 110.587 434.208 115.636 432.85 116.831C425.058 123.591 427.067 119.247 418.054 128.424C414.13 124.126 409.625 120.398 404.669 117.347L410.913 113.41ZM292.946 243.269C292.485 239.522 291.915 235.477 291.209 231.268L292.376 229.721C297.806 222.743 299.435 211.639 298.919 202.924C301.824 215.657 304.132 228.173 305.897 240.608L292.946 243.269ZM252.574 150.307C245.434 144.877 233.949 135.51 227.271 129.103L238.131 123.673C248.103 132.988 256.639 143.729 263.461 155.547C273.893 174.71 281.631 195.221 286.458 216.499L247.742 161.737L252.792 151.257C252.858 151.096 252.873 150.918 252.834 150.747C252.796 150.577 252.705 150.423 252.574 150.307ZM270.928 119.519C271.091 119.818 272.964 123.809 275.815 130.786C275.815 131.085 275.299 137.872 275.055 140.261C271.589 138.888 268.321 137.062 265.335 134.831C265.932 132.469 268.62 121.745 268.81 119.329L270.928 119.519ZM261.289 148.678C261.48 148.189 261.67 147.538 261.887 146.777L263.706 147.728C264.738 148.406 264.33 146.343 265.253 152.316C265.253 153.321 265.525 154.434 265.579 155.656C264.33 153.402 262.783 150.986 261.317 148.678H261.289ZM259.769 146.397C254.64 139.122 248.801 132.374 242.339 126.252L262.783 135.13C261.995 137.003 260.855 142.732 259.796 146.397H259.769ZM280.647 162.307C277.932 154.895 275.842 146.615 274.81 144.443C274.871 143.765 274.871 143.084 274.81 142.406C275.203 142.553 275.614 142.644 276.032 142.678C276.294 142.681 276.548 142.589 276.748 142.419C276.947 142.25 277.079 142.014 277.118 141.755C277.335 140.859 277.688 136.325 277.742 135.32C285.64 155.261 292.234 175.693 297.48 196.489C282.141 163.855 284.503 173.303 280.675 162.307H280.647ZM303.1 214.137C296.91 184.462 286.023 147.456 273.643 120.035C278.189 120.037 282.729 120.4 287.218 121.121C289.525 141.755 287.598 141.049 289.145 141.863C290.693 142.678 300.005 146.425 301.39 146.995C301.254 149.085 303.209 208.87 303.128 214.137H303.1ZM271.851 71.6806C273.266 74.7693 273.765 78.1991 273.29 81.5632C273.069 82.4194 272.614 83.1974 271.977 83.8108C271.34 84.4241 270.546 84.8487 269.682 85.0372C268.818 85.2258 267.919 85.1709 267.084 84.8787C266.25 84.5865 265.512 84.0685 264.955 83.3822C263.659 80.6533 262.684 77.7834 262.05 74.83C262.783 73.8797 270.602 71.9792 271.851 71.6806ZM234.492 98.8306C233.501 98.379 232.486 97.9803 231.452 97.636C230.758 97.3507 230.138 96.9104 229.641 96.3486C229.143 95.7869 228.781 95.1188 228.582 94.3954C228.383 93.672 228.352 92.9126 228.492 92.1754C228.631 91.4382 228.938 90.7429 229.388 90.1426C231.099 88.7036 232.646 88.7851 234.058 90.9299C234.954 92.5861 234.927 92.7218 235.334 92.8847C235.451 92.9362 235.577 92.9621 235.705 92.9607C235.833 92.9594 235.959 92.9307 236.074 92.8767C236.19 92.8228 236.293 92.7447 236.376 92.6477C236.459 92.5508 236.52 92.4372 236.556 92.3146C236.958 90.6152 237.023 88.8532 236.746 87.1289C236.42 85.2556 236.366 76.9477 236.42 76.6762C237.213 77.0942 238.104 77.2911 238.999 77.2463C243.913 77.0563 244.891 74.5313 246.846 72.4679C249.099 72.6851 249.561 73.7711 252.113 72.4679C253.308 71.7881 254.404 70.9477 255.371 69.9701C256.151 70.2896 256.905 70.6709 257.624 71.1104C259.251 71.8929 261.087 72.1332 262.86 71.796C264.634 71.4589 266.253 70.562 267.48 69.2371C267.778 69.8072 268.05 70.3774 268.294 70.9747C265.799 71.7488 263.45 72.9324 261.344 74.477C260.882 75.0472 261.561 78.1423 261.724 78.8753C259.449 79.1614 257.249 79.8705 255.235 80.9659C254.828 79.5541 253.932 76.9205 252.52 76.1875C252.095 76.0575 251.641 76.0575 251.217 76.1875C248.773 76.5676 240.004 79.2011 238.945 80.6401C238.022 81.6446 240.655 89.4095 241.47 90.6856C244.592 95.5183 253.742 94.1065 255.452 88.4593C255.876 86.564 255.876 84.5987 255.452 82.7035C256.24 82.7035 258.602 81.8618 258.873 81.7804C260.746 85.9886 261.289 86.233 263.461 90.767C263.163 91.0114 262.674 91.4186 262.267 91.6901C260.339 92.9662 259.932 92.749 260.041 93.292C260.072 93.3997 260.142 93.4923 260.237 93.5523C260.332 93.6122 260.446 93.6355 260.556 93.6178C261.696 93.455 262.809 93.1446 263.869 92.6947C264.503 92.4582 265.026 91.9934 265.335 91.3915C266.095 89.681 261.887 83.2465 260.231 81.3188C260.556 81.3188 261.317 80.7758 261.887 80.4772C262.647 83.518 263.163 85.9072 266.095 87.1018C266.942 87.4217 267.846 87.5674 268.751 87.5301C269.656 87.4927 270.544 87.2732 271.362 86.8846C271.797 91.663 271.715 99.4279 269.434 103.663C268.267 105.862 265.389 106.704 263.543 108.523C263 109.039 263.353 109.772 263.543 110.559C266.557 118.949 266.611 118.922 266.448 120.008C265.649 124.515 264.533 128.961 263.109 133.311C262.43 133.012 254.801 128.967 239.868 123.157C239.407 120.089 236.936 103.718 236.149 100.704C236.203 99.6451 236.067 99.4007 234.492 98.6948V98.8306ZM253.497 87.7534C252.629 90.7127 248.529 91.9888 245.597 91.1743C242.665 90.3598 242.475 88.8665 241.09 85.337C240.441 83.9887 239.993 82.5526 239.759 81.0745C240.655 80.0971 250.457 78.088 251.678 77.8979C253.392 80.8294 254.035 84.2648 253.497 87.6176V87.7534ZM147.259 250.762C146.228 251.767 147.612 255.052 147.83 257.902C147.83 258.147 147.83 259.206 147.667 259.287C146.173 259.776 144.789 257.522 143.947 256.165C143.106 254.807 142.264 252.961 140.934 253.45C138.219 254.726 131.92 263.088 129.449 263.957C128.2 261.568 135.341 254.753 135.585 254.373C135.69 254.198 135.745 253.998 135.744 253.795C135.743 253.591 135.686 253.392 135.58 253.218C135.473 253.045 135.321 252.904 135.14 252.811C134.959 252.717 134.756 252.675 134.553 252.69C134.065 252.69 133.739 253.124 132.979 253.803C130.666 256.059 128.02 257.946 125.132 259.396C127.75 256.392 130.552 253.554 133.522 250.898C133.668 250.747 133.771 250.559 133.82 250.355C133.82 250.355 133.25 248.916 132.137 249.486C130.562 250.355 122.906 254.78 120.49 255.92C120.164 255.703 120.354 255.377 120.49 255.052C124.318 250.355 132.734 244.653 137.893 241.042C138.498 240.419 139.002 239.704 139.386 238.925C142.959 242.249 146.77 245.307 150.789 248.074C149.551 248.886 148.371 249.784 147.259 250.762ZM210.438 275.441C209.84 275.061 209.406 274.708 209.324 274.22C207.831 263.142 216.139 200.372 216.003 197.901C216.003 197.756 215.974 197.613 215.918 197.479C215.862 197.345 215.779 197.224 215.676 197.123C215.572 197.022 215.449 196.943 215.314 196.89C215.179 196.837 215.035 196.811 214.89 196.815C213.505 196.815 215.949 196.815 181.36 229.938C179.079 232.083 161.649 248.753 158.744 249.866C154.753 249.567 139.739 237.594 137.295 233.82C142.02 224.264 199.306 145.637 219.126 133.61C220.646 132.687 223.252 131.248 226.103 129.727C227.089 130.657 228.151 131.502 229.28 132.252C235.578 138.225 244.348 145.664 251 151.257L245.814 161.547C245.735 161.683 245.694 161.838 245.694 161.995C245.694 162.152 245.735 162.307 245.814 162.443C287.924 222.852 287.299 222.173 287.571 222.173C290.27 236.132 291.949 250.27 292.593 264.473C292.593 268.301 292.593 267.975 292.756 267.704C292.919 267.432 292.756 267.894 292.756 267.894C286.186 275.061 221.162 281.74 210.438 275.441ZM360.523 185.493C348.224 187.204 334.323 184.652 331.635 184.543C330.141 177.305 327.165 170.455 322.893 164.425C322.828 164.337 322.732 164.277 322.624 164.257C322.516 164.237 322.405 164.258 322.313 164.316C322.22 164.375 322.153 164.466 322.124 164.571C322.096 164.677 322.109 164.79 322.16 164.887C323.734 168.09 329.002 181.91 330.305 185.276C329.897 186.579 342.577 239.006 338.993 246.065C335.789 252.445 317.137 260.482 310.404 262.789C309.073 247.675 306.897 232.646 303.888 217.775C304.811 209.956 303.616 163.475 303.263 146.289C303.253 146.089 303.186 145.896 303.071 145.733C302.956 145.57 302.796 145.442 302.612 145.366L290.421 140.234C290.366 133.782 289.958 127.338 289.2 120.931C319.635 126.198 355.093 143.601 358.052 143.628C362.342 143.628 394.216 119.193 400.813 118.216C403.745 117.754 416.343 128.75 417.809 131.791C404.94 149.764 382.324 173.384 371.844 181.557C368.468 183.814 364.571 185.169 360.523 185.493Z" fill="#CCE4FF"/>
<path d="M250.701 82.3234C250.667 82.1451 250.598 81.9753 250.499 81.8235C250.399 81.6718 250.271 81.5412 250.121 81.4391C249.971 81.337 249.802 81.2654 249.625 81.2285C249.447 81.1915 249.264 81.19 249.086 81.2238C248.907 81.2577 248.737 81.3264 248.586 81.4259C248.434 81.5254 248.303 81.6538 248.201 81.8038C248.099 81.9538 248.027 82.1225 247.991 82.3001C247.954 82.4778 247.952 82.661 247.986 82.8393C248.529 85.5543 248.638 86.1787 249.832 86.1787C250.058 86.1795 250.28 86.124 250.479 86.0171C250.678 85.9102 250.847 85.7554 250.971 85.5667C251.095 85.378 251.17 85.1614 251.189 84.9364C251.209 84.7114 251.171 84.4852 251.081 84.2782C251 83.8438 250.755 82.5678 250.701 82.3234ZM259.009 100.297C260.774 100.813 262.457 99.9709 262.403 99.5365C262.348 99.1021 262.403 99.3193 260.013 98.4234C258.412 97.8261 256.647 95.7084 256.022 96.0342C255.398 96.36 256.348 98.0976 256.565 98.4234C257.146 99.3046 258.007 99.9646 259.009 100.297ZM308.666 74.5042C305.11 89.4096 302.503 102.061 302.069 104.586C301.78 105.685 301.725 106.832 301.906 107.953C303.345 111.021 321.943 117.075 324.305 115.881C326.667 114.686 332.803 100.867 339.943 86.6131C344.317 86.7529 348.694 86.4344 353.002 85.6629C357.538 84.8307 361.953 83.4352 366.143 81.5089C375.319 77.2735 385.365 59.1373 386.722 50.0149C387.74 40.1107 385.643 30.1357 380.722 21.4803C357.943 -18.023 291.127 3.23547 296.557 47.1099C298.108 57.1492 302.285 66.6 308.666 74.5042ZM325.228 106.84C325.228 107.274 324.739 107.22 322.513 106.84C317.959 106.268 313.55 104.859 309.508 102.686C307.607 101.654 307.091 101.437 307.282 100.975C307.472 100.514 307.879 100.677 310.811 101.491C311.083 101.491 319.499 104.206 321.915 105.048C325.038 106.46 325.228 106.46 325.228 106.84ZM324.739 62.6668C327.638 62.8172 330.527 62.2188 333.128 60.9292C335.546 62.1004 338.161 62.8094 340.839 63.0198C336.278 71.5177 327.02 88.8394 324.033 98.0704L312.521 94.8939C315.236 88.215 321.237 72.5766 324.685 62.6668H324.739ZM323.789 60.4134C321.762 60.1072 319.892 59.1446 318.465 57.6734C317.038 56.2022 316.132 54.3034 315.888 52.2684C315.128 46.8384 318.603 40.7568 323.843 42.1957C327.128 43.0917 327.535 45.6981 326.965 48.9832C326.477 51.3724 324.712 57.3726 323.734 60.3048L323.789 60.4134ZM331.174 53.8974C331.463 52.1208 332.13 50.4268 333.128 48.9289C333.603 48.1124 334.298 47.4455 335.133 47.0039C335.968 46.5624 336.91 46.3639 337.852 46.4311C339.862 47.0284 340.73 50.8294 339.074 53.2186C337.483 55.3308 335.501 57.1187 333.237 58.4857C332.458 58.0285 331.837 57.3438 331.459 56.5235C331.08 55.7033 330.962 54.7869 331.119 53.8974H331.174ZM306.223 19.3897C318.386 4.75587 341.273 -1.05423 357.808 4.97307C366.79 8.05633 374.345 14.2993 379.066 22.5391C383.747 30.7752 385.749 40.2639 384.795 49.6891C383.546 58.1328 373.935 75.6717 365.491 79.5541C357.771 83.0755 349.348 84.7843 340.866 84.5497C339.943 84.5497 338.966 84.5497 338.613 85.2013C337.011 88.4593 334.079 94.7581 331.201 100.677C329.213 99.7172 327.152 98.9183 325.038 98.2876C328.187 89.2738 338.124 71.572 342.848 62.9926C346.941 63.3433 351.056 62.6326 354.794 60.9292C355.804 60.3976 356.641 59.5888 357.208 58.598C357.775 57.6071 358.047 56.4752 357.993 55.335C357.938 54.1949 357.56 53.0939 356.902 52.1612C356.244 51.2284 355.334 50.5027 354.278 50.0692C350.07 48.0058 346.296 52.9471 344.097 57.1011C343.5 58.1871 342.821 59.4631 342.061 60.9021C339.865 60.7578 337.699 60.3101 335.626 59.5717C337.691 58.1207 339.522 56.3628 341.056 54.3589C341.916 53.0608 342.351 51.5279 342.303 49.9717C342.254 48.4155 341.724 46.9128 340.785 45.6709C340.047 44.8143 339.022 44.2562 337.903 44.1013C336.783 43.9463 335.645 44.2052 334.703 44.8293C332.802 45.9976 331.278 47.6899 330.315 49.703C329.352 51.7161 328.99 53.9644 329.273 56.178C329.568 57.4275 330.241 58.5556 331.201 59.4088C329.42 60.1464 327.508 60.5158 325.581 60.4948C326.667 57.2911 328.431 51.5082 328.893 49.1461C329.182 47.7995 329.247 46.4141 329.083 45.0465C328.873 43.8724 328.328 42.784 327.514 41.9122C326.7 41.0404 325.652 40.4223 324.495 40.1323C317.897 38.259 313.037 45.5623 313.988 52.377C314.256 54.8191 315.304 57.1097 316.977 58.9093C318.649 60.709 320.857 61.9219 323.273 62.3682C319.798 72.1422 314.368 87.9163 311.653 94.6495L305.68 93.102C309.508 73.8798 309.969 74.3413 309.426 74.097C303.257 66.2317 299.31 56.8561 297.996 46.947C297.356 42.0335 297.758 37.0404 299.175 32.2925C300.593 27.5446 302.994 23.1483 306.223 19.3897ZM343.907 61.065C345.807 57.6169 349.608 50.0692 353.301 51.9154C354.039 52.213 354.682 52.7066 355.161 53.3429C355.639 53.9793 355.935 54.7343 356.016 55.5264C355.961 60.3048 348.522 61.1464 343.798 61.065H343.907ZM447.837 73.0381C451.109 71.114 454.973 70.457 458.697 71.1919C462.788 71.2651 466.695 72.9007 469.618 75.7631C472.541 78.6255 474.258 82.4979 474.417 86.586C471.957 85.1587 469.081 84.6218 466.272 85.0656C459.457 85.6629 450.552 89.3553 451.747 95.9256C452.724 101.356 459.892 100.623 465.322 99.1564C470.752 97.6903 475.069 95.0296 476.182 89.7897C482.779 94.5952 484.327 103.012 484.598 111.238C484.598 111.353 484.644 111.464 484.725 111.545C484.807 111.627 484.917 111.673 485.033 111.673C485.148 111.673 485.258 111.627 485.34 111.545C485.421 111.464 485.467 111.353 485.467 111.238C485.657 102.034 484.001 93.0205 476.48 87.7806C476.558 85.4233 476.156 83.0749 475.299 80.8775C474.443 78.6801 473.149 76.6794 471.496 74.9966C469.844 73.3137 467.867 71.9837 465.686 71.087C463.505 70.1904 461.164 69.7458 458.806 69.7801C455.037 69.2298 451.194 70.0175 447.946 72.0064C446.941 72.4951 447.403 73.2282 447.837 73.0381ZM472.598 92.5047C469.53 96.5229 460.842 98.6134 456.824 97.9347C455.33 97.6903 454.109 97.0659 453.783 95.5183C452.806 90.0883 462.172 87.129 467.765 86.9389C470.043 86.7643 472.314 87.3465 474.227 88.5951C474.021 90.0145 473.461 91.3593 472.598 92.5047ZM435.402 41.2998C438.307 37.716 436.353 31.4715 428.235 31.4443C425.085 31.4443 423.565 34.648 423.782 37.716C424.271 45.0193 432.497 44.8021 435.402 41.2998ZM425.683 37.5802C425.683 35.7883 426.524 33.4534 428.398 33.4806C432.769 33.4806 434.778 35.5168 434.778 37.7703C434.669 42.9016 425.33 45.5623 425.683 37.5802ZM424.569 345.38C400.705 335.85 389.627 381.978 370.134 421.617C370.011 423.283 370.065 424.958 370.297 426.613C370.297 430.766 370.758 458.269 373.175 461.392C373.826 462.641 376.568 461.392 377.844 460.604C388.682 453.895 398.895 446.226 408.361 437.69C408.442 437.597 408.503 437.49 408.54 437.373C408.577 437.256 408.59 437.133 408.578 437.011C413.628 429.816 432.552 392.349 437.14 373.561C440.344 360.258 437.167 350.348 424.569 345.38ZM433.095 379.86C420.318 378.223 407.966 374.189 396.686 367.969C403.04 355.941 410.886 342.23 423.836 347.389C438.253 353.118 437.954 364.982 433.095 379.779V379.86ZM387.917 450.45C387.083 449.751 386.172 449.15 385.202 448.658C381.533 446.793 377.294 446.386 373.337 447.518C373.066 444.287 371.518 423.273 371.518 423.083C391.854 430.522 385.582 427.291 405.727 437.31C403.61 439.319 395.655 444.884 387.917 450.396V450.45ZM401.926 371.878C404.574 373.325 407.293 374.639 410.071 375.815C403.848 385.59 398.349 395.808 393.618 406.386C389.057 415.915 389.22 415.861 384.578 426.26C381.863 425.391 379.148 424.576 376.433 423.762C379.365 417.925 400.216 375.245 401.926 371.824V371.878ZM385.636 426.531C394.46 410.703 403.447 391.019 411.157 376.168C413.872 377.308 416.587 378.231 419.302 379.046C417.863 381.761 413.655 388.983 412.542 391.073C411.429 393.164 400.27 415.155 399.483 416.839C398.234 419.554 394.813 427.128 393.754 429.545C390.985 428.323 388.324 427.4 385.528 426.477L385.636 426.531ZM394.732 429.898C396.388 426.884 403.202 414.232 404.044 412.603C405.32 410.078 419.547 381.001 420.334 379.317C422.832 380.023 425.465 380.62 427.149 380.946C422.18 394.521 407.872 420.667 402.714 433.563C398.017 431.364 396.958 430.821 394.623 429.843L394.732 429.898ZM396.388 368.756L401.248 371.471C391.454 388.149 382.923 405.538 375.727 423.49L371.654 422.241C387.428 388.63 388.161 384.231 396.279 368.702L396.388 368.756ZM407.574 435.925L403.474 433.97C407.899 425.282 421.746 402.992 428.072 381.136C429.592 381.408 431.086 381.652 432.524 381.842C425.548 400.459 417.17 418.52 407.465 435.871L407.574 435.925ZM322.513 453.545C323.595 452.649 324.368 451.436 324.724 450.077C325.08 448.718 324.999 447.282 324.495 445.97C324.264 444.079 323.397 442.322 322.035 440.989C320.673 439.656 318.898 438.826 317.002 438.637C315.105 438.447 313.201 438.909 311.602 439.946C310.003 440.983 308.805 442.533 308.205 444.341C304.729 442.088 300.956 439.699 297.345 437.418C300.06 433.807 308.042 435.409 308.856 438.368C308.874 438.484 308.937 438.587 309.031 438.656C309.126 438.725 309.243 438.753 309.358 438.735C309.474 438.717 309.577 438.654 309.646 438.56C309.715 438.466 309.743 438.348 309.725 438.233C309.318 433.509 299.489 430.739 295.526 436.305C292.023 434.16 287.679 431.554 284.041 429.572C287.163 426.857 294.141 428.377 294.901 431.201C294.937 431.297 295.006 431.378 295.095 431.429C295.185 431.479 295.29 431.496 295.391 431.477C295.492 431.457 295.583 431.402 295.647 431.322C295.712 431.242 295.746 431.141 295.743 431.038C295.39 426.64 286.295 423.68 282.168 428.513C280.439 427.544 278.62 426.744 276.738 426.124C276.394 425.981 276.016 425.941 275.65 426.009C275.284 426.076 274.945 426.248 274.674 426.504C267.805 435.056 244.646 457.265 233.949 459.844C233.68 459.885 233.427 459.995 233.214 460.165C233.002 460.335 232.838 460.557 232.739 460.811C232.64 461.064 232.609 461.339 232.65 461.608C232.691 461.876 232.802 462.13 232.972 462.342C235.321 464.726 238.011 466.748 240.954 468.342C238.239 471.057 236.121 473.501 234.547 475.265C233.732 476.134 233.298 492.75 234.004 496.415C234.109 496.774 234.34 497.083 234.655 497.284C238.076 499.619 282.141 518.678 286.648 516.126C289.661 514.416 325.635 476.976 326.205 475.836C327.074 474.044 326.775 462.098 326.721 457.319C326.504 455.88 323.816 454.333 322.513 453.545ZM235.633 489.41V483.356C246.9 488.786 272.692 499.863 282.466 502.958C284.964 503.773 285.181 503.664 286.485 502.958C293.951 498.18 320.314 468.478 325.146 463.944V469.672C310.485 484.361 285.589 510.099 285.127 508.633C282.439 508.47 237.968 490.496 235.633 489.41ZM321.834 444.396C322.81 446.04 323.334 447.913 323.354 449.826C323.345 450.434 323.196 451.032 322.918 451.574C322.64 452.115 322.241 452.585 321.752 452.948C319.472 451.428 315.155 448.604 310.051 445.292C312.847 439.78 319.065 439.699 321.725 444.396H321.834ZM234.954 461.772C246.52 458.351 268.484 437.174 275.869 427.997C277.646 428.492 279.359 429.193 280.973 430.088C278.258 435.138 281.163 440.676 282.195 439.889C282.765 439.454 281.733 439.292 281.57 436.631C281.501 434.687 281.941 432.759 282.847 431.038C286.593 432.993 290.992 435.545 294.711 437.69C292.43 442.767 295.173 447.79 296.123 447.056C297.073 446.323 295.688 446.486 295.526 443.826C295.459 442.081 295.794 440.344 296.503 438.749C300.331 441.002 304.241 443.337 307.825 445.536C307.272 446.889 307.053 448.355 307.185 449.81C307.318 451.265 307.798 452.667 308.585 453.898C308.62 453.945 308.665 453.983 308.716 454.013C308.766 454.042 308.822 454.061 308.88 454.068C308.938 454.076 308.997 454.072 309.053 454.057C309.11 454.042 309.163 454.015 309.209 453.98C309.256 453.944 309.294 453.9 309.324 453.849C309.353 453.798 309.372 453.742 309.379 453.684C309.387 453.626 309.383 453.568 309.368 453.511C309.352 453.455 309.326 453.402 309.291 453.355C308.803 452.277 308.562 451.103 308.585 449.919C308.609 448.735 308.896 447.572 309.426 446.513C315.752 450.369 320.857 453.6 322.431 454.658C322.133 454.93 293.815 480.125 284.177 487.619C277.851 485.962 244.646 469.482 234.954 461.772ZM235.986 476.894C248.285 482.324 276.222 494.922 282.656 496.144C283.77 496.361 284.204 496.442 286.322 494.759C295.363 487.51 324.766 456.749 325.038 457.075C325.051 457.156 325.051 457.238 325.038 457.319V462.749C318.983 467.609 285.317 502.958 284.774 501.275C282.059 501.275 237.94 483.275 235.687 482.27C235.633 481.13 235.877 478.089 235.986 476.894ZM285.426 514.307C282.711 515.855 241.361 499.049 235.823 495.628C235.615 493.898 235.515 492.157 235.524 490.415C247.416 496.279 282.005 510.886 285.181 510.75C289.824 510.506 322.648 473.555 324.983 470.976C325.01 472.362 324.874 473.748 324.576 475.102C324.115 475.998 287.218 513.302 285.426 514.307ZM60.488 361.263C60.6781 364.168 60.8138 366.693 60.8138 369.055C60.8138 369.415 60.9569 369.76 61.2114 370.014C61.466 370.269 61.8113 370.412 62.1713 370.412C62.5314 370.412 62.8766 370.269 63.1312 370.014C63.3858 369.76 63.5288 369.415 63.5288 369.055C63.5288 366.53 63.3931 364.032 63.203 361.072C63.1778 360.712 63.0106 360.377 62.7382 360.14C62.4658 359.904 62.1105 359.785 61.7505 359.81C61.3905 359.835 61.0552 360.002 60.8184 360.275C60.5817 360.547 60.4628 360.902 60.488 361.263ZM474.173 306.827C473.995 306.837 473.822 306.883 473.663 306.961C473.503 307.039 473.361 307.149 473.245 307.283C473.128 307.417 473.04 307.573 472.985 307.742C472.93 307.911 472.909 308.089 472.924 308.266C473.087 310.764 473.249 313.451 473.249 316.058C473.249 316.418 473.392 316.763 473.647 317.018C473.902 317.272 474.247 317.415 474.607 317.415C474.967 317.415 475.312 317.272 475.567 317.018C475.821 316.763 475.964 316.418 475.964 316.058C475.964 313.343 475.802 310.628 475.612 308.076C475.601 307.898 475.556 307.725 475.477 307.566C475.399 307.406 475.289 307.264 475.155 307.148C475.021 307.031 474.865 306.943 474.696 306.888C474.528 306.833 474.35 306.812 474.173 306.827ZM53.4562 354.502C53.8162 354.502 54.1615 354.359 54.4161 354.105C54.6707 353.85 54.8137 353.505 54.8137 353.145C54.8137 352.785 54.6707 352.439 54.4161 352.185C54.1615 351.93 53.8162 351.787 53.4562 351.787C50.171 351.787 47.4289 352.031 44.7139 351.977C44.3513 351.977 44.0032 352.119 43.7443 352.373C43.4854 352.627 43.3363 352.972 43.3292 353.335C43.3292 353.695 43.4723 354.04 43.7268 354.295C43.9814 354.549 44.3267 354.692 44.6867 354.692C47.4832 354.746 50.5511 354.638 53.4562 354.502ZM465.756 298.79C462.498 298.79 459.756 298.98 457.014 299.008C456.654 299.008 456.308 299.151 456.054 299.405C455.799 299.66 455.656 300.005 455.656 300.365C455.656 300.725 455.799 301.07 456.054 301.325C456.308 301.58 456.654 301.723 457.014 301.723C459.946 301.723 462.987 301.723 465.919 301.505C466.279 301.484 466.616 301.32 466.855 301.05C467.094 300.78 467.217 300.426 467.195 300.066C467.173 299.706 467.01 299.37 466.74 299.13C466.47 298.891 466.116 298.769 465.756 298.79ZM59.755 337.723C59.9179 340.221 60.0808 342.909 60.0808 345.516C60.0877 345.873 60.233 346.215 60.4861 346.468C60.7392 346.721 61.0804 346.866 61.4383 346.873C61.7983 346.873 62.1436 346.73 62.3982 346.475C62.6528 346.221 62.7958 345.876 62.7958 345.516C62.7958 342.801 62.6329 340.086 62.47 337.533C62.4448 337.173 62.2776 336.838 62.0052 336.601C61.7328 336.365 61.3775 336.246 61.0175 336.271C60.6574 336.296 60.3222 336.463 60.0854 336.736C59.8486 337.008 59.7298 337.363 59.755 337.723ZM475.231 292.519C475.231 289.804 475.068 287.089 474.878 284.537C474.853 284.177 474.686 283.841 474.414 283.605C474.141 283.368 473.786 283.249 473.426 283.274C473.066 283.299 472.731 283.467 472.494 283.739C472.257 284.011 472.138 284.367 472.163 284.727C472.326 287.224 472.489 289.912 472.489 292.519C472.489 292.879 472.632 293.224 472.887 293.479C473.141 293.733 473.487 293.876 473.847 293.876C474.209 293.876 474.557 293.734 474.816 293.48C475.075 293.226 475.224 292.881 475.231 292.519ZM79.7917 354.149C79.97 354.142 80.1452 354.1 80.3072 354.025C80.4693 353.951 80.615 353.845 80.736 353.713C80.857 353.582 80.951 353.429 81.0126 353.261C81.0742 353.094 81.1022 352.916 81.0949 352.737C81.0675 352.382 80.9067 352.05 80.6449 351.809C80.383 351.567 80.0394 351.433 79.6831 351.434C76.3979 351.57 73.6558 351.679 70.9136 351.624C70.5536 351.624 70.2083 351.767 69.9537 352.022C69.6992 352.276 69.5561 352.622 69.5561 352.982C69.5561 353.342 69.6992 353.687 69.9537 353.942C70.2083 354.196 70.5536 354.339 70.9136 354.339C73.8187 354.394 76.8595 354.285 79.7917 354.149ZM492.092 298.437C489.377 298.573 486.363 298.655 483.349 298.655C483.17 298.647 482.991 298.676 482.823 298.74C482.656 298.803 482.503 298.9 482.373 299.025C482.244 299.149 482.141 299.298 482.071 299.463C482.001 299.628 481.964 299.806 481.965 299.985C481.965 300.348 482.107 300.696 482.361 300.955C482.614 301.213 482.96 301.363 483.322 301.37C486.417 301.37 488.915 301.37 492.2 301.152C492.378 301.145 492.554 301.103 492.716 301.029C492.878 300.954 493.023 300.848 493.145 300.717C493.266 300.586 493.36 300.432 493.421 300.264C493.483 300.097 493.511 299.919 493.503 299.741C493.47 299.388 493.307 299.059 493.047 298.819C492.786 298.578 492.446 298.443 492.092 298.437ZM17.401 273.704C17.7539 273.975 94.3169 262.627 97.6021 260.617C97.784 260.485 97.9293 260.308 98.0242 260.104C98.1192 259.9 98.1608 259.675 98.1451 259.45C98.1451 255.948 93.5567 223.069 91.3576 214.87C91.0861 213.865 90.8146 212.861 90.1901 212.508C86.0362 210.01 12.8398 223.802 8.46863 226.626C8.35017 226.696 8.24782 226.79 8.16828 226.902C8.08874 227.014 8.03381 227.142 8.00708 227.277C7.08398 230.562 15.0389 272.075 17.401 273.704ZM9.66323 227.929C14.876 225.567 81.3121 213.404 88.9141 214.354C90.7603 219.105 95.7016 253.911 96.0274 259.016C92.2535 260.129 18.4327 272.808 18.1612 272.862C17.8897 272.916 17.8625 273.242 17.2924 271.532C14.9032 264.364 9.52748 234.065 9.66323 227.929Z" fill="#CCE4FF"/>
<path d="M103.575 263.034C103.723 262.759 103.789 262.448 103.765 262.138C103.765 257.821 97.575 209.901 95.3758 206.073C95.2035 205.791 94.9594 205.559 94.6685 205.402C94.3776 205.244 94.0503 205.167 93.7197 205.177C84.6245 204.064 7.89855 219.051 2.84865 222.553C2.14275 223.042 2.25135 224.264 2.3328 225.567C2.7672 232.707 10.4778 279.677 13.1928 279.405C13.4915 279.405 13.3829 279.188 12.677 280.627C8.44155 289.342 0.405152 317.252 0.568052 322.872C0.568052 325.234 1.11105 328.302 3.44595 328.139C20.1975 326.076 102.326 313.044 125.947 308.184C126.87 307.994 127.467 307.152 127.44 305.768C127.161 303.461 126.462 301.225 125.377 299.17C122.064 292.953 108.326 268.328 103.575 263.034ZM13.3557 278.564C11.238 275.849 3.44595 229.069 4.04325 223.883C10.0163 220.788 85.7104 206.154 93.6383 207.349C95.8102 213.322 101.43 256.463 101.783 261.649C92.1721 264.961 25.6275 275.713 13.3557 278.564ZM14.5503 279.378C16.8309 278.808 94.507 265.803 101.62 263.93C105.503 267.541 123.042 298.736 124.182 301.397C108.598 304.112 16.1522 319.56 2.55 321.623C2.74005 313.397 11.1837 284.645 14.5503 279.378Z" fill="#CCE4FF"/>
<path d="M24.7588 307.533C27.1208 307.18 77.2397 301.153 95.3488 296.239C95.4604 296.21 95.556 296.138 95.6145 296.038C95.6731 295.939 95.6898 295.821 95.661 295.709C95.6322 295.598 95.5602 295.502 95.4609 295.443C95.3616 295.385 95.2432 295.368 95.1316 295.397C91.5749 296.13 48.1892 301.913 24.7045 306.691C24.6396 306.68 24.5729 306.683 24.5095 306.701C24.446 306.719 24.3875 306.751 24.3383 306.795C24.2891 306.839 24.2506 306.893 24.2256 306.954C24.2006 307.015 24.1898 307.081 24.1941 307.147C24.1983 307.213 24.2175 307.277 24.2501 307.334C24.2827 307.391 24.3279 307.44 24.3824 307.477C24.4368 307.515 24.4989 307.539 24.5642 307.549C24.6294 307.558 24.6959 307.553 24.7588 307.533ZM61.3841 118.623C60.3699 120.914 59.5171 123.273 58.832 125.682C58.7916 126.069 58.8982 126.457 59.1307 126.768C61.8728 130.895 89.9731 162.579 97.3036 167.032C98.3081 167.656 99.5027 168.091 100.236 167.195C105.561 160.568 112.51 155.433 120.408 152.289C126.836 150.015 133.576 148.742 140.391 148.515C145.821 148.027 146.771 147.484 148.861 143.927C151.327 139.246 154.599 135.037 158.527 131.492C163.535 127.114 169.093 123.408 175.061 120.469C175.33 120.317 175.54 120.079 175.658 119.794C175.776 119.509 175.795 119.192 175.713 118.895C174.795 116.559 173.581 114.351 172.102 112.324C173.079 111.999 174.165 111.7 174.165 110.723C174.165 108.008 150.49 73.7443 143.92 67.2826C143.241 66.6038 142.264 65.7079 141.368 65.7622C127.793 66.5224 114.571 79.3372 106.915 90.523C98.1452 90.1972 92.4709 89.4098 82.4797 93.6181C75.4263 96.612 69.0671 101.03 63.8005 106.596C62.986 107.437 57.4474 113.302 57.3659 113.763C57.2845 114.225 57.4474 114.225 61.3841 118.623ZM169.984 117.863C158.663 119.791 151.441 129.212 146.119 139.447C143.757 144.008 143.974 144.226 141.477 144.171C137.109 143.924 132.727 144.088 128.39 144.66C125.209 145.136 122.081 145.917 119.051 146.995C112.155 149.438 104.254 157.258 100.046 163.068C99.9563 163.187 99.8427 163.287 99.7122 163.359C99.5818 163.432 99.4375 163.476 99.2888 163.488C99.1401 163.501 98.9904 163.482 98.8494 163.433C98.7085 163.384 98.5795 163.306 98.471 163.204C89.6473 154.108 74.036 138.144 66.1897 128.967C65.8096 128.56 66.4612 127.963 66.8413 128.397C71.9183 133.827 85.0318 146.832 99.0955 160.977C103.847 154.923 111.177 147.592 118.426 145.04C122.379 143.63 126.492 142.718 130.671 142.325C134.584 142.028 138.514 142.028 142.427 142.325C144.029 140.479 151.957 119.519 169.93 117.184C169.982 117.223 170.026 117.273 170.056 117.33C170.087 117.388 170.104 117.452 170.107 117.517C170.109 117.582 170.097 117.647 170.071 117.707C170.045 117.767 170.006 117.82 169.957 117.863H169.984ZM141.341 67.9613C146.771 71.7623 168.871 104.478 171.749 110.207C166.755 111.789 161.934 113.872 157.359 116.424C153.027 118.596 149.234 121.707 146.256 125.53C143.279 129.353 141.191 133.792 140.146 138.524C130.399 122.669 116.797 105.211 107.756 92.3692C108.299 92.0162 123.558 69.0202 141.341 67.9613ZM83.077 95.1113C92.9867 91.1203 98.471 92.0434 106.67 92.3963C114.815 106.297 129.449 125.899 139.087 138.741C130.192 136.636 120.831 137.924 112.833 142.352C108.028 145.067 102.163 151.583 98.5525 155.629C93.3397 151.448 63.2575 119.411 58.4248 113.981C65.8639 105.564 72.7328 99.2381 83.077 95.0027V95.1113ZM33.3925 164.154C32.7214 163.683 31.9281 163.417 31.1089 163.388C30.2896 163.359 29.4795 163.568 28.777 163.991C28.2653 164.219 27.8036 164.546 27.4183 164.952C27.0329 165.359 26.7314 165.838 26.531 166.361C26.3306 166.884 26.2351 167.441 26.2502 168.001C26.2652 168.561 26.3904 169.113 26.6185 169.624C26.8467 170.136 27.1734 170.598 27.5801 170.983C27.9867 171.369 28.4652 171.67 28.9883 171.87C29.5115 172.071 30.0689 172.166 30.629 172.151C31.189 172.136 31.7405 172.011 32.2522 171.783C33.0695 171.604 33.8132 171.181 34.3847 170.57C34.9562 169.959 35.3284 169.189 35.4521 168.361C35.5758 167.534 35.445 166.688 35.0772 165.937C34.7094 165.186 34.1218 164.564 33.3925 164.154ZM31.6006 169.584C29.7001 170.181 28.5598 169.584 28.0982 168.661C27.2294 166.733 28.3154 163.774 31.139 164.642C33.121 165.376 34.7228 168.715 31.6006 169.72V169.584ZM171.45 39.9154C172.238 41.5172 175.903 40.9199 177.505 40.4041C178.346 40.1326 178.889 39.8339 178.971 39.0194C179.215 36.9832 179.487 19.3357 178.564 17.6252C178.468 17.4458 178.322 17.2986 178.143 17.2021C177.965 17.1055 177.761 17.0638 177.559 17.0822C174.662 17.0742 171.78 17.495 169.007 18.3311C167.894 19.0099 170.473 38.1235 171.45 39.9154ZM169.577 18.9827C172.085 18.6239 174.621 18.5057 177.152 18.6298C177.315 20.6389 176.88 38.042 176.853 38.3135C175.706 38.7245 174.481 38.873 173.269 38.7479C173.079 38.1235 172.753 36.4402 172.346 34.3225C171.15 29.2623 170.225 24.1417 169.577 18.9827ZM30.7589 141.239C31.0194 141.373 31.3079 141.442 31.6006 141.442C31.8932 141.442 32.1817 141.373 32.4422 141.239C33.4911 140.592 34.323 139.647 34.8314 138.524C34.9005 138.345 34.9218 138.15 34.8932 137.96C34.8647 137.769 34.7872 137.59 34.6685 137.438C33.3653 135.891 19.1387 119.411 17.4011 120.442C15.2677 121.823 13.2436 123.366 11.3467 125.058C11.2702 125.126 11.209 125.21 11.1669 125.303C11.1248 125.397 11.1028 125.498 11.1023 125.601C11.048 127.013 26.8493 139.664 30.7589 141.239ZM17.7269 121.148C19.7089 122.587 26.3878 130.841 32.578 138.144C32.3117 138.563 31.9819 138.939 31.6006 139.257C25.0923 135.092 18.8784 130.483 13.0028 125.465C14.4757 123.918 16.0542 122.476 17.7269 121.148ZM60.3796 61.2553C60.9769 50.7211 67.1128 45.8341 73.5202 44.5852C71.7011 51.2641 71.9998 59.9521 78.5972 61.0652C81.7466 61.5811 83.2942 59.9521 85.5748 58.0516C95.3216 49.9066 87.4481 41.7616 76.4524 42.3317C80.552 31.0916 90.0274 21.9421 102.598 21.6434C102.713 21.6434 102.824 21.5976 102.905 21.5162C102.986 21.4347 103.032 21.3242 103.032 21.209C103.032 21.0938 102.986 20.9833 102.905 20.9018C102.824 20.8204 102.713 20.7746 102.598 20.7746C89.0228 20.5031 78.3529 30.2771 74.1446 42.4946C66.8956 43.7435 59.7008 49.1735 59.5108 61.0924C59.5001 61.1494 59.5007 61.208 59.5127 61.2648C59.5246 61.3216 59.5476 61.3755 59.5804 61.4234C59.6132 61.4713 59.6551 61.5123 59.7037 61.544C59.7523 61.5757 59.8067 61.5975 59.8637 61.6082C59.9208 61.6189 59.9793 61.6183 60.0361 61.6063C60.0929 61.5944 60.1468 61.5713 60.1947 61.5386C60.2426 61.5058 60.2836 61.4639 60.3153 61.4153C60.347 61.3667 60.3689 61.3123 60.3796 61.2553ZM75.8279 44.2594C79.8733 43.9879 85.9006 45.2368 87.5567 48.902C88.507 50.9926 87.5567 53.5718 84.1901 56.3954C83.2761 57.3111 82.2334 58.0885 81.095 58.7032C77.0225 60.4408 72.5156 55.418 75.8279 44.2594ZM83.5928 428.242C80.9697 427.539 78.2327 427.368 75.5426 427.739C72.8525 428.11 70.2638 429.016 67.9288 430.402C65.5938 431.788 63.5597 433.628 61.9462 435.812C60.3326 437.996 59.1723 440.481 58.5334 443.12C57.3273 448.603 58.3488 454.341 61.3732 459.071C64.3976 463.801 69.1772 467.136 74.6605 468.342C80.1437 469.548 85.8816 468.527 90.6117 465.503C95.3418 462.478 98.6767 457.699 99.8828 452.215C100.398 449.571 100.385 446.85 99.8435 444.211C99.3024 441.571 98.2441 439.065 96.7298 436.836C95.2155 434.608 93.2751 432.701 91.0204 431.226C88.7657 429.751 86.2413 428.737 83.5928 428.242ZM91.9822 450.369C90.8928 454.714 88.2849 458.525 84.6299 461.115C80.975 463.704 76.5142 464.9 72.0541 464.487C67.9598 462.887 64.5609 459.895 62.4553 456.036C60.3497 452.178 59.6724 447.7 60.5425 443.392C61.5584 438.941 64.1421 435.005 67.8211 432.303C71.5002 429.602 76.0289 428.314 80.5792 428.676C84.7138 430.384 88.1134 433.496 90.1793 437.465C92.2453 441.433 92.8452 446.002 91.8736 450.369H91.9822Z" fill="#CCE4FF"/>
<path d="M119.757 435.979C117.393 435.164 114.86 434.967 112.399 435.409C111.379 433.07 110.124 430.842 108.652 428.757C110.417 427.155 115.25 422.703 114.082 420.612C109.927 415.642 104.994 411.379 99.4755 407.987C97.1709 406.696 94.6332 405.875 92.0092 405.571C90.2716 405.815 86.1448 412.576 85.2217 414.096C84.6244 414.096 82.5067 413.417 82.3438 413.336C82.3438 411.381 81.7737 404.322 80.0089 403.508C78.0355 402.781 75.9862 402.28 73.9002 402.014C71.9725 401.716 54.6237 404.892 53.3476 407.227C52.506 408.802 54.4608 414.748 55.0309 416.404C53.5667 417.21 52.1605 418.117 50.8227 419.119C48.1077 421.047 48.8407 420.965 48.352 420.748C47.7614 420.466 47.1286 420.283 46.4787 420.205C44.3099 418.933 41.767 418.453 39.2839 418.847C36.7861 419.662 30.8946 433.074 29.9443 436.522C29.6333 437.392 29.5492 438.326 29.7 439.237C30.3516 441.029 34.6956 442.468 36.5146 443.038C36.0123 446.531 36.0123 450.079 36.5146 453.572C34.1254 454.224 29.157 455.69 29.4285 458.133C29.7 460.577 36.0531 476.704 38.6866 477.98C40.1293 478.787 41.7246 479.283 43.3704 479.438C45.0161 479.592 46.6759 479.401 48.2434 478.876C49.1262 478.435 49.9788 477.936 50.7955 477.383C51.8815 478.197 53.0218 478.93 54.1893 479.636C53.3476 481.727 51.4743 486.397 52.0716 488.514C52.3702 489.627 53.2662 489.98 54.5151 490.442C57.9631 491.691 76.5337 496.143 79.3573 495.655C80.4162 495.492 80.9863 494.379 81.3121 493.32C81.9154 490.91 82.2702 488.444 82.371 485.962C83.7653 485.825 85.1518 485.616 86.5249 485.338C87.3635 486.813 88.4364 488.143 89.7015 489.275C91.0861 490.252 92.2536 489.763 93.8283 488.759C94.5885 489.736 95.7288 491.094 96.9505 491.229C100.018 491.582 112.698 479.636 114.001 477.193C115.087 475.157 111.123 471.518 109.358 469.917C111.267 467.044 112.766 463.918 113.811 460.631C115.769 460.926 117.751 461.035 119.729 460.957C120.625 460.957 121.657 460.631 122.037 459.79C123.693 456.016 123.205 441.708 122.037 438.07C121.874 437.011 120.652 436.305 119.757 435.979ZM120.408 438.477C121.331 442.006 121.63 455.337 120.272 458.785C117.925 459.016 115.556 458.907 113.241 458.459C112.993 458.417 112.739 458.469 112.528 458.604C112.317 458.74 112.164 458.95 112.1 459.192C111.019 462.863 109.34 466.33 107.132 469.455C106.974 469.662 106.904 469.922 106.934 470.18C106.964 470.438 107.094 470.675 107.295 470.84C109.2 472.349 110.818 474.188 112.073 476.27C110.716 478.496 100.1 488.216 97.1677 489.03C96.7333 489.03 95.5387 487.401 95.2401 486.967C94.2372 485.46 93.3304 483.891 92.5251 482.27C92.4075 482.033 92.2059 481.85 91.9598 481.754C91.7137 481.659 91.4409 481.659 91.1947 481.754C83.3212 484.713 80.3347 482.976 80.3347 484.931C80.3383 487.857 79.8613 490.765 78.9229 493.537C72.5425 492.843 66.2593 491.441 60.1894 489.356C60.4826 486.457 61.2917 483.635 62.5786 481.021C63.3931 479.202 60.1351 479.718 54.0535 473.527C53.8578 473.346 53.6008 473.246 53.3341 473.246C53.0673 473.246 52.8103 473.346 52.6146 473.527C49.8996 475.754 46.3701 477.926 45.6642 477.573C44.2795 476.894 37.8993 462.423 37.5192 459.491C39.4502 458.145 41.6424 457.22 43.9537 456.776C44.2002 456.706 44.4131 456.55 44.5529 456.335C44.6927 456.12 44.7499 455.862 44.7139 455.609C44.0486 451.764 44.0486 447.833 44.7139 443.988C44.7554 443.752 44.7057 443.508 44.5747 443.306C44.4437 443.105 44.2412 442.961 44.008 442.902C41.9613 442.366 39.9907 441.572 38.1436 440.54C37.5463 440.106 37.6006 440.133 37.6549 439.671C39.4122 433.334 42.2304 427.339 45.99 421.942C47.4561 421.535 51.42 424.44 52.7775 425.472C52.9193 425.61 53.1092 425.687 53.3069 425.687C53.5046 425.687 53.6945 425.61 53.8363 425.472C55.0838 424.178 56.427 422.98 57.8545 421.888C61.9813 418.766 63.0945 419.173 62.7415 418.087C61.4934 415.363 60.7924 412.421 60.6781 409.426C61.0989 409.076 61.5764 408.801 62.0899 408.612C64.6246 407.61 67.2288 406.793 69.882 406.168C73.0979 405.272 76.4032 404.735 79.7374 404.566C80.3076 404.811 80.8234 407.281 80.9592 408.042C81.9637 413.472 81.285 414.585 82.0723 414.666C89.8101 415.427 91.3848 417.571 91.9278 416.621C93.4333 413.989 95.188 411.506 97.1677 409.209C97.7379 408.639 97.7107 408.367 99.4212 409.345C104.531 412.684 109.108 416.776 112.996 421.481C113.403 422.187 109.874 425.934 107.295 428.133C106.399 428.92 107.675 429.273 110.01 433.726C112.345 438.178 111.802 439.427 113.05 439.156C115.458 438.579 117.936 438.351 120.408 438.477ZM497.223 211.611C491.532 209.287 485.563 207.708 479.467 206.915C475.014 206.209 469.774 205.503 465.349 204.933C469.611 198.905 482.236 183.647 484.354 179.927C484.951 178.923 483.811 177.511 482.969 176.669C478.245 171.62 469.123 169.719 462.118 168.633C458.1 167.981 441.321 165.918 438.47 167.276C435.049 168.905 409.746 206.915 408.985 212.697C408.985 213.675 409.311 214.055 410.262 214.408C414.253 215.874 432.253 218.155 436.271 219.105C430.841 228.607 406.705 260.726 404.343 265.26C403.773 266.4 404.126 267.079 404.804 267.296C407.248 268.266 409.762 269.047 412.325 269.631C413.302 269.93 415.447 268.599 418.569 266.699C432.579 258.282 492.689 218.589 497.304 213.458C497.432 213.337 497.532 213.191 497.598 213.028C497.663 212.866 497.693 212.691 497.686 212.516C497.678 212.341 497.633 212.169 497.553 212.013C497.473 211.857 497.36 211.72 497.223 211.611ZM438.878 244.191C415.8 259.423 408.008 263.875 407.737 264.065C411.456 258.391 434.561 226.734 438.525 219.159C438.594 219.013 438.629 218.853 438.628 218.691C438.628 218.529 438.591 218.37 438.521 218.224C438.45 218.078 438.349 217.95 438.222 217.849C438.096 217.748 437.949 217.676 437.792 217.639C435.077 216.661 415.311 214.544 410.642 212.888C411.239 207.838 435.891 169.665 438.878 168.144C441.864 166.624 470.833 170.072 476.263 173.954C473.412 179.52 457.665 199.014 455.113 203.548C454.597 204.471 454.435 205.367 455.439 205.611C456.444 205.856 481.965 208.842 487.53 210.661C480.743 216.336 446.48 239.087 438.878 244.083V244.191ZM264.71 78.1964C264.71 78.4407 264.873 78.7394 265.281 80.3141C265.387 80.6557 265.622 80.9426 265.936 81.1147C266.25 81.2868 266.618 81.3307 266.964 81.2372C267.309 81.1364 267.601 80.9024 267.774 80.5867C267.947 80.271 267.988 79.8995 267.887 79.5539C267.615 78.495 267.371 77.5991 267.208 77.1647C267.05 76.8665 266.786 76.638 266.469 76.5237C266.151 76.4093 265.803 76.4173 265.491 76.5462C265.179 76.675 264.926 76.9154 264.782 77.2205C264.638 77.5256 264.612 77.8735 264.71 78.1964Z" fill="#CCE4FF"/>
</svg>
