<svg width="440" height="276" viewBox="0 0 440 276" fill="none" xmlns="http://www.w3.org/2000/svg">
<path d="M243.287 228.194C235.678 221.832 226.93 216.981 217.511 213.9C200.521 207.797 182.582 204.773 164.535 204.971C151.756 205.637 124.034 206.815 117.808 221.402C118.211 213.146 123.963 206.688 130.438 200.883C160.887 171.627 207.297 141.863 243.726 122.474C252.568 117.748 264.622 115.911 279.528 117.003C278.668 118.274 277.898 122.495 276.391 121.949C268.204 120.845 259.919 120.686 251.696 121.474C251.545 121.487 251.398 121.529 251.263 121.599C251.129 121.669 251.009 121.765 250.912 121.881C250.814 121.998 250.74 122.132 250.695 122.277C250.649 122.422 250.632 122.574 250.645 122.726C250.671 123.031 250.817 123.314 251.052 123.512C251.168 123.609 251.302 123.683 251.446 123.729C251.591 123.775 251.743 123.792 251.894 123.779C259.868 123.017 267.902 123.162 275.844 124.213C274.427 126.525 272.832 128.723 271.073 130.785C270.904 130.562 270.658 130.41 270.383 130.359C261.973 128.945 253.408 128.705 244.932 129.647C244.781 129.663 244.634 129.709 244.501 129.782C244.368 129.856 244.25 129.954 244.155 130.073C244.06 130.192 243.989 130.328 243.947 130.474C243.904 130.62 243.891 130.774 243.907 130.925C243.923 131.076 243.97 131.223 244.043 131.357C244.116 131.49 244.214 131.608 244.332 131.703C244.451 131.799 244.587 131.87 244.733 131.912C244.879 131.955 245.031 131.969 245.182 131.952C253.344 131.047 261.591 131.265 269.693 132.6C267.867 134.511 265.593 138.168 263.023 138.555C262.352 138.191 236.753 132.664 243.572 137.785C249.474 138.184 255.333 139.081 261.085 140.466C258.44 142.744 254.129 142.11 251.519 144.236C250.194 144.777 249.338 146.334 250.074 147.3C247.544 146.894 229.126 143.38 229.009 146.433C229.009 146.738 229.13 147.032 229.346 147.248C229.561 147.464 229.854 147.585 230.159 147.585C233.117 147.915 252.289 147.569 248.285 151.157C247.289 152.579 246.951 155.781 249.242 155.982C249.808 155.765 249.29 157.543 249.865 158.142C234.744 152.322 218.488 150.078 202.361 151.583C202.056 151.612 201.775 151.761 201.579 151.997C201.384 152.234 201.29 152.538 201.319 152.844C201.348 153.15 201.496 153.432 201.732 153.628C201.968 153.823 202.272 153.917 202.577 153.889C234.584 150.58 265.724 163.629 287.866 186.084C288.091 186.085 288.311 186.019 288.499 185.896C288.687 185.772 288.835 185.596 288.924 185.39C289.013 185.183 289.04 184.954 289.001 184.732C288.962 184.51 288.859 184.305 288.705 184.141C278.477 173.296 266.052 164.77 252.264 159.136C252.855 158.849 253.347 158.393 253.676 157.824C253.693 158.213 253.821 158.588 254.046 158.906C254.271 159.223 254.583 159.468 254.943 159.612C255.304 159.756 255.699 159.792 256.079 159.716C256.46 159.64 256.811 159.455 257.089 159.184C258.927 157.084 261.006 155.209 263.281 153.596C274.905 158.173 285.393 165.237 294.014 174.294C294.116 174.41 294.241 174.503 294.38 174.569C294.519 174.636 294.67 174.673 294.824 174.68C294.978 174.686 295.132 174.662 295.276 174.607C295.421 174.553 295.553 174.47 295.664 174.364C295.776 174.258 295.866 174.13 295.927 173.988C295.989 173.847 296.021 173.694 296.023 173.54C296.024 173.385 295.995 173.232 295.936 173.089C295.877 172.946 295.791 172.817 295.681 172.708C287.578 164.206 277.861 157.412 267.101 152.727C272.657 152.283 278.094 150.879 283.171 148.577C292.079 153.078 300.291 158.846 307.551 165.702C307.66 165.811 307.79 165.897 307.932 165.955C308.075 166.013 308.228 166.042 308.381 166.04C308.535 166.038 308.687 166.004 308.828 165.942C308.969 165.88 309.096 165.79 309.201 165.678C309.307 165.566 309.389 165.434 309.443 165.289C309.497 165.145 309.521 164.991 309.514 164.837C309.507 164.683 309.47 164.531 309.404 164.392C309.338 164.253 309.244 164.128 309.129 164.026C302.157 157.449 294.328 151.848 285.856 147.378C289.661 145.627 293.313 143.558 296.771 141.192C305.399 145.436 313.346 150.946 320.351 157.54C321.414 158.582 323.035 156.872 321.926 155.862C315.057 149.403 307.303 143.959 298.899 139.696C301.64 137.656 304.21 135.392 306.581 132.93C314.584 136.506 322.128 141.036 329.05 146.421C329.17 146.513 329.308 146.58 329.455 146.619C329.601 146.657 329.754 146.666 329.905 146.646C330.055 146.625 330.2 146.575 330.33 146.498C330.461 146.422 330.576 146.32 330.668 146.199C330.759 146.078 330.826 145.94 330.865 145.792C330.903 145.645 330.912 145.492 330.892 145.342C330.871 145.191 330.821 145.046 330.745 144.915C330.668 144.783 330.566 144.669 330.446 144.577C323.595 139.252 316.151 134.741 308.264 131.134C310.46 128.674 312.443 126.032 314.192 123.235C328.031 127.604 341.193 133.894 353.292 141.923C346.771 145.545 317.642 169.128 306.217 177.476C301.555 180.902 243.526 227.935 243.287 228.189V228.194Z" fill="white"/>
<path d="M241.417 58.6148C239.508 59.5969 242.655 63.1174 243.381 60.3785C243.496 59.537 242.275 58.1722 241.417 58.6148Z" fill="black"/>
<path d="M252.492 55.5372C252.607 54.6957 251.388 53.3378 250.528 53.7758C248.623 54.7718 251.765 58.2761 252.492 55.5372Z" fill="black"/>
<path d="M143.329 196.599C143.032 196.669 142.775 196.854 142.614 197.114C142.453 197.374 142.402 197.687 142.471 197.985C142.541 198.283 142.725 198.541 142.985 198.702C143.244 198.863 143.556 198.915 143.853 198.845C160.999 194.852 178.784 194.473 196.084 197.73C213.383 200.987 229.819 207.811 244.35 217.768C244.595 217.768 244.834 217.69 245.032 217.544C245.23 217.399 245.376 217.193 245.449 216.958C245.522 216.723 245.518 216.471 245.438 216.238C245.358 216.006 245.205 215.805 245.003 215.666C230.307 205.582 213.675 198.679 196.17 195.396C178.664 192.114 160.668 192.523 143.329 196.599Z" fill="black"/>
<path d="M251.937 208.408C225.575 191.882 196.112 180.774 164.852 185.383C164.559 185.432 164.295 185.594 164.118 185.833C163.94 186.073 163.863 186.373 163.901 186.669C163.94 186.965 164.091 187.235 164.324 187.421C164.557 187.607 164.853 187.696 165.149 187.668C184.421 185.135 204.019 187.678 222.012 195.045C231.936 199.454 241.53 204.574 250.721 210.365C250.98 210.527 251.292 210.579 251.589 210.51C251.886 210.44 252.144 210.256 252.305 209.996C252.467 209.737 252.519 209.423 252.45 209.126C252.381 208.828 252.196 208.569 251.937 208.408Z" fill="black"/>
<path d="M185.435 176.977C185.13 176.988 184.842 177.12 184.634 177.344C184.426 177.568 184.316 177.866 184.327 178.172C184.338 178.477 184.469 178.766 184.693 178.975C184.916 179.183 185.213 179.294 185.518 179.283C212.036 178.34 237.987 187.12 258.511 203.979C259.631 204.938 261.151 203.135 259.971 202.197C238.973 185.056 212.502 176.099 185.435 176.977Z" fill="black"/>
<path d="M179.11 168.583C178.805 168.606 178.522 168.748 178.322 168.98C178.122 169.212 178.022 169.514 178.044 169.82C178.067 170.126 178.209 170.41 178.441 170.611C178.672 170.811 178.973 170.911 179.278 170.889C211.315 168.511 243.033 178.61 267.828 199.085C268.939 200.046 270.473 198.243 269.286 197.305C244.019 176.486 211.732 166.203 179.11 168.583Z" fill="black"/>
<path d="M190.291 163.41C205.79 161.274 221.572 162.698 236.442 167.573C251.312 172.449 264.882 180.648 276.127 191.553C277.162 192.602 278.829 190.93 277.725 189.898C266.215 178.771 252.34 170.403 237.141 165.42C221.943 160.437 205.816 158.97 189.971 161.128C189.675 161.177 189.41 161.34 189.232 161.582C189.054 161.825 188.978 162.127 189.019 162.425C189.061 162.723 189.218 162.993 189.455 163.177C189.693 163.361 189.993 163.445 190.291 163.41Z" fill="black"/>
<path d="M90.8916 196.63C71.0127 190.344 50.1957 187.568 29.3689 188.424C57.0402 170.774 85.6752 155.226 113.089 137.637C106.971 158.338 109.639 164.869 131.286 159.2C138.857 157.476 146.455 156.016 154.082 154.82C154.004 157.683 154.166 160.548 154.565 163.385C155.202 169.264 159.275 170.626 164.367 169.533C151.945 178.688 140.09 188.592 128.869 199.191C124.161 203.067 120.302 207.875 117.532 213.314C111.088 203.834 99.3372 199.29 90.887 196.625L90.8916 196.63Z" fill="#F2EDE9"/>
<path d="M72.4224 168.696C66.1779 170.209 65.7018 178.979 72.7559 179.071C82.2756 179.124 82.4849 166.257 72.4224 168.696ZM77.2524 174.677C76.5759 175.494 75.6855 176.106 74.6813 176.445C73.677 176.783 72.5985 176.834 71.5668 176.593C68.4296 175.44 69.8878 171.712 73.1262 170.891C75.6424 169.679 78.9958 172.136 77.2501 174.677H77.2524Z" fill="black"/>
<path d="M77.2525 174.677C76.576 175.494 75.6856 176.106 74.6813 176.445C73.6771 176.783 72.5986 176.834 71.5669 176.593C68.4297 175.44 69.8879 171.712 73.1263 170.891C75.6425 169.678 78.9959 172.136 77.2502 174.677H77.2525Z" fill="white"/>
<path d="M342.081 198.202C340.798 198.202 340.214 198.202 336.872 219.44C335.262 229.62 333.758 240.375 333.493 242.354C333.633 244.728 338.233 243.612 339.876 243.967C378.099 243.497 379.024 201.053 342.081 198.202ZM362.172 233.099C355.539 240.449 344.48 242.243 335.933 241.482C337.286 231.569 341.272 204.733 342.716 200.532C360.652 201.429 375.052 218.826 362.172 233.099Z" fill="black"/>
<path d="M438 35.0509C433.736 31.8394 428.685 34.5667 424.861 31.157C424.478 30.7849 424.022 30.4975 423.522 30.3134C423.022 30.1293 422.489 30.0526 421.957 30.0882C421.425 30.1238 420.907 30.2711 420.436 30.5203C419.964 30.7696 419.55 31.1153 419.221 31.535C417.906 33.1612 417.144 35.1661 417.045 37.2572C403.496 51.2491 387.444 62.0594 362.305 68.1619C367.564 62.7541 371.861 56.4832 375.008 49.6214C382.598 31.0647 351.84 16.8838 338.438 13.5133C337.845 10.998 339.662 6.98188 340.4 4.40437C341.239 1.00842 338.79 -0.667655 336.996 0.254529C332.578 1.71619 330.457 6.59917 327.893 9.96284C322.881 16.6487 326.662 18.666 332.548 21.6838C332.373 21.9121 332.294 22.2005 332.33 22.4863C332.366 22.7721 332.513 23.0322 332.739 23.21C335.779 26.2394 350.679 38.1125 344.864 42.6312C341.718 45.0681 332.29 52.3695 326.816 57.0381C316.137 56.5217 311.477 56.4963 304.58 57.6882C304.497 57.7031 304.421 57.7453 304.365 57.8082C304.308 57.871 304.274 57.951 304.268 58.0353C304.262 58.1197 304.284 58.2037 304.331 58.274C304.378 58.3443 304.447 58.397 304.527 58.4237C324.87 68.2588 328.527 94.6033 321.952 113.409C326.467 113.095 334.383 113.603 338.132 111.853C352.3 110.444 372.329 106.55 382.876 100.54C393.672 94.6466 403.028 86.4249 410.269 76.4677C417.51 66.5106 422.456 55.0664 424.75 42.9609C428.865 41.4236 433.087 40.1907 437.382 39.2722C439.374 38.9586 440.832 36.0538 438 35.0509ZM347.479 19.0118C359.872 23.874 378.476 35.814 372.913 48.6646C369.339 56.4715 364.226 63.4729 357.882 69.2478C355.631 69.7965 352.664 70.3821 350.364 70.8939C357.072 64.1959 363.174 56.9144 368.598 49.1349C370.119 47.1771 371.082 44.8427 371.386 42.3799C370.208 34.3224 362.646 32.0238 356.396 27.7403C353.164 25.9361 350.051 23.9254 347.077 21.7207C347.345 20.8429 347.481 19.9298 347.479 19.0118ZM334.859 20.3397L329.921 17.6285C328.675 16.9553 327.391 15.8925 328.024 14.3501C329.508 11.6246 331.2 9.01785 333.084 6.55306C334.185 4.59316 335.961 3.1024 338.079 2.35942C338.245 2.44242 338.36 3.10639 338.217 3.71272C337.063 6.78314 336.264 9.97642 335.837 13.2297C335.702 13.8986 335.737 14.5906 335.938 15.2426C336.139 15.8945 336.5 16.4857 336.987 16.9622C336.702 18.3063 335.947 19.5041 334.859 20.3397ZM337.941 24.787C337.141 24.0515 336.382 23.2907 335.611 22.629C336.719 21.9501 337.644 21.0095 338.306 19.8894C338.968 18.7694 339.345 17.5039 339.406 16.2037C341.219 16.7547 343.128 17.3933 345.039 18.0896C345.994 22.3316 341.941 26.825 337.941 24.787ZM324.075 59.1522C325.326 59.0392 326.809 59.7608 327.936 59.1199C333.22 54.5776 342.776 47.1714 346.065 44.6223C346.115 44.5838 346.163 44.5464 346.21 44.5102C352.578 39.3736 344.729 31.8463 340.57 27.5051C341.736 27.4563 342.868 27.0977 343.85 26.4662C344.832 25.8346 345.629 24.9527 346.159 23.9109C352.438 29.4947 367.167 33.7667 369.092 42.2578C368.811 44.2797 367.996 46.1898 366.733 47.7909C361.125 55.8458 354.783 63.3609 347.788 70.2392C346.651 68.8559 343.896 65.5199 342.417 67.5879C342.358 67.7273 342.326 67.8771 342.324 68.0287C342.323 68.1803 342.351 68.3308 342.407 68.4715C342.464 68.6122 342.547 68.7404 342.653 68.8487C342.759 68.957 342.885 69.0432 343.024 69.1025C344.414 69.7614 345.568 70.8316 346.332 72.1688C347.107 75.0576 352.123 72.6045 354.182 72.4362C378.488 67.5763 400.391 57.5222 413.439 43.8485C414.947 44.198 416.311 45.0027 417.349 46.154C404.259 78.9492 376.908 98.0522 342.203 98.79C343.381 83.6108 338.615 66.5481 324.075 59.1522ZM407.254 76.9042C392.021 98.5272 367.965 106.393 340.823 109.238C341.547 106.585 341.954 103.854 342.033 101.105C377.428 100.431 405.382 81.167 419.019 48.0514C423.119 53.2433 411.13 71.408 407.254 76.9042ZM421.71 46.2992C421.608 46.7096 421.48 47.1131 421.371 47.5211C420.003 45.028 417.832 43.0734 415.212 41.9765C416.282 40.9114 417.765 38.6105 419.306 39.1961C419.989 39.4319 420.609 39.8213 421.119 40.3345C421.628 40.8477 422.014 41.471 422.246 42.1567C422.478 42.8424 422.55 43.5723 422.457 44.2904C422.364 45.0084 422.109 45.6956 421.71 46.2992ZM424.226 40.6117C423.18 39.0627 421.74 37.8218 420.056 37.0174C418.483 37.052 420.486 33.4993 420.99 32.9898C422.519 30.3016 426.901 37.7137 434.79 37.5523C431.215 38.3775 427.689 39.3988 424.226 40.6117Z" fill="black"/>
<path d="M334.859 20.3398L329.921 17.6286C328.675 16.9554 327.391 15.8926 328.024 14.3502C329.508 11.6247 331.2 9.01793 333.084 6.55313C334.185 4.59323 335.961 3.10248 338.079 2.3595C338.245 2.44249 338.36 3.10646 338.217 3.7128C337.063 6.78322 336.264 9.97649 335.837 13.2298C335.702 13.8987 335.737 14.5907 335.938 15.2426C336.139 15.8946 336.5 16.4858 336.987 16.9623C336.702 18.3063 335.947 19.5042 334.859 20.3398Z" fill="white"/>
<path d="M424.226 40.6117C423.18 39.0627 421.74 37.8219 420.056 37.0175C418.483 37.0521 420.486 33.4994 420.99 32.9899C422.519 30.3017 426.901 37.7138 434.79 37.5524C431.215 38.3775 427.689 39.3988 424.226 40.6117Z" fill="white"/>
<path d="M324.075 59.1521C325.326 59.0392 326.809 59.7608 327.936 59.1199C333.22 54.5775 342.776 47.1714 346.065 44.6223L346.21 44.5101C352.579 39.3736 344.729 31.8462 340.57 27.5051C341.736 27.4562 342.868 27.0977 343.85 26.4661C344.832 25.8346 345.629 24.9527 346.159 23.9108C352.438 29.4947 367.167 33.7667 369.093 42.2577C368.811 44.2797 367.996 46.1897 366.733 47.7908C361.125 55.8458 354.783 63.3608 347.788 70.2391C346.651 68.8558 343.896 65.5198 342.417 67.5878C342.358 67.7272 342.326 67.877 342.324 68.0286C342.323 68.1803 342.351 68.3307 342.407 68.4714C342.464 68.6122 342.547 68.7403 342.653 68.8486C342.759 68.9569 342.885 69.0432 343.024 69.1025C344.414 69.7613 345.568 70.8316 346.332 72.1688C347.107 75.0575 352.123 72.6045 354.182 72.4362C378.488 67.5763 400.391 57.5222 413.439 43.8485C414.947 44.1979 416.312 45.0026 417.349 46.1539C404.26 78.9491 376.908 98.0522 342.203 98.7899C343.381 83.6108 338.615 66.5481 324.075 59.1521Z" fill="#99C9FF"/>
<path d="M407.254 76.9042C392.021 98.5271 367.966 106.393 340.823 109.238C341.548 106.585 341.954 103.854 342.033 101.105C377.428 100.431 405.382 81.167 419.019 48.0513C423.12 53.2432 411.13 71.408 407.254 76.9042Z" fill="#99C9FF"/>
<path d="M347.479 19.0117C359.872 23.8739 378.477 35.8139 372.913 48.6646C369.339 56.4714 364.226 63.4729 357.882 69.2478C355.631 69.7965 352.664 70.382 350.364 70.8938C357.072 64.1958 363.174 56.9143 368.598 49.1349C370.119 47.177 371.082 44.8427 371.386 42.3799C370.208 34.3223 362.646 32.0238 356.397 27.7402C353.165 25.936 350.052 23.9254 347.077 21.7206C347.345 20.8429 347.481 19.9298 347.479 19.0117Z" fill="#99C9FF"/>
<path d="M337.941 24.7869C337.141 24.0515 336.382 23.2907 335.612 22.629C336.719 21.9501 337.645 21.0094 338.306 19.8894C338.968 18.7693 339.345 17.5039 339.407 16.2037C341.219 16.7547 343.128 17.3933 345.039 18.0895C345.994 22.3316 341.941 26.8249 337.941 24.7869Z" fill="#99C9FF"/>
<path d="M421.71 46.2992C421.608 46.7095 421.48 47.113 421.372 47.5211C420.003 45.0279 417.832 43.0734 415.212 41.9764C416.282 40.9113 417.765 38.6105 419.306 39.1961C419.989 39.4318 420.609 39.8212 421.119 40.3344C421.628 40.8476 422.014 41.471 422.246 42.1567C422.478 42.8424 422.55 43.5723 422.457 44.2903C422.364 45.0084 422.109 45.6956 421.71 46.2992Z" fill="#99C9FF"/>
<path d="M248.538 52.3948C249.621 52.0928 250.857 51.3228 251.834 51.8461C252.117 51.9596 252.434 51.9555 252.714 51.8349C252.995 51.7143 253.216 51.4869 253.329 51.2029C253.442 50.9189 253.438 50.6015 253.318 50.3204C253.198 50.0394 252.971 49.8178 252.687 49.7044C251.326 49.0404 246.744 49.3608 247.551 51.8369C247.654 52.0074 247.799 52.1483 247.972 52.2461C248.144 52.3439 248.34 52.3951 248.538 52.3948Z" fill="black"/>
<path d="M240.113 58.5204C240.357 57.669 240.86 56.9149 241.551 56.3624C241.795 56.179 241.956 55.9059 241.999 55.6033C242.042 55.3006 241.964 54.9932 241.781 54.7486C241.598 54.5041 241.325 54.3424 241.023 54.2991C240.721 54.2559 240.415 54.3347 240.171 54.5181C239.06 55.3903 238.259 56.5969 237.885 57.9601C237.825 58.251 237.88 58.5535 238.038 58.8046C238.196 59.0558 238.444 59.2363 238.732 59.3085C239.019 59.3807 239.323 59.339 239.58 59.1922C239.837 59.0454 240.028 58.8048 240.113 58.5204Z" fill="black"/>
<path d="M251.68 64.4225C250.61 65.4646 252.266 67.1245 253.306 66.0525C253.766 65.5914 254.157 65.1487 254.553 64.6946C253.971 65.7067 253.324 67.0646 255.054 67.3228C257.313 66.675 257.354 63.3044 255.953 61.7205C254.173 60.192 252.952 63.5441 251.68 64.4225Z" fill="black"/>
<path d="M247.029 63.821C248.386 64.4619 251.291 62.2533 249.633 60.8539C248.892 60.2706 248.023 61.0844 247.689 61.6054C247.048 60.8838 248.54 55.8902 246.404 55.9755C246.099 55.9755 245.806 56.097 245.591 56.3131C245.375 56.5293 245.254 56.8225 245.254 57.1282C245.403 58.9864 244.518 63.2377 247.029 63.821Z" fill="black"/>
<path d="M390.285 202.974C382.748 187.68 363.835 178.619 341.679 174.954C350.861 166.665 354.52 163.235 354.745 162.783C355.686 159.046 355.037 146.121 356.859 142.682C356.952 142.436 356.966 142.168 356.898 141.914C356.83 141.661 356.683 141.436 356.479 141.271C343.812 132.61 329.957 125.839 315.348 121.169C328.171 100.909 322.732 64.5426 296.155 57.6885C301.164 50.5208 295.939 39.5699 287.164 40.2915C281.369 40.3786 275.591 40.9469 269.889 41.9906C271.34 40.7641 270.579 38.0713 269.539 37.0846C274.204 34.454 268.288 26.1705 263.789 26.5855C264.019 23.0351 261.549 16.5475 257.398 19.374C256.182 17.5791 254.643 16.0271 252.86 14.7977C250.537 13.4144 247.554 13.0939 246.27 15.6023C244.352 14.3693 242.193 13.562 239.938 13.2346C237.013 13.1931 234.418 15.0789 234.773 17.7095C231.663 17.0178 228.241 17.3475 226.548 20.476C225.731 22.355 227.58 23.4224 224.671 23.2841C220.593 23.6552 218.001 29.2252 222.141 31.8396C217.622 32.8748 214.091 41.0799 220.246 42.3733C218.07 45.3704 216.58 49.8384 219.061 52.8562C187.103 58.2187 161.63 62.6844 137.545 67.4613C125.918 72.7132 117.217 79.6296 106.074 85.4439C105.813 85.5799 105.613 85.8111 105.517 86.0898C105.421 86.3686 105.435 86.6738 105.556 86.9425C107.254 90.6866 138.244 93.3978 144.438 93.9119C172.918 89.7758 201.155 84.1062 229.027 76.9276C219.28 84.7431 205.353 92.0468 204.144 105.988C173.655 102.514 145.215 106.94 121.134 122.322C80.3897 146.564 38.1525 170.868 0.418701 200.883C1.4836 207.912 3.8687 215.004 4.2252 221.616C4.2478 221.872 4.35506 222.113 4.52996 222.301C4.70485 222.489 4.93734 222.613 5.19051 222.653C5.44368 222.693 5.70302 222.647 5.92733 222.523C6.15164 222.399 6.32807 222.203 6.4286 221.967C33.6836 213.978 64.4921 213.775 92.7108 220.041C115.672 224.081 108.096 234.886 115.058 236.41C115.474 236.514 123.229 237.478 123.338 237.351C124.793 237.226 125.449 235.564 125.408 234.423C126.236 223.818 132.478 223.567 142.57 224.048C189.626 227.11 206.568 234.861 245.576 259.783C245.722 259.879 245.889 259.938 246.062 259.957C246.236 259.976 246.411 259.954 246.574 259.892C246.738 259.83 246.884 259.731 247.002 259.602C247.12 259.473 247.206 259.318 247.252 259.149C270.443 238.4 304.557 208.249 319.739 194.596C313.9 218.601 308.563 242.884 302.54 272.818C302.509 272.973 302.51 273.133 302.543 273.287C302.576 273.442 302.641 273.588 302.733 273.716C302.825 273.845 302.942 273.953 303.077 274.034C303.213 274.115 303.363 274.167 303.52 274.188C327.414 277.249 358.312 278.003 377.207 262.759C395.216 249.203 401.47 222.674 390.285 202.974ZM287.217 42.5969C295.364 42.537 298.124 51.5583 293.696 57.0729C290.553 56.3318 287.337 55.9452 284.108 55.9202C284.637 53.58 284.518 51.1394 283.764 48.862C283.01 46.5845 281.65 44.5569 279.83 42.9981C282.258 42.7675 284.726 42.6177 287.217 42.5969ZM280.614 88.5148C279.97 85.5684 282.567 85.1281 283.208 88.0952C284.431 97.1284 283.439 106.324 280.319 114.887C268.765 113.357 257.012 114.703 246.1 118.806C242.484 116.804 238.721 115.081 234.844 113.651C240.697 109.423 248.147 103.486 253.886 99.611C259.787 106.728 267.971 111.569 277.04 113.305C277.299 113.297 277.549 113.203 277.752 113.04C277.954 112.877 278.098 112.652 278.162 112.399C280.797 104.732 281.636 96.5595 280.614 88.5148ZM268.859 55.0672C269.759 53.4513 270.209 51.6222 270.161 49.7719C270.112 47.9217 269.568 46.1186 268.585 44.552C271.025 44.1669 273.709 43.5998 276.405 43.3992C278.603 44.5783 280.33 46.4805 281.293 48.7857C282.257 51.0909 282.398 53.6584 281.695 56.0562C277.718 56.3859 269.882 57.1698 267.205 57.4395C266.193 56.704 268.647 56.1784 268.859 55.0672ZM238.86 50.892C242.257 52.3306 245.447 49.3197 246.76 46.1658C247.955 46.6514 249.279 46.7201 250.518 46.361C251.757 46.0018 252.839 45.2356 253.591 44.1854C254.01 44.5607 254.527 44.808 255.082 44.8983C255.637 44.9886 256.206 44.918 256.722 44.6949C257.389 45.8107 258.927 47.8442 260.109 49.375C260.032 50.3176 260.204 51.264 260.608 52.1185C260.87 52.64 261.292 53.0635 261.812 53.3268C262.332 53.5901 262.922 53.6793 263.496 53.5812C264.07 53.4832 264.598 53.203 265.001 52.782C265.405 52.361 265.663 51.8214 265.738 51.2424C265.719 50.9312 266.612 50.9473 266.91 50.3041C267.414 49.6619 267.66 48.8546 267.6 48.0401C268.127 50.2488 267.936 54.3571 265.289 54.9888C264.392 55.0395 263.543 56.1415 264.077 56.9784C266.068 60.3691 268.542 63.4502 271.421 66.1242C272.212 72.7685 261.991 81.2849 257.798 73.1236C259.337 71.7287 259.889 73.5339 261.101 74.5691C261.791 75.2607 262.961 74.108 262.264 73.4025C261.372 72.6616 260.588 71.7977 259.937 70.8365C259.707 70.3754 259.247 70.3754 258.773 70.606C256.24 72.504 253.069 73.3406 249.932 72.9391C248.155 72.4989 246.486 71.7016 245.026 70.5956C243.566 69.4895 242.345 68.0977 241.438 66.5046C241.254 65.391 240.943 63.5328 239.451 62.8158C237.701 61.5547 237.224 58.6476 236.334 56.6533C237.562 54.9269 238.421 52.9658 238.86 50.892ZM250.868 74.599C245.251 78.0203 236.838 73.0751 236.442 66.7259C236.479 66.219 236.708 65.7454 237.083 65.4025C237.457 65.0595 237.948 64.8731 238.455 64.8815C239.007 65.255 239.11 66.6982 239.26 67.3553C239.653 68.9299 241.544 71.4452 242.979 70.855C245.057 73.0363 247.867 74.3699 250.868 74.599ZM117.756 88.4318C114.74 88.0236 111.759 87.3972 108.834 86.5575C111.937 85.5707 115.023 81.0244 118.151 83.4336C118.731 84.2958 117.328 84.6993 117.323 85.497C117.128 86.8249 118.807 86.5621 119.287 87.4151C119.132 87.6969 118.912 87.9377 118.646 88.1176C118.379 88.2976 118.074 88.4116 117.756 88.4503V88.4318ZM144.206 91.558C136.372 90.9079 127.892 89.9442 121.054 88.9482C121.269 88.6522 121.421 88.3141 121.498 87.9558C121.575 87.5976 121.576 87.2271 121.501 86.8683C121.426 86.5095 121.277 86.1705 121.063 85.8731C120.85 85.5757 120.576 85.3266 120.26 85.1419C120.456 84.7482 120.564 84.3163 120.577 83.8764C120.589 83.4366 120.506 82.9993 120.332 82.595C120.159 82.1908 119.9 81.8293 119.572 81.5357C119.245 81.2422 118.859 81.0236 118.439 80.8953C124.784 76.7294 131.391 72.979 138.219 69.6677C140.737 69.7757 143.157 70.6828 145.128 72.2583C147.099 73.8338 148.52 75.9961 149.186 78.4334C149.851 80.8707 149.728 83.4569 148.832 85.8191C147.937 88.1813 146.316 90.1974 144.203 91.5765L144.206 91.558ZM148.346 91.0001C149.821 89.3318 150.884 87.3392 151.449 85.1831C152.015 83.027 152.066 80.7679 151.6 78.5881C151.134 76.4083 150.162 74.369 148.765 72.6348C147.367 70.9006 145.583 69.5201 143.555 68.6048C167.268 64.0516 192.763 59.5375 224.643 54.251C224.724 56.4827 226.592 59.3046 229.041 58.1035C229.731 57.6424 229.745 57.013 230.389 58.0043C230.661 58.3439 231.001 58.6223 231.388 58.8213C231.774 59.0203 232.198 59.1356 232.632 59.1595C233.066 59.1834 233.5 59.1155 233.906 58.9602C234.312 58.8048 234.681 58.5656 234.989 58.2579C235.578 59.8158 236.273 61.331 237.07 62.7928C233.298 64.0216 233.701 68.644 235.58 71.459C234.692 72.0537 233.857 72.7248 233.084 73.4648C205.175 80.8373 176.889 86.6971 148.35 91.0185L148.346 91.0001ZM114.94 233.524C114.796 233.569 114.645 233.586 114.494 233.572C114.344 233.559 114.197 233.516 114.063 233.446C113.93 233.376 113.811 233.28 113.714 233.164C113.617 233.048 113.543 232.914 113.498 232.77C111.865 227.547 108.65 222.963 104.299 219.655C99.9482 216.347 94.6777 214.479 89.2194 214.31C88.9144 214.31 88.6219 214.189 88.4062 213.972C88.1906 213.756 88.0694 213.463 88.0694 213.157C88.0694 212.852 88.1906 212.558 88.4062 212.342C88.6219 212.126 88.9144 212.005 89.2194 212.005C95.17 212.163 100.922 214.185 105.668 217.786C110.414 221.388 113.915 226.389 115.681 232.087C115.77 232.376 115.742 232.689 115.604 232.958C115.465 233.226 115.227 233.43 114.94 233.524ZM115.554 223.38C99.8109 198.711 34.6266 195.219 7.5234 198.181C41.7227 172.019 79.3123 149.765 115.718 128.213C115.815 128.155 115.912 128.097 116.01 128.04C141.719 110.622 171.21 104.183 204.111 108.307C204.645 115.159 209.965 115.816 216.2 116.047C225.745 116.047 236.978 105.361 241.167 95.5649C244.13 89.9476 246.527 84.0479 248.322 77.9535C249.491 77.7893 250.619 77.4119 251.652 76.84C245.769 89.1027 243.572 104.554 232.052 112.817C230.989 113.589 231.891 114.839 232.762 115.297C236.762 116.858 240.18 118.294 243.552 120.007C239.074 121.932 234.43 125.541 230.076 127.014C205.896 111.978 172.413 112.104 144.35 117.1C118.699 129.303 97.0141 146.121 72.2247 159.901C72.222 159.903 72.2193 159.904 72.2166 159.906C56.4342 169.078 40.1163 178.561 24.5204 188.828C24.3096 188.967 24.1504 189.172 24.0671 189.41C23.9839 189.649 23.9813 189.909 24.0597 190.149C24.1382 190.389 24.2934 190.597 24.5013 190.741C24.7092 190.884 24.9584 190.955 25.2104 190.942C47.1696 189.485 69.207 192.158 90.1854 198.824C99.4452 201.711 110.796 206.271 116.495 215.984C115.75 218.373 115.432 220.875 115.554 223.375V223.38ZM130.704 156.969C107.861 162.575 111.134 154.509 115.849 135.924C129.246 128.528 139.921 117.875 156.476 117.481C181.468 115.636 207.405 115.715 228.061 128.508C218.284 134.066 208.511 139.947 198.828 146.144C197.082 146.903 195.447 149.109 193.582 148.77C172.397 149.318 151.325 152.064 130.704 156.964V156.969ZM190.965 151.184C183.63 155.975 176.074 161.158 167.948 166.972C165.347 166.628 159.912 168.634 158.224 166.684C155.984 163.512 156.614 158.285 156.317 154.497C167.798 152.776 179.362 151.669 190.96 151.18L190.965 151.184ZM90.8915 196.629C71.0126 190.344 50.1956 187.568 29.3688 188.424C57.0401 170.774 85.6751 155.226 113.089 137.637C106.971 158.338 109.639 164.869 131.286 159.2C138.856 157.476 146.455 156.016 154.082 154.82C154.004 157.683 154.166 160.548 154.565 163.385C155.202 169.264 159.275 170.626 164.367 169.533C151.945 178.688 140.09 188.592 128.869 199.191C124.161 203.067 120.302 207.875 117.532 213.314C111.088 203.834 99.3371 199.29 90.8869 196.625L90.8915 196.629ZM174.301 223.59C174.214 223.882 174.014 224.129 173.746 224.274C173.477 224.419 173.163 224.452 172.87 224.364C173.16 224.007 117.611 210.216 122.53 233.586C122.563 233.734 122.566 233.887 122.54 234.036C122.514 234.185 122.458 234.328 122.377 234.455C122.296 234.583 122.19 234.693 122.066 234.78C121.942 234.867 121.803 234.929 121.655 234.961C121.508 234.994 121.355 234.997 121.206 234.971C121.057 234.944 120.915 234.889 120.788 234.807C120.661 234.726 120.55 234.62 120.464 234.496C120.377 234.372 120.316 234.232 120.283 234.084C117.866 224.297 127.413 217.307 139.571 217.688C151.039 217.622 162.462 219.123 173.526 222.149C173.671 222.192 173.805 222.264 173.922 222.36C174.039 222.455 174.137 222.573 174.208 222.707C174.28 222.84 174.324 222.986 174.339 223.137C174.355 223.288 174.34 223.44 174.296 223.585L174.301 223.59ZM208.097 221.607C208 221.897 207.792 222.136 207.519 222.272C207.246 222.408 206.93 222.43 206.641 222.333C206.411 222.252 182.931 214.388 165.655 211.975C147.297 209.411 128.487 213.358 122.834 220.952C121.99 222.167 120.06 220.761 120.994 219.569C128.069 210.056 149.438 207.375 165.977 209.685C183.457 212.129 207.147 220.06 207.377 220.141C207.665 220.24 207.902 220.449 208.036 220.723C208.17 220.997 208.191 221.313 208.093 221.602L208.097 221.607ZM243.287 228.194C235.678 221.832 226.93 216.981 217.511 213.9C200.521 207.797 182.582 204.773 164.535 204.971C151.756 205.637 124.035 206.815 117.808 221.402C118.211 213.146 123.963 206.688 130.438 200.883C160.887 171.627 207.297 141.863 243.727 122.474C252.568 117.748 264.622 115.911 279.528 117.003C278.668 118.274 277.898 122.495 276.391 121.949C268.205 120.845 259.919 120.686 251.696 121.474C251.545 121.487 251.398 121.529 251.263 121.599C251.129 121.669 251.009 121.765 250.912 121.881C250.814 121.998 250.74 122.132 250.695 122.277C250.649 122.422 250.632 122.574 250.645 122.726C250.671 123.031 250.817 123.314 251.052 123.512C251.168 123.609 251.302 123.683 251.446 123.729C251.591 123.775 251.743 123.792 251.894 123.779C259.868 123.016 267.902 123.162 275.844 124.213C274.427 126.525 272.832 128.722 271.074 130.785C270.904 130.562 270.658 130.41 270.384 130.359C261.973 128.945 253.408 128.705 244.932 129.647C244.781 129.663 244.634 129.709 244.501 129.782C244.368 129.856 244.25 129.954 244.155 130.073C244.06 130.192 243.989 130.328 243.947 130.474C243.904 130.62 243.891 130.774 243.907 130.925C243.924 131.076 243.97 131.223 244.043 131.356C244.116 131.49 244.214 131.608 244.333 131.703C244.451 131.799 244.587 131.87 244.733 131.912C244.879 131.955 245.031 131.969 245.182 131.952C253.344 131.047 261.591 131.265 269.693 132.6C267.867 134.511 265.593 138.168 263.023 138.555C262.352 138.191 236.753 132.664 243.572 137.785C249.475 138.184 255.333 139.081 261.085 140.466C258.44 142.744 254.129 142.11 251.519 144.236C250.194 144.777 249.339 146.333 250.074 147.299C247.544 146.894 229.126 143.38 229.009 146.433C229.009 146.738 229.13 147.032 229.346 147.248C229.561 147.464 229.854 147.585 230.159 147.585C233.117 147.915 252.289 147.569 248.285 151.157C247.289 152.579 246.951 155.781 249.242 155.982C249.808 155.765 249.29 157.543 249.865 158.142C234.745 152.322 218.488 150.078 202.361 151.583C202.056 151.612 201.775 151.761 201.579 151.997C201.384 152.234 201.29 152.538 201.319 152.844C201.348 153.15 201.496 153.432 201.732 153.627C201.968 153.823 202.272 153.917 202.577 153.888C234.584 150.58 265.724 163.629 287.866 186.084C288.091 186.085 288.311 186.019 288.499 185.896C288.687 185.772 288.835 185.596 288.924 185.39C289.013 185.183 289.04 184.954 289.001 184.732C288.962 184.51 288.859 184.305 288.705 184.141C278.477 173.296 266.052 164.77 252.264 159.136C252.855 158.849 253.347 158.393 253.676 157.824C253.693 158.213 253.821 158.588 254.046 158.906C254.271 159.223 254.583 159.468 254.943 159.612C255.304 159.756 255.699 159.792 256.08 159.716C256.46 159.64 256.811 159.455 257.09 159.184C258.928 157.084 261.006 155.209 263.281 153.596C274.905 158.173 285.393 165.237 294.014 174.294C294.116 174.41 294.241 174.503 294.38 174.569C294.519 174.636 294.67 174.673 294.824 174.68C294.978 174.686 295.132 174.662 295.276 174.607C295.421 174.553 295.553 174.47 295.664 174.364C295.776 174.258 295.866 174.13 295.927 173.988C295.989 173.847 296.021 173.694 296.023 173.54C296.024 173.385 295.995 173.232 295.936 173.089C295.878 172.946 295.791 172.817 295.681 172.708C287.578 164.206 277.861 157.412 267.101 152.727C272.657 152.283 278.094 150.879 283.172 148.577C292.079 153.078 300.291 158.846 307.551 165.702C307.66 165.811 307.79 165.897 307.932 165.955C308.075 166.013 308.228 166.042 308.382 166.04C308.535 166.037 308.687 166.004 308.828 165.942C308.969 165.88 309.096 165.79 309.202 165.678C309.307 165.566 309.389 165.434 309.443 165.289C309.497 165.145 309.521 164.991 309.514 164.837C309.507 164.682 309.47 164.531 309.404 164.392C309.338 164.253 309.244 164.128 309.129 164.026C302.157 157.449 294.328 151.848 285.856 147.378C289.661 145.627 293.313 143.558 296.771 141.192C305.399 145.436 313.346 150.946 320.351 157.54C321.414 158.582 323.035 156.872 321.926 155.862C315.057 149.403 307.303 143.959 298.899 139.696C301.64 137.656 304.21 135.392 306.581 132.93C314.584 136.506 322.128 141.036 329.05 146.421C329.17 146.513 329.308 146.58 329.455 146.619C329.602 146.657 329.754 146.666 329.905 146.646C330.055 146.625 330.2 146.575 330.331 146.498C330.461 146.422 330.576 146.32 330.668 146.199C330.759 146.078 330.826 145.94 330.865 145.792C330.903 145.645 330.912 145.492 330.892 145.342C330.871 145.191 330.821 145.046 330.745 144.915C330.668 144.783 330.567 144.669 330.446 144.577C323.595 139.252 316.151 134.741 308.264 131.134C310.46 128.674 312.443 126.032 314.192 123.235C328.032 127.604 341.193 133.894 353.292 141.923C346.771 145.545 317.642 169.128 306.217 177.476C301.555 180.902 243.526 227.935 243.287 228.189V228.194ZM258.187 150.255C255.999 148.837 252.595 154.668 251.878 156.196C252.526 153.63 253.971 151.337 256.004 149.646C256.226 149.458 256.37 149.192 256.406 148.902C256.443 148.612 256.369 148.319 256.2 148.081C256.032 147.842 255.78 147.676 255.495 147.615C255.209 147.554 254.912 147.603 254.661 147.751C255.288 147.373 255.948 147.05 256.632 146.788C256.863 146.698 257.06 146.535 257.192 146.325C257.323 146.114 257.384 145.866 257.363 145.618C257.343 145.37 257.243 145.135 257.078 144.948C256.914 144.762 256.693 144.634 256.45 144.584C260.503 142.714 263.81 146.659 264.44 150.248C261.173 151.87 258.307 154.2 256.05 157.07C256.363 155.147 257.135 153.328 258.299 151.767C258.467 151.543 258.547 151.266 258.525 150.986C258.503 150.707 258.38 150.446 258.18 150.25L258.187 150.255ZM247.176 256.175L246.348 244.376C252.725 238.608 259.58 233.394 266.839 228.791C267.097 228.626 267.278 228.367 267.345 228.068C267.411 227.769 267.356 227.457 267.192 227.199C267.028 226.941 266.769 226.758 266.471 226.692C266.173 226.626 265.862 226.681 265.604 226.845C258.746 231.204 252.24 236.097 246.146 241.478L245.845 237.178L302.087 191.159C302.204 191.063 302.301 190.945 302.372 190.811C302.444 190.678 302.489 190.532 302.504 190.381C302.519 190.23 302.504 190.078 302.461 189.933C302.417 189.788 302.346 189.653 302.25 189.536C302.154 189.418 302.037 189.321 301.904 189.249C301.77 189.178 301.625 189.133 301.474 189.118C301.324 189.102 301.172 189.117 301.027 189.161C300.883 189.204 300.748 189.276 300.631 189.372L245.647 234.368L245.334 229.907C274.896 206.986 276.214 202.439 327.877 163.897C333.96 159.154 347.505 148.093 354.053 144.07C353.374 147.994 353.023 151.969 353.002 155.952L323.67 179.797C323.486 179.947 323.352 180.151 323.288 180.38C323.224 180.609 323.232 180.853 323.311 181.077C323.391 181.302 323.538 181.496 323.731 181.633C323.925 181.77 324.157 181.844 324.394 181.845C325.011 181.845 322.805 183.458 352.914 159.002C352.868 160.325 352.825 161.411 352.786 161.605C350.598 164.302 267.817 237.805 247.176 256.17V256.175ZM385.768 227.802L393.484 228.207C392.763 237.944 388.913 247.184 382.511 254.543C380.823 253.146 376.301 247.626 374.617 249.588C374.454 249.846 374.399 250.159 374.466 250.457C374.532 250.755 374.714 251.015 374.971 251.179C377.161 252.617 379.169 254.317 380.951 256.239C374.571 262.799 366.581 267.56 357.784 270.045L355.755 262.727C355.666 262.44 355.47 262.2 355.207 262.056C354.945 261.912 354.636 261.877 354.348 261.957C354.059 262.037 353.814 262.227 353.663 262.487C353.512 262.746 353.468 263.054 353.54 263.345L355.587 270.722C346.923 272.996 337.967 273.953 329.02 273.56L330.186 265.759C330.217 265.463 330.133 265.168 329.951 264.933C329.77 264.698 329.505 264.542 329.212 264.499C328.919 264.455 328.621 264.526 328.379 264.697C328.137 264.868 327.97 265.126 327.913 265.418L326.699 273.533C319.465 273.426 312.241 272.936 305.058 272.064C311.225 241.48 316.682 216.788 322.72 192.157C329.39 185.616 335.703 180.526 340.078 176.39C340.653 177.635 342.532 177.234 343.645 177.639C343.369 179.435 341.152 186.112 343.71 186.504C344.015 186.504 344.307 186.382 344.523 186.166C344.739 185.95 344.86 185.657 344.86 185.351C344.877 182.891 345.232 180.445 345.913 178.082C352.67 179.393 359.261 181.45 365.567 184.215L361.574 190.817C361.496 190.947 361.444 191.091 361.421 191.24C361.398 191.39 361.405 191.543 361.441 191.69C361.477 191.837 361.542 191.976 361.631 192.098C361.721 192.22 361.833 192.323 361.963 192.401C362.092 192.48 362.235 192.532 362.385 192.555C362.534 192.578 362.686 192.571 362.833 192.534C362.98 192.498 363.118 192.433 363.24 192.344C363.362 192.254 363.464 192.141 363.543 192.012L367.662 185.201C376.363 189.6 382.761 194.741 387.184 202.16L381.356 205.079C381.216 205.144 381.091 205.236 380.987 205.35C380.884 205.464 380.804 205.598 380.753 205.744C380.702 205.89 380.681 206.044 380.691 206.198C380.7 206.352 380.741 206.503 380.81 206.641C380.879 206.779 380.975 206.902 381.092 207.002C381.209 207.102 381.345 207.178 381.492 207.225C381.639 207.271 381.793 207.288 381.947 207.273C382.1 207.259 382.249 207.213 382.384 207.14L388.321 204.168C391.901 210.836 393.704 218.317 393.555 225.888L385.889 225.485C385.584 225.468 385.284 225.575 385.056 225.78C384.828 225.985 384.691 226.273 384.675 226.58C384.659 226.886 384.765 227.187 384.97 227.415C385.175 227.643 385.462 227.781 385.768 227.797V227.802Z" fill="black"/>
<path d="M117.756 88.4318C114.74 88.0236 111.759 87.3972 108.834 86.5575C111.937 85.5707 115.023 81.0244 118.151 83.4336C118.731 84.2958 117.328 84.6993 117.323 85.497C117.128 86.8249 118.807 86.5621 119.287 87.4151C119.132 87.6969 118.912 87.9377 118.646 88.1176C118.379 88.2976 118.074 88.4116 117.756 88.4503V88.4318Z" fill="black"/>
<path d="M148.346 91.0001C149.821 89.3318 150.884 87.3392 151.449 85.1831C152.015 83.027 152.066 80.7679 151.6 78.5881C151.134 76.4083 150.163 74.369 148.765 72.6348C147.367 70.9006 145.583 69.5201 143.555 68.6049C167.268 64.0516 192.763 59.5375 224.643 54.251C224.724 56.4827 226.592 59.3046 229.041 58.1035C229.731 57.6424 229.745 57.013 230.389 58.0043C230.661 58.3439 231.001 58.6223 231.388 58.8213C231.775 59.0204 232.199 59.1356 232.632 59.1595C233.066 59.1834 233.5 59.1155 233.906 58.9602C234.312 58.8049 234.681 58.5656 234.989 58.2579C235.578 59.8158 236.273 61.331 237.07 62.7928C233.298 64.0216 233.701 68.644 235.58 71.459C234.692 72.0537 233.857 72.7248 233.085 73.4648C205.175 80.8373 176.889 86.6971 148.35 91.0186L148.346 91.0001Z" fill="#FFDA75"/>
<path d="M268.859 55.0672C269.759 53.4513 270.209 51.6222 270.161 49.7719C270.113 47.9217 269.568 46.1186 268.585 44.552C271.025 44.167 273.709 43.5998 276.405 43.3992C278.604 44.5783 280.33 46.4805 281.293 48.7857C282.257 51.0909 282.399 53.6585 281.695 56.0562C277.718 56.3859 269.882 57.1698 267.205 57.4395C266.193 56.7041 268.647 56.1784 268.859 55.0672Z" fill="#FFDA75"/>
<path d="M287.217 42.5969C295.364 42.537 298.124 51.5583 293.696 57.0729C290.553 56.3318 287.337 55.9452 284.108 55.9202C284.637 53.58 284.518 51.1394 283.764 48.862C283.01 46.5845 281.65 44.5569 279.83 42.9981C282.258 42.7675 284.726 42.6177 287.217 42.5969Z" fill="#FF8599"/>
<path d="M144.206 91.558C136.372 90.9078 127.892 89.9441 121.054 88.9482C121.269 88.6522 121.421 88.3141 121.498 87.9558C121.575 87.5975 121.576 87.227 121.501 86.8682C121.426 86.5095 121.277 86.1704 121.063 85.8731C120.85 85.5757 120.576 85.3266 120.26 85.1419C120.456 84.7481 120.564 84.3162 120.577 83.8764C120.589 83.4365 120.506 82.9992 120.332 82.595C120.159 82.1907 119.9 81.8292 119.573 81.5357C119.246 81.2421 118.859 81.0236 118.439 80.8952C124.784 76.7293 131.391 72.9789 138.219 69.6676C140.737 69.7756 143.157 70.6828 145.128 72.2582C147.099 73.8337 148.52 75.996 149.186 78.4333C149.851 80.8706 149.728 83.4569 148.832 85.8191C147.937 88.1813 146.316 90.1973 144.203 91.5764L144.206 91.558Z" fill="#F2EDE9"/>
<path d="M246.546 256.116L245.718 244.317C252.095 238.549 258.95 233.335 266.208 228.732C266.466 228.568 266.648 228.308 266.714 228.009C266.78 227.711 266.725 227.398 266.561 227.14C266.398 226.882 266.138 226.7 265.84 226.634C265.543 226.567 265.231 226.622 264.973 226.786C258.115 231.146 251.609 236.038 245.515 241.419L245.214 237.119L301.456 191.1C301.573 191.004 301.67 190.886 301.742 190.753C301.813 190.619 301.858 190.473 301.873 190.322C301.888 190.172 301.873 190.02 301.83 189.874C301.786 189.729 301.715 189.594 301.619 189.477C301.524 189.36 301.406 189.262 301.273 189.191C301.14 189.119 300.994 189.074 300.843 189.059C300.693 189.044 300.541 189.058 300.396 189.102C300.252 189.146 300.117 189.218 300 189.313L245.016 234.309L244.703 229.848C274.265 206.927 275.583 202.381 327.246 163.838C333.329 159.096 346.874 148.034 353.422 144.011C352.743 147.936 352.392 151.91 352.371 155.893L323.039 179.739C322.855 179.889 322.721 180.093 322.657 180.322C322.593 180.551 322.601 180.794 322.681 181.019C322.76 181.243 322.907 181.437 323.101 181.575C323.295 181.712 323.526 181.786 323.764 181.786C324.38 181.786 322.174 183.4 352.284 158.943C352.238 160.267 352.194 161.353 352.155 161.546C349.967 164.244 267.186 237.747 246.546 256.112V256.116Z" fill="#F2EDE9"/>
<path d="M207.466 221.548C207.369 221.838 207.161 222.077 206.888 222.214C206.615 222.35 206.3 222.372 206.01 222.275C205.78 222.194 182.3 214.33 165.024 211.916C146.666 209.352 127.856 213.299 122.203 220.894C121.359 222.109 119.429 220.702 120.363 219.51C127.438 209.998 148.807 207.317 165.346 209.627C182.826 212.071 206.516 220.001 206.746 220.082C207.034 220.181 207.271 220.391 207.406 220.665C207.54 220.939 207.56 221.255 207.462 221.544L207.466 221.548Z" fill="#F2EDE9"/>
<path d="M173.67 223.531C173.583 223.824 173.383 224.07 173.115 224.215C172.847 224.361 172.532 224.393 172.24 224.306C172.529 223.948 116.98 210.157 121.899 233.528C121.932 233.675 121.935 233.828 121.909 233.977C121.883 234.127 121.827 234.269 121.746 234.397C121.665 234.524 121.559 234.635 121.435 234.722C121.312 234.809 121.172 234.87 121.024 234.903C120.877 234.935 120.724 234.939 120.575 234.912C120.427 234.886 120.285 234.83 120.157 234.749C120.03 234.667 119.92 234.562 119.833 234.438C119.746 234.313 119.685 234.173 119.652 234.025C117.235 224.239 126.782 217.249 138.94 217.629C150.408 217.563 161.831 219.064 172.895 222.09C173.04 222.134 173.175 222.205 173.292 222.301C173.409 222.397 173.506 222.515 173.577 222.648C173.649 222.782 173.693 222.928 173.709 223.079C173.724 223.229 173.709 223.381 173.666 223.526L173.67 223.531Z" fill="#F2EDE9"/>
<path d="M114.309 233.465C114.165 233.511 114.014 233.527 113.863 233.514C113.713 233.501 113.567 233.458 113.433 233.388C113.299 233.318 113.18 233.222 113.083 233.106C112.986 232.99 112.913 232.856 112.867 232.711C111.234 227.488 108.019 222.904 103.668 219.596C99.3174 216.288 94.0469 214.42 88.5886 214.252C88.2836 214.252 87.9911 214.13 87.7754 213.914C87.5597 213.698 87.4386 213.405 87.4386 213.099C87.4386 212.793 87.5597 212.5 87.7754 212.284C87.9911 212.068 88.2836 211.946 88.5886 211.946C94.5392 212.104 100.291 214.126 105.037 217.728C109.783 221.33 113.284 226.331 115.05 232.029C115.139 232.318 115.112 232.63 114.973 232.899C114.835 233.168 114.596 233.371 114.309 233.465Z" fill="#F2EDE9"/>
<path d="M115.619 223.495C99.8756 198.827 34.6913 195.334 7.58813 198.297C41.7874 172.135 79.3771 149.881 115.783 128.328L116.075 128.155C141.784 110.738 171.275 104.298 204.176 108.423C204.71 115.275 210.03 115.932 216.265 116.162C225.81 116.162 237.043 105.477 241.231 95.6807C244.195 90.0633 246.592 84.1636 248.387 78.0692C249.555 77.9051 250.684 77.5277 251.717 76.9557C245.834 89.2184 243.637 104.67 232.116 112.932C231.054 113.705 231.955 114.954 232.827 115.413C236.827 116.974 240.245 118.41 243.616 120.123C239.138 122.048 234.495 125.656 230.141 127.129C205.961 112.093 172.477 112.22 144.415 117.216C118.763 129.419 97.0788 146.237 72.2894 160.017L72.2813 160.022C56.4989 169.194 40.1811 178.677 24.5851 188.944C24.3744 189.083 24.2151 189.287 24.1319 189.526C24.0486 189.765 24.046 190.024 24.1245 190.265C24.2029 190.505 24.3581 190.713 24.566 190.856C24.774 191 25.0231 191.07 25.2751 191.058C47.2344 189.6 69.2718 192.274 90.2501 198.94C99.5099 201.826 110.86 206.387 116.56 216.1C115.815 218.489 115.497 220.991 115.619 223.491V223.495Z" fill="white"/>
</svg>
