<svg width="800" height="950" viewBox="0 0 800 950" fill="none" xmlns="http://www.w3.org/2000/svg">
<path d="M738.002 194.533C724.002 201.583 713.43 208.386 709.749 222.368C708.305 227.845 708.294 227.956 706.621 226.794C698.52 221.188 690.361 214.708 680.03 216.269C674.87 217.05 666.129 220.719 666.347 225.867C665.983 229.377 669.505 230.293 671.982 228.227C691.288 212.131 711.399 251.765 715.895 234.484C717.11 229.829 715.766 229.594 719.036 221.271C724.166 208.227 741.007 204.829 744.782 198.7C747.071 194.985 742.692 192.167 737.996 194.533H738.002Z" fill="#072924"/>
<path d="M88.1108 778.269C83.45 778.034 74.5452 781.122 66.5092 789.246C59.5943 796.243 63.04 801.203 59.3712 799.372C52.1629 795.773 43.8451 791.095 35.1634 791.253C19.2557 791.547 23.0359 803.768 29.3697 800.411C36.6778 796.53 49.7503 803.809 56.8648 807.695C73.4827 816.776 63.9557 799.783 76.6349 791.705C81.9179 788.342 86.5963 786.07 89.7778 783.575C91.9908 781.838 92.2315 778.474 88.1108 778.269Z" fill="#072924"/>
<path d="M204.049 741.212C203.087 742.679 203.034 742.615 201.373 741.811C187.772 735.23 186.152 733.681 174.012 732.495C171.289 733.117 166.904 733.375 167.274 737.115C167.514 739.551 170.614 740.396 173.056 740.466C193.877 741.024 202.605 760.647 210.465 746.935C216.893 735.723 241.846 723.831 241.089 721.823C238.23 714.221 212.367 728.574 204.049 741.212Z" fill="#072924"/>
<path d="M103.003 685.476C96.4871 681.807 90.3471 677.763 82.0352 678.884C77.3392 679.518 76.447 685.218 82.1937 685.558C99.1404 686.568 104.963 705.264 111.426 687.695C113.798 681.25 122.391 671.247 124.376 669.075C136.409 655.874 136.785 658.169 139.074 655.944C142.056 653.044 122.421 650.015 103.009 685.47L103.003 685.476Z" fill="#072924"/>
<path d="M419.56 626.142C425.049 570.125 421.597 571.598 424.509 568.311C508.661 473.411 583.897 391.154 594.803 263.975C601.419 186.902 566.316 118.393 526.934 92.1423C511.203 81.635 504.059 75.4069 485.991 68.269C481.448 66.4728 480.074 65.017 477.339 62.129C457.369 40.9794 420.212 20.2113 385.72 18.5325C380.912 18.3036 380.73 15.4625 364.259 8.63567C349.085 2.34303 326.521 -2.08882 308.711 4.32122C306.111 5.26042 305.254 4.91996 302.959 4.02185C285.073 -3.00454 259.38 -1.59574 242.357 14.4352C240.866 15.844 240.343 16.2725 239.41 16.1434C232.067 15.0281 223.843 15.1631 215.631 16.5367C163.129 25.3123 143.776 51.3106 134.472 63.8019C131.684 67.547 129.67 70.2472 128.115 70.6698C119.674 72.965 108.527 81.0949 101.547 87.37C63.0988 121.833 52.7617 169.409 47.8661 174.404C22.0029 200.872 4.49263 239.826 1.0352 278.609C-0.85494 299.929 0.430589 299.424 0.383629 302.893C-0.256201 355.124 37.1592 418.227 69.3914 456.399C137.918 537.54 261.605 589.971 270.216 606.789C305.929 676.618 316.313 685.787 313.947 689.45C310.138 695.385 315.714 705.035 321.391 709.343C323.281 710.776 323.228 711.527 322.94 715.689C322.071 728.157 322.805 748.432 323.938 761.968C324.496 768.624 324.455 768.853 322.482 770.221C316.871 774.113 314.458 781.891 318.937 787.808C319.835 788.993 319.694 789.134 318.303 790.502C312.257 796.454 313.724 799.777 300.951 811.881C295.903 816.659 292.569 819.823 293.766 828.047C294.212 831.099 298.527 835.848 305.154 836.435C312.345 837.075 317.692 830.653 322.136 824.031C321.614 856.299 320.44 868.749 332.72 873.527C357.239 883.06 375.952 877.043 397.742 871.349C445.019 858.987 482.369 849.261 490.053 834.644C491.761 831.398 491.967 827.929 490.664 824.343C487.699 816.172 482.281 805.136 482.516 803.733C491.849 801.332 495.501 790.161 492.002 783.299C480.368 760.483 464.325 764.134 464.771 758.24C465.411 749.887 459.042 741.094 456.13 739.955C448.141 736.833 447.977 737.907 447.032 735.758C428.506 693.477 422.707 689.532 424.198 687.489C427.814 682.547 425.753 674.382 423.135 670.155C417.7 661.397 416.15 663.111 416.238 661.714C416.614 656.214 418.463 637.078 419.531 626.16L419.56 626.142ZM322.858 794.406C322.735 808.2 320.492 822.887 306.187 829.185C297.23 827.377 299.607 820.961 306.809 815.455C312.638 811.006 316.231 804.766 318.861 800.211C320.352 797.616 321.678 795.315 322.858 794.406ZM384.211 764.586C324.666 780.47 328.84 788.412 325.799 784.209C324.93 783.006 324.097 781.879 324.161 780.323C324.378 775.575 329.239 772.798 333.277 771.301C391.179 749.876 408.883 748.103 440.24 744.687C444.22 744.252 451.605 743.454 454.81 749.529C455.743 751.296 457.222 753.615 457.434 756.01C439.648 750.41 402.397 759.732 384.205 764.58L384.211 764.586ZM330.419 715.665C330.495 715.636 330.941 715.495 333.095 716.164C350.365 721.565 348.616 712.032 350.811 726.003C352.73 738.165 353.693 742.708 354.896 748.162C357.65 760.571 355.947 752.106 331.951 765.067C331.205 765.478 331.293 717.608 330.419 715.665ZM363.473 715.589C392.376 709.478 391.332 705.939 392.271 708.663C397.049 722.686 397.8 726.255 403.917 740.548C405.267 743.701 404.61 739.738 364.412 752.294C362.792 752.805 363.913 755.693 357.291 718.618C357.237 717.473 359.297 716.464 363.473 715.589ZM439.378 736.944C437.675 737.109 430.027 736.974 415.287 739.867C414.6 739.991 413.673 739.961 412.816 740.079C411.425 740.272 411.425 740.278 410.996 739.052C407.938 730.305 399.52 706.138 399.297 705.581C398.511 703.679 409.171 700.427 418.351 694.85C418.944 695.12 419.103 695.954 432.011 721.459C437.523 732.354 439.46 736.187 439.378 736.944ZM418.31 683.592C417.999 683.427 417.676 683.21 417.295 682.958C412.698 679.941 403.124 673.654 348.222 692.526C330.031 698.777 330.753 705.634 329.432 705.504C326.045 705.176 317.147 693.547 322.001 689.931C333.905 681.085 384.428 666.217 409.276 667.332C413.837 667.531 420.846 675.843 418.31 683.592ZM94.6383 199.199C95.9532 284.22 146.834 392.34 190.008 459.088C201.625 477.044 249.401 543.721 272.206 569.996C272.482 570.318 272.998 570.911 273.004 571.076C272.951 571.316 271.073 572.719 270.879 572.866C269.453 573.952 267.974 575.067 266.929 576.734C260.213 576.687 146.758 465.281 106.085 402.307C78.3549 359.374 62.5705 323.69 54.9042 286.609L54.8749 286.498C30.2737 167.237 108.192 84.1826 122.767 81.453C120.079 91.344 93.3704 116.937 94.6383 199.199ZM397.912 606.818C398.317 625.954 398.558 634.689 397.695 659.366C397.679 659.76 396.433 660.135 393.955 660.505C393.803 660.529 383.636 662.19 383.483 662.172C383.149 661.362 384.153 632.863 380.46 598.893C380.396 598.307 379.586 591.38 380.061 590.828C380.179 590.746 380.959 590.787 381.106 590.793C387.469 591.034 392.112 588.779 397.495 586.713C397.63 587.347 397.483 586.655 397.912 606.818ZM362.921 546.275C365.909 548.241 367.429 546.786 367.681 548.476C373.252 586.073 372.976 585.639 371.203 586.989C364.928 591.761 355.607 596.493 347.729 596.158C334.134 595.694 334.868 597.831 330.448 583.491C321.191 553.483 319.424 554.775 321.121 553.008C334.487 539.102 348.551 536.836 362.921 546.275ZM337.087 602.433C347.406 602.715 351.991 605.979 371.027 595.853C371.603 595.548 372.054 595.201 372.418 594.919C373.093 594.397 373.088 593.27 374.027 604.693C375.7 624.886 377.191 637.501 378.212 660.165C378.394 664.297 378.306 663.205 364.412 666.575C358.055 668.107 358.096 668.594 357.626 667.555C357.198 666.622 337.14 603.079 337.081 602.427L337.087 602.433ZM310.625 609.7C324.208 609.131 328.106 602.691 329.151 602.621C329.286 602.715 348.504 660.904 351.932 669.715C350.964 670.408 351.069 670.355 348.492 671.13C331.775 676.172 332.379 677.246 331.616 675.585C312.433 633.708 302.483 611.59 301.274 608.174C302.278 608.221 304.931 609.906 310.625 609.7ZM325.435 596.939C317.869 601.242 308.019 605.497 298.897 600.097C296.513 598.676 297.224 598.876 285.642 574.093C284.985 572.707 285.519 573.817 290.291 567.09C294.799 560.75 306.14 551.411 313.19 554.246C314.1 554.61 314.634 556.365 321.385 577.732C327.061 595.7 327.607 595.694 325.429 596.933L325.435 596.939ZM396.127 579.957C390.551 582.863 388.156 582.927 384.54 582.933C378.958 582.945 379.181 583.291 378.699 577.668C377.836 567.671 376.786 562.905 375.019 553.953C373.352 545.606 373.281 545.541 373.886 545.259C382.421 541.285 385.726 543.334 390.416 546.997C398.041 552.955 396.55 572.637 397.266 577.398C397.536 579.147 397.489 579.241 396.127 579.957ZM364.535 538.368C349.25 527.561 330.507 533.079 319.63 544.279C313.208 538.562 249.577 375.969 220.603 244.668C209.45 194.169 202.969 116.385 221.401 63.3734C226.273 49.3324 233.17 37.6393 244.464 24.2792C251.913 15.4507 267.381 8.18954 283.922 8.62979C318.068 9.39876 339.359 44.2313 352.402 70.3646C374.15 113.943 381.587 179.94 385.291 225.79C396.802 368.244 367.646 527.96 364.535 538.368ZM267.569 590.341C267.657 589.455 268.443 582.821 277.847 576.746C278.745 576.165 279.655 575.554 279.884 575.631C280.4 575.783 290.479 600.079 290.585 600.514C289.921 600.701 286.746 600.666 286.094 600.678C281.604 600.754 272.716 598.847 269.435 595.706C267.979 594.309 267.351 592.507 267.569 590.341ZM294.647 610.152C304.931 635.211 323.017 670.044 327.354 678.561C326.468 679.301 326.556 679.195 319.988 682.741C318.503 683.545 318.626 683.733 313.613 674.106C310.537 668.206 280.653 613.205 277.683 607.194C294.647 609.806 292.498 604.904 294.641 610.146L294.647 610.152ZM413.673 572.907C410.374 576.247 403.776 577.198 403.647 575.783C403.518 574.375 404.052 573.999 402.672 563.222C401.633 555.139 401.768 555.608 402.461 555.767C410.386 557.674 409.628 559.617 413.162 563.398C415.487 565.881 415.451 571.105 413.673 572.907ZM410.403 659.977C408.49 659.912 407.028 659.912 405.913 659.912C404.416 659.912 403.236 659.912 403.054 659.724C402.69 659.108 403.594 645.683 403.735 644.11C404.246 638.41 404.686 633.485 404.222 585.211C404.169 579.769 408.443 585.252 416.819 578.396C417.406 578.02 412.557 655.469 410.403 659.977ZM412.393 553.63C411.806 553.436 409.699 549.844 404.14 548.887C403.893 548.846 403.6 548.793 403.436 548.746C403.741 547.83 404.351 549.092 426.211 493.057C457.046 414.018 472.161 367.903 481.765 288.476C486.608 248.472 485.88 185.287 472.854 141.098C456.248 84.7402 434.828 63.4967 407.709 36.6003C403.212 32.1391 399.966 30.1903 397.747 28.1358C461.666 46.3328 505.198 94.9423 523.371 159.107C535.041 200.309 532.669 233.797 532.564 234.842C532.564 234.842 532.534 234.959 532.534 235.018C532.534 353.792 473.018 451.68 437.458 510.168C411.924 552.162 413.596 553.014 412.387 553.636L412.393 553.63ZM477.82 817.721C473.013 816.148 467.025 814.182 411.061 827.771C355.02 841.389 337.627 849.807 331.915 852.577C331.276 852.888 330.694 853.17 330.336 853.311C330.336 852.883 330.401 852.342 330.348 851.826C329.051 802.688 330.037 824.325 329.656 795.826C329.585 791.265 331.874 789.357 352.936 782.478C352.449 784.403 349.208 789.404 345.528 798.239C340.568 810.155 349.349 819.987 359.892 818.291C366.971 817.169 374.667 807.912 374.373 797.217C373.997 782.83 369.566 778.586 370.264 777.183C370.564 776.596 371.497 776.59 387.821 771.994C403.841 767.48 402.332 767.979 401.856 769.675C401.569 770.656 401.534 770.896 401.358 771.812C399.726 780.206 397.249 792.891 402.244 800.346C405.607 805.359 412.135 805.752 417.124 804.449C431.535 800.686 431.248 776.666 423.27 763.782C425.565 762.937 455.367 759.103 458.655 766.488C459.676 768.783 478.19 812.104 480.303 818.367C479.364 818.226 478.636 817.991 477.82 817.721ZM410.779 797.834C404.78 796.384 406.194 785.395 406.946 779.49C408.572 766.734 408.378 766.822 409.599 766.458C413.796 765.185 415.839 764.903 417.782 767.574C425.219 777.864 424.033 801.039 410.779 797.834ZM367.247 796.607C367.006 801.907 366.953 805.382 361.213 809.932C356.082 813.988 349.496 807.689 351.386 803.081C358.342 786.099 359.24 786.669 360.309 780.834C360.426 780.177 360.831 779.566 361.494 779.566C364.605 779.566 367.535 791.177 367.247 796.607ZM467.102 768.754C477.538 773.673 483.784 780.13 486.167 788.471C486.056 792.099 483.338 796.161 480.197 797.364C479.54 797.622 479.558 797.781 478.624 795.333C477.415 792.157 467.143 768.889 467.096 768.76L467.102 768.754Z" fill="#072924"/>
<path d="M319.63 544.279C330.507 533.079 349.25 527.561 364.535 538.368C367.646 527.96 396.802 368.244 385.291 225.79C381.587 179.94 374.15 113.943 352.402 70.3646C339.359 44.2313 318.068 9.39877 283.922 8.6298C267.381 8.18955 251.913 15.4507 244.464 24.2792C233.17 37.6393 226.273 49.3324 221.401 63.3734C202.969 116.385 209.45 194.169 220.603 244.668C249.577 375.969 313.208 538.562 319.63 544.279Z" fill="#CCE4FF"/>
<path d="M755.365 373.444C780.025 373.18 797.207 374.483 819.994 400.241C832.233 414.077 831.476 418.027 832.99 415.339C864.442 359.591 881.823 351.303 924.562 348.902C969.932 346.354 997.714 391.107 997.573 417.563C997.251 480.185 972.99 444.601 1028.39 465.427C1043.14 470.975 1055.26 480.954 1054.32 496.703C1053.76 506.142 1049.22 512.481 1042.94 523.194C1039.77 528.594 1037.21 525.63 1069.44 536.584C1073.57 537.986 1088.12 543.087 1093.44 545.946C1103.23 551.206 1102.93 557.44 1098.26 560.363C1081.97 570.524 1050.03 565.311 1022.88 566.585C999.569 567.683 736.752 565.364 703.692 562.599C693.754 561.766 674.911 562.646 672.945 562.623C603.233 561.766 551.618 568.722 537.225 554.921C533.949 551.781 533.791 547.772 537.043 544.531C538.95 542.624 541.298 541.415 543.623 540.194C563.821 529.557 583.65 525.272 594.152 522.636C601.941 520.682 603.872 521.95 603.015 519.472C599.13 508.214 601.601 493.322 608.187 482.767C618.776 465.803 650.674 459.27 675.868 472.178C686.199 477.473 683.851 477.203 680.159 460.538C671.313 420.639 703.257 374.002 755.371 373.439L755.365 373.444Z" fill="#CCE4FF"/>
<path d="M523.559 816.34C523.559 792.807 524.733 773.858 541.227 756.606C562.735 734.101 578.285 729.54 598.407 729.992C625.497 730.602 647.474 739.149 664.621 760.128C680.417 779.458 677.265 782.405 680.235 776.5C695.808 745.541 723.626 726.165 749.495 720.958C790.35 712.74 845.041 751.635 842.511 791.609C841.46 808.227 824.66 841.498 830.014 841.674C857.386 842.573 877.684 846.781 909.447 878.415C916.015 884.954 925.53 898.578 926.869 907.548C927.708 913.183 930.596 912.684 952.016 918.096C977.486 924.535 987.893 926.179 997.949 936.14C1006.28 944.399 1002.61 955.946 993.681 961.311C973.864 973.233 954.434 973.902 933.578 973.585C863.561 972.511 836.858 976.321 659.948 970.539C572.374 967.674 654.078 969.535 510.791 965.062C318.883 959.069 331.721 965.303 306.093 961.587C287.79 958.934 261.258 953.797 267.762 936.487C271.771 925.827 290.502 923.015 303.498 919.311C325.258 913.112 330.26 909.502 362.316 909.039C376.439 908.833 392.317 910.882 394.137 896.835C396.139 881.42 393.996 876.742 399.408 862.836C403.635 851.976 416.097 836.843 434.546 827.98C467.248 812.266 494.062 832.793 517.266 846.805C521.616 849.435 522.326 851.002 522.843 849.235C523.019 848.636 523.928 816.322 523.553 816.322L523.559 816.34Z" fill="#F2EDE9"/>
<path d="M403.9 548.872C409.455 549.83 411.562 553.426 412.148 553.62L412.142 553.625C413.351 553.003 411.679 552.151 437.198 510.117L437.199 510.114C472.738 451.57 532.216 353.59 532.216 234.705C532.216 234.646 532.245 234.528 532.245 234.528C532.351 233.482 534.721 199.962 523.058 158.722C504.896 94.4955 461.391 45.8398 397.511 27.6255C399.729 29.6819 402.973 31.6326 407.467 36.0981C434.57 63.02 455.976 84.2838 472.572 140.695C485.59 184.927 486.317 248.171 481.477 288.214C471.88 367.716 456.774 413.875 425.958 492.99C404.111 549.078 403.501 547.815 403.196 548.731C403.36 548.778 403.654 548.831 403.9 548.872Z" fill="#CCE4FF"/>
<path d="M190.062 459.559C146.889 392.811 96.0074 284.691 94.6926 199.67C93.4246 117.408 120.133 91.8149 122.822 81.924C108.246 84.6535 30.328 167.708 54.9292 286.969L54.9644 287.109C62.6328 324.18 78.4163 359.856 106.139 402.778C146.812 465.751 260.268 577.158 266.983 577.205C268.015 575.558 269.471 574.45 270.881 573.377L270.933 573.337L270.984 573.298C271.342 573.029 273.009 571.773 273.058 571.547C273.053 571.392 272.598 570.861 272.314 570.529L272.26 570.466C249.455 544.192 201.679 477.515 190.062 459.559Z" fill="#CCE4FF"/>
</svg>
