<svg width="325" height="217" viewBox="0 0 325 217" fill="none" xmlns="http://www.w3.org/2000/svg">
<path fill-rule="evenodd" clip-rule="evenodd" d="M333.957 14.3211C340.754 14.4705 347.427 16.1763 353.462 19.3072C372.61 28.7347 383.567 48.1134 389.223 68.7911C379.649 41.996 361.213 23.4972 332.658 23.4134C332.344 23.4134 332.344 23.8743 332.658 23.8743C341.075 23.9126 349.37 25.8913 356.897 29.6565C339.697 33.4694 341.038 47.9249 353.462 58.9865C364.083 68.393 371.667 67.0313 382.645 75.2856C389.077 80.1041 391.213 84.7759 393.539 87.9813C393.539 87.9813 394.419 88.4422 394.586 87.7089C394.754 86.9757 395.278 83.9379 395.424 83.0161C398.462 64.3706 403.804 17.9664 385.725 12.1842C379.44 10.0892 374.747 10.7177 371.29 12.3518C369.121 13.513 367.211 15.1038 365.676 17.0271C364.142 18.9505 363.016 21.1662 362.365 23.5391C362.365 23.8324 362.763 23.9581 362.826 23.6438C363.483 21.3612 364.598 19.2364 366.104 17.3994C367.61 15.5623 369.474 14.0515 371.583 12.9593C376.03 11.1564 381.005 11.1564 385.452 12.9593C402.862 18.7625 397.058 67.0103 393.832 85.1111C389.642 58.1066 378.518 30.4526 353.776 18.6577C347.597 15.5368 340.775 13.9012 333.852 13.8811C333.818 13.8825 333.785 13.8914 333.755 13.9071C333.725 13.9228 333.698 13.9451 333.678 13.9722C333.657 13.9993 333.643 14.0306 333.636 14.0639C333.629 14.0972 333.629 14.1317 333.637 14.1648C333.645 14.1979 333.66 14.2288 333.682 14.2554C333.703 14.282 333.73 14.3035 333.76 14.3185C333.791 14.3334 333.824 14.3414 333.858 14.3418C333.892 14.3423 333.926 14.3352 333.957 14.3211ZM368.127 66.4028C346.15 58.2951 334.355 35.3758 357.086 30.1593C357.306 30.1075 357.536 30.1075 357.756 30.1593C377.051 40.5086 387.715 62.5061 392.282 84.0217C387.61 76.9197 381.493 71.3679 368.127 66.4028ZM136.21 301.986C137.793 298.136 137.993 293.857 136.776 289.876C136.195 288.518 135.273 287.332 134.098 286.437C132.923 285.541 131.536 284.965 130.072 284.765C118.151 282.313 117.355 297.083 116.412 298.298C111.51 303.473 110.127 308.941 114.82 314.325C114.954 314.464 115.08 314.611 115.197 314.765C113.971 317.082 113.616 319.761 114.196 322.317C114.776 324.874 116.254 327.137 118.361 328.697C118.361 328.948 118.57 329.241 118.759 329.409C119.896 330.35 121.205 331.061 122.613 331.504C122.742 335.745 122.546 339.989 122.027 344.2C121.986 344.592 122.024 344.988 122.136 345.366C122.249 345.744 122.436 346.095 122.685 346.401C122.934 346.707 123.241 346.96 123.588 347.147C123.935 347.333 124.316 347.45 124.708 347.489C125.503 347.565 126.295 347.323 126.911 346.817C127.527 346.31 127.918 345.58 127.998 344.786C128.33 340.603 128.33 336.4 127.998 332.216C133.675 331.651 138.473 326.497 135.372 320.987C138.054 319.94 139.876 316.064 140.819 313.32C141.254 312.244 141.465 311.091 141.439 309.931C141.414 308.772 141.153 307.629 140.672 306.574C139.649 304.653 138.102 303.062 136.21 301.986ZM139.688 312.838C138.892 315.205 136.943 319.625 134.492 320.044C134.388 320.039 134.285 320.067 134.197 320.123C134.109 320.179 134.041 320.261 134.002 320.358C133.963 320.455 133.955 320.561 133.979 320.663C134.003 320.764 134.058 320.855 134.136 320.924C134.655 321.617 135.02 322.413 135.204 323.259C135.388 324.105 135.388 324.981 135.204 325.827C134.629 327.355 133.634 328.689 132.332 329.675C131.031 330.661 129.478 331.259 127.851 331.399C126.992 322.181 125.232 315.813 126.049 307.914C126.104 307.603 126.034 307.283 125.853 307.024C125.672 306.765 125.396 306.588 125.086 306.532C124.772 306.483 124.452 306.559 124.194 306.743C123.935 306.927 123.759 307.204 123.703 307.516C121.734 315.498 122.404 322.831 122.592 330.834C121.692 330.561 119.01 329.535 118.863 328.592C118.863 328.215 111.698 323.396 115.972 315.037C116.015 314.964 116.037 314.881 116.037 314.796C116.037 314.712 116.015 314.629 115.972 314.556C115.7 313.906 112.264 311.162 112.872 306.595C113.469 303.695 114.929 301.044 117.062 298.99C118.423 297.439 118.821 283.654 129.632 285.896C136.671 287.362 137.32 294.045 135.162 300.833C134.702 302.3 134.345 302.3 135.498 303.054C137.098 303.991 138.421 305.335 139.332 306.951C139.788 307.856 140.055 308.845 140.116 309.857C140.177 310.87 140.032 311.884 139.688 312.838ZM188.815 324.025C186.72 324.612 178.34 327.398 176.832 327.796C176.539 327.796 176.455 327.901 176.413 328.11C176.371 328.32 175.952 332.887 175.973 333.096C175.973 333.662 176.56 333.473 176.916 333.369L189.172 329.283C189.286 329.245 189.386 329.171 189.457 329.074C189.528 328.977 189.567 328.859 189.57 328.739V324.549C189.57 324.549 189.444 323.836 188.815 324.025ZM188.417 328.215L176.811 332.405V328.215C178.655 328.026 186.595 325.722 188.396 325.177L188.417 328.215ZM233.334 58.6722C233.565 58.6722 236.204 58.2742 236.414 58.1694C240.604 58.4418 244.459 57.5409 243.579 53.2881C242.552 48.3439 236.791 48.1972 232.014 49.7685C231.323 45.7251 227.049 42.855 223.257 41.3885C221 40.3996 218.454 40.2968 216.125 41.1004C213.796 41.9039 211.854 43.5551 210.687 45.7251C205.303 26.8701 192.23 28.2738 186.972 39.2516C184.877 43.9025 184.5 49.4752 186.972 52.8481C194.451 62.6108 221.12 60.3901 233.334 58.6722ZM197.74 32.2543C199.083 32.3252 200.394 32.6926 201.579 33.3301C202.763 33.9676 203.792 34.8594 204.591 35.9415C207.093 39.2987 208.876 43.1355 209.828 47.2126C209.872 47.3215 209.947 47.4148 210.044 47.4806C210.141 47.5463 210.256 47.5815 210.373 47.5815C210.49 47.5815 210.605 47.5463 210.702 47.4806C210.799 47.4148 210.874 47.3215 210.918 47.2126C211.959 45.0186 213.688 43.224 215.841 42.1008C216.945 41.608 218.141 41.3533 219.35 41.3533C220.559 41.3533 221.755 41.608 222.859 42.1008C226.463 43.5044 230.883 46.2908 231.239 50.0827C231.239 50.7322 231.91 50.5227 232.58 50.3132C236.77 48.9305 241.987 48.8676 243.055 53.2252C243.872 56.8286 240.604 57.6876 236.938 57.4152C235.345 57.4152 236.204 57.4152 234.046 57.7504C221.476 59.4055 194.912 60.9558 187.956 51.8006C183.306 46.0813 189.025 32.2543 197.74 32.2543ZM170.338 328.32C168.038 328.135 165.73 328.079 163.424 328.152C163.256 328.152 163.194 328.32 163.194 328.383C162.879 330.059 162.356 336.427 162.356 336.469C162.35 336.535 162.357 336.602 162.377 336.665C162.397 336.728 162.43 336.787 162.473 336.838C162.516 336.888 162.568 336.93 162.627 336.96C162.686 336.99 162.75 337.009 162.816 337.014L169.709 337.915C169.788 337.923 169.867 337.916 169.943 337.893C170.019 337.87 170.089 337.832 170.15 337.781C170.211 337.73 170.261 337.668 170.296 337.597C170.332 337.526 170.353 337.449 170.358 337.37L170.819 328.864C170.825 328.729 170.778 328.596 170.688 328.495C170.599 328.393 170.473 328.33 170.338 328.32ZM169.227 336.7L163.424 336.029L163.654 328.592C164.828 328.592 168.578 329.137 169.73 329.283L169.227 336.7ZM99.4008 109.392C95.6927 109.602 95.5041 114.944 95.7555 118.589C95.7555 118.778 95.7555 119.155 96.0069 119.176C96.2583 119.197 97.8505 119.176 103.36 119.448C103.926 119.448 103.968 118.82 104.01 118.296C104.324 114.42 103.36 109.183 99.4008 109.392ZM180.037 119.448C180.603 119.448 180.645 118.82 180.687 118.296C181.001 114.42 180.037 109.183 176.078 109.392C172.118 109.602 172.265 114.944 172.433 118.589C172.474 119.448 172.37 119.155 180.037 119.448ZM161.79 119.448C162.356 119.448 162.397 118.82 162.439 118.296C162.754 114.42 161.79 109.183 157.83 109.392C153.871 109.602 153.934 115.174 154.164 118.799C154.143 119.364 154.017 119.155 161.79 119.448ZM123.284 72.8973H123.514C123.347 72.8973 123.347 73.0858 123.389 73.1906C123.43 73.2953 123.179 73.3163 130.868 73.6096C131.433 73.6096 131.475 72.9601 131.517 72.4573C131.831 68.5816 130.868 63.3231 126.908 63.5536C122.949 63.784 123.011 69.1053 123.263 72.7506C123.263 72.7506 123.284 72.8344 123.284 72.8973ZM122.32 118.296C122.634 114.42 121.671 109.183 117.711 109.392C113.752 109.602 113.814 114.944 114.066 118.589C114.066 118.862 114.066 119.155 114.401 119.197C114.736 119.239 116.496 119.197 121.671 119.448C122.236 119.469 122.278 118.82 122.32 118.296Z" fill="#072924"/>
<path fill-rule="evenodd" clip-rule="evenodd" d="M195.436 319.27C192.858 315.533 189.638 312.284 185.924 309.674C184.793 308.816 162.565 310.806 161.266 310.952C159.967 311.099 145.449 321.134 145.03 321.574C144.995 321.594 144.966 321.623 144.946 321.658C144.926 321.693 144.916 321.733 144.916 321.773C144.916 321.813 144.926 321.853 144.946 321.888C144.966 321.923 144.995 321.952 145.03 321.972C145.952 322.203 147.292 322.517 148.906 322.789C148.906 322.957 147.565 339.884 148.298 342.629C148.445 343.153 148.738 343.341 148.948 343.362C151.86 343.886 152.949 344.326 168.242 346.651C170.819 347.049 171.741 346.882 172.789 347.049C173.187 347.049 190.135 338.46 191.015 337.203C191.204 336.951 191.015 337.203 191.162 334.94C191.308 332.678 191.581 324.968 191.392 321.637C192.838 321.197 196.294 320.359 195.436 319.27ZM145.763 321.742C147.858 320.338 160.009 312.419 161.329 312.042C164.031 313.152 173.501 322.517 175.68 324.612C172.516 324.444 151.022 322.726 145.763 321.637V321.742ZM190.051 336.7C188.92 337.538 181.671 341.33 173.836 345.855C173.836 345.122 174.569 327 174.569 326.686C174.569 326.372 174.171 326.413 174.108 326.686C174.046 326.958 172.789 345.122 172.705 345.939C167.369 345.479 162.061 344.737 156.804 343.718C157.097 341.77 157.809 335.778 157.809 333.955C157.809 332.133 152.425 331.358 151.797 332.719C151.456 336.06 151.386 339.423 151.587 342.775L149.492 342.398C148.864 339.298 149.492 326.141 149.492 322.957C155.128 323.941 172.956 326.078 176.601 325.764C176.77 325.777 176.936 325.725 177.068 325.62C177.2 325.516 177.288 325.365 177.314 325.198C181.943 324.445 186.509 323.346 190.973 321.909C190.91 324.004 190.072 336.03 190.051 336.595V336.7ZM177.146 324.633C176.057 322.705 165.309 313.257 162.481 311.455C176.937 310.89 184.039 310.533 185.275 310.659C188.871 313.191 192.1 316.209 194.87 319.626C193.864 320.128 183.452 322.559 177.146 324.528V324.633ZM391.569 206.412C389.392 204.813 386.909 203.679 384.274 203.08C381.639 202.482 378.91 202.432 376.255 202.934C373.865 203.571 371.695 204.851 369.981 206.635C368.267 208.419 367.075 210.639 366.534 213.053C364.631 210.477 361.839 208.7 358.7 208.065C355.561 207.43 352.298 207.983 349.544 209.617C344.914 212.027 340.305 215.902 339.655 221.056C336.429 216.342 331.569 213.472 326.038 215.085C322.078 216.237 317.344 218.793 315.437 222.397C315.338 222.553 315.261 222.723 315.207 222.9C313.957 224.744 313.387 226.966 313.594 229.185C313.813 230.297 314.314 231.335 315.047 232.2C315.78 233.066 316.722 233.729 317.784 234.129C325.703 237.795 377.931 239.68 386.73 234.611C398.755 227.76 400.285 212.425 391.569 206.412ZM315.479 222.753H315.332C315.332 222.753 315.437 222.732 315.479 222.753ZM386.269 233.647C378.078 238.382 325.807 237.02 318.14 233.647C310.954 230.421 315.374 223.821 315.668 223.046C317.385 219.527 322.267 216.929 326.143 215.839C327.452 215.452 328.829 215.346 330.182 215.526C331.536 215.707 332.836 216.17 333.999 216.887C336.33 218.355 338.254 220.386 339.592 222.795C339.631 222.877 339.695 222.945 339.775 222.988C339.856 223.031 339.948 223.047 340.038 223.032C340.128 223.018 340.211 222.975 340.274 222.91C340.337 222.844 340.378 222.76 340.389 222.669C340.389 222.083 339.928 215.714 349.921 210.644C351.841 209.527 354.033 208.967 356.253 209.027C358.474 209.086 360.633 209.762 362.491 210.979C363.97 211.906 365.194 213.188 366.052 214.708C366.024 214.834 366.04 214.967 366.098 215.083C366.156 215.198 366.251 215.291 366.369 215.345C366.487 215.399 366.619 215.411 366.745 215.379C366.87 215.347 366.981 215.273 367.058 215.169C367.351 214.792 368.483 206.161 376.464 204.191C378.959 203.729 381.522 203.785 383.994 204.354C386.466 204.923 388.795 205.995 390.836 207.501C398.902 212.865 397.414 227.194 386.269 233.647ZM141.594 72.8976H141.825C141.657 72.8976 141.657 73.0861 141.699 73.1909C141.741 73.2956 141.489 73.3166 149.178 73.6099C149.744 73.6099 149.786 72.9604 149.827 72.4576C150.142 68.5818 149.178 63.3234 145.218 63.5538C141.259 63.7843 141.322 69.1056 141.573 72.7509C141.573 72.7509 141.594 72.8347 141.594 72.8976Z" fill="#072924"/>
<path fill-rule="evenodd" clip-rule="evenodd" d="M327.295 185.609C322.635 186.943 317.879 187.916 313.07 188.521C304.501 189.233 290.025 190.385 281.456 189.715C273.886 189.175 266.527 186.98 259.899 183.283C261.566 177.65 264.195 172.348 267.671 167.613C277.902 166.341 287.985 164.075 297.776 160.846C297.835 160.826 297.883 160.785 297.91 160.73C297.938 160.675 297.942 160.611 297.923 160.553C297.904 160.494 297.862 160.446 297.807 160.418C297.752 160.391 297.688 160.386 297.63 160.406C288.629 163.206 279.405 165.231 270.06 166.46C263.866 167.333 257.588 167.424 251.372 166.733C233.271 164.303 208.383 143.688 206.099 138.01C204.13 133.171 207.545 129.63 211.798 126.509C216.05 123.387 238.697 135.329 248.628 134.051C258.558 132.773 291.261 119.386 292.036 119.386C292.066 119.386 292.096 119.38 292.124 119.368C292.152 119.357 292.178 119.34 292.199 119.318C292.22 119.297 292.237 119.272 292.249 119.244C292.261 119.216 292.267 119.186 292.267 119.155C292.267 119.125 292.261 119.095 292.249 119.067C292.237 119.039 292.22 119.014 292.199 118.992C292.178 118.971 292.152 118.954 292.124 118.942C292.096 118.931 292.066 118.925 292.036 118.925C290.863 119.176 258.872 131.893 248.607 133.129C240.017 134.197 221.372 124.581 213.725 124.959C215.192 123.241 220.513 117.249 219.361 115.301C229.06 104.365 231.721 99.6509 238.048 91.8994C237.922 98.0587 250.241 104.847 247.182 96.0894C247.967 96.8883 248.908 97.516 249.948 97.933C251.498 98.4568 252.964 97.5769 252.043 95.5447C251.781 94.989 251.472 94.4564 251.121 93.9525C252.42 94.4134 253.74 93.9525 253.76 92.507C253.76 90.3072 250.408 86.3477 249.424 84.965C250.744 83.289 255.248 77.9258 254.138 76.2079C253.886 75.8308 253.928 76.7526 257.636 69.9229C271.484 44.3848 272.301 18.5116 271.379 17.8621C271.337 17.8358 271.288 17.8227 271.238 17.8244C271.188 17.8261 271.14 17.8427 271.1 17.8718C271.059 17.901 271.028 17.9416 271.011 17.9884C270.994 18.0351 270.991 18.086 271.002 18.1345C271.06 18.5164 271.06 18.9048 271.002 19.2867C270.585 25.413 269.667 31.4948 268.258 37.4713C265.128 50.8267 260.105 63.6662 253.341 75.6003C250.178 74.1548 226.944 103.967 226.735 104.176C224.933 100.719 220.45 99.9861 216.658 100.363C214.159 100.545 211.708 101.147 209.409 102.144C207.379 100.433 204.815 99.4846 202.161 99.4624C200.887 99.5699 199.657 99.9723 198.566 100.638C197.475 101.303 196.554 102.213 195.876 103.296C195.876 102.772 196.818 90.9776 196.839 90.7262C206.581 90.7262 206.518 90.7262 206.707 90.0558C207 89.134 206.707 83.0166 206.707 80.6283C206.707 78.24 203.271 77.9258 200.925 78.659C200.087 78.9314 199.668 79.2247 199.5 80.0627C199.332 80.9007 199.5 81.7806 199.374 82.43C198.031 82.7121 196.641 82.6834 195.31 82.3462C194.975 81.4454 195.938 79.1409 194.493 78.3029C192.669 77.6744 190.742 77.4041 188.815 77.5068C186.72 77.6744 186.071 78.5333 185.903 80.335V82.8281C184.583 82.9384 183.254 82.8395 181.965 82.5348C181.818 81.4873 182.426 77.4649 180.456 77.3601C178.487 77.2554 174.444 76.2498 173.752 78.7638C173.229 80.6493 173.438 95.859 173.48 97.8492C172.831 97.8492 172.014 97.8492 171.385 97.9749L172.16 56.1797C173.271 54.8598 176.057 51.7383 177.167 50.607C178.969 48.8053 178.571 43.9658 177.796 41.5147C176.706 38.0789 163.529 38.5398 160.344 39.1892C157.16 39.8387 160.344 45.7885 158.878 48.7843C157.558 51.445 149.157 49.329 145.952 49.3709C143.207 49.3709 144.925 43.463 143.459 40.9909C142.265 39.0007 137.425 39.0216 135.079 39.0635C135.079 37.7227 134.953 27.4782 134.911 25.4251C141.971 20.5437 148.424 15.9766 149.576 15.3481C150.33 15.2015 150.016 14.2168 149.45 14.2587C147.753 13.5883 135.686 5.87871 134.178 4.99881C134.087 4.94105 133.982 4.90936 133.875 4.9072C133.767 4.90504 133.661 4.9325 133.568 4.98656C133.475 5.04063 133.399 5.11923 133.347 5.21376C133.296 5.3083 133.272 5.41512 133.277 5.52256C133.277 5.52256 134.136 37.7437 134.199 39.0426C132.104 39.0426 130.512 39.273 129.087 39.3987C124.352 39.7758 127.327 46.5846 126.992 49.6852C126.699 52.1992 121.734 50.3556 116.014 49.9575C113.039 49.748 112.18 48.4491 112.222 45.7675C112.264 43.0859 112.683 42.1432 111.363 41.5775C108.849 40.3624 100.134 41.4309 97.3478 41.8289C97.2322 41.851 97.1269 41.9098 97.0476 41.9967C96.9683 42.0835 96.9193 42.1937 96.9078 42.3108C96.9078 42.1013 96.4259 47.1921 96.2793 51.1936C96.1327 55.195 102.124 56.1168 102.376 58.9241C102.627 61.7314 102.376 94.7905 102.376 97.5769H97.4734C97.8086 94.9581 99.4218 81.7596 98.102 79.5389C97.2654 78.5781 96.1754 77.8721 94.9565 77.5016C93.7376 77.1311 92.4391 77.1111 91.2094 77.4439C90.3505 77.7791 90.141 78.3657 90.0781 79.3923C90.1703 80.5741 90.121 81.7627 89.9314 82.9328C88.9887 83.3518 85.93 83.7289 85.7415 82.9328C85.5529 81.4454 87.0194 77.0668 85.0711 76.6478C83.1227 76.2288 78.0109 75.307 77.3824 77.4439C76.9215 79.0571 77.6129 82.6395 77.131 83.4356C75.2814 83.7344 73.4001 83.7837 71.5373 83.5823C71.7468 82.3881 71.8307 76.6688 70.2384 76.4593C69.2957 76.3336 64.5401 74.5947 63.8278 76.8364C63.1155 79.078 62.1937 87.6466 63.8278 90.4539C63.9546 90.7006 64.1322 90.9177 64.3488 91.091C64.5654 91.2643 64.8162 91.3898 65.0848 91.4595C69.0819 92.059 73.1117 92.4158 77.1519 92.5279C77.2776 101.976 78.3251 125.901 76.8587 145.552C73.5919 144.656 70.1046 145.07 67.1379 146.705C62.2984 148.988 57.3123 152.801 56.3905 158.039C55.1983 155.748 53.2649 153.929 50.9058 152.879C48.5468 151.829 45.9014 151.609 43.4015 152.256C35.5872 154.205 30.8315 158.981 29.7002 162.627C28.1499 162.627 4.79065 162.354 2.4652 161.831C1.82009 160.396 1.50232 158.836 1.53493 157.263C1.56754 155.69 1.94972 154.145 2.65375 152.738C5.03858 148.569 8.71539 145.289 13.1288 143.395C13.262 143.401 13.3936 143.364 13.5034 143.288C13.6132 143.212 13.6951 143.102 13.7363 142.976C16.4656 136.899 21.2818 132.001 27.3119 129.169C33.426 126.51 40.2273 125.865 46.7326 127.326C46.8307 127.36 46.937 127.365 47.0377 127.339C47.1385 127.313 47.2292 127.257 47.2982 127.179C55.3011 118.275 65.2104 116.704 75.0779 124.498C75.4341 124.791 75.6226 124.498 75.3083 124.1C74.9584 123.756 74.5876 123.434 74.198 123.136C70.3436 120.034 65.4786 118.467 60.5386 118.736C55.1643 119.4 50.2399 122.072 46.7535 126.216C40.0771 124.771 33.1169 125.429 26.8301 128.101C20.6084 131.009 15.6251 136.037 12.7726 142.284C8.91863 143.987 5.55436 146.631 2.98895 149.973C1.63337 151.715 0.789854 153.8 0.553025 155.994C0.316196 158.188 0.695416 160.405 1.64815 162.396L1.89955 162.648C3.78505 163.486 29.2393 163.318 29.5117 163.381C28.8203 166 29.7212 168.618 33.4503 170.525C41.2437 174.547 93.1578 176.663 103.13 173.332C107.76 171.803 111.51 167.047 113.333 161.851C144.653 162.92 186.658 163.486 191.267 163.381C188.344 171.104 185.937 179.013 184.06 187.054C182.321 187.641 167.719 198.284 165.708 206.936C151.739 202.142 136.597 201.981 122.53 206.475C122.597 206.024 122.632 205.569 122.634 205.113C122.844 197.11 120.539 187.096 113.773 182.676C102.795 175.574 84.2121 178.13 70.6993 195.246C58.8207 210.435 51.6349 239.387 49.4142 258.284C49.3963 258.437 49.4389 258.59 49.5329 258.712C49.6269 258.833 49.7648 258.913 49.917 258.934C65.0148 260.917 80.2916 261.142 95.4413 259.604C106.503 258.221 117.083 255.247 123.912 249.527C131.203 243.41 133.214 237.125 132.774 231.531C132.125 222.963 125.693 216.07 123.724 214.164C136.269 212.617 148.966 215.42 159.695 222.104C157.432 226.692 150.749 243.054 150.309 250.177C150.089 251.472 150.382 252.802 151.126 253.885C150.477 254.828 148.403 257.781 147.334 258.075C145.784 258.557 129.38 259.018 128.06 262.139C127.641 263.145 128.584 263.92 129.527 264.444C136.44 268.236 146.287 268.738 152.698 269.325C155.798 269.597 158.815 262.286 159.946 259.332C160.51 259.289 161.058 259.132 161.56 258.871C163.34 257.907 172.035 250.26 177.272 245.631C178.425 244.644 179.682 243.787 181.022 243.075C181.63 246.908 182.405 250.784 183.389 254.66C189.674 279.088 198.452 297.985 210.373 311.057C206.874 316.337 203.732 324.046 204.088 330.478C204.148 332.89 204.788 335.252 205.955 337.364C207.122 339.475 208.781 341.274 210.792 342.608C214.604 344.915 217.706 348.227 219.759 352.182C220.437 353.429 220.792 354.827 220.792 356.246C220.792 357.666 220.437 359.064 219.759 360.311C219.674 360.411 219.625 360.537 219.62 360.668C219.615 360.8 219.654 360.929 219.732 361.035C219.809 361.141 219.92 361.219 220.046 361.254C220.173 361.29 220.307 361.283 220.429 361.233C220.732 361.14 221.027 361.021 221.309 360.876C222.598 360.242 223.735 359.337 224.642 358.224C225.549 357.11 226.206 355.814 226.567 354.424C227.259 351.386 226.567 347.217 221.896 341.749C218.313 337.559 217.224 333.914 217.412 331.002C217.64 329.156 218.299 327.39 219.336 325.847C220.374 324.304 221.76 323.027 223.383 322.119C239.661 332.783 260.464 335.59 286.778 330.08C313.866 324.361 320.444 307.035 316.338 290.547C315.568 287.529 314.48 284.6 313.091 281.811C319.967 277.688 327.415 274.603 335.193 272.656C334.454 273.31 333.879 274.128 333.515 275.046C333.151 275.963 333.008 276.953 333.098 277.935C334.292 283.864 348.329 285.603 354.341 286.127C364.206 287.082 373.383 291.604 380.152 298.844C381.555 300.331 381.409 300.457 381.828 300.457C381.828 300.457 382.393 300.268 382.414 299.891C382.414 300.101 388.364 263.249 366.157 253.11C358.846 249.779 353.587 249.841 349.649 251.413C342.002 254.555 340.137 263.71 339.991 264.59C329.076 264.779 318.098 268.906 308.566 274.521C300.667 263.752 288.517 256.126 276.428 257.258C260.36 258.745 249.298 263.375 249.298 264.36C249.296 264.413 249.312 264.466 249.345 264.508C249.377 264.551 249.423 264.581 249.475 264.593C249.527 264.605 249.582 264.599 249.63 264.576C249.678 264.553 249.716 264.513 249.738 264.465C250.085 264.234 250.449 264.031 250.827 263.857C257.804 260.442 268.782 258.578 276.47 257.907C309.068 255.079 341.981 317.405 286.463 328.949C228.83 341.058 199.5 312.377 184.479 254.43C173.794 213.137 187.663 165.706 204.717 137.382C205.198 139.707 206.393 140.755 208.529 143.017C218.106 152.628 229.501 160.234 242.049 165.392C233.696 172.972 226.584 181.815 220.974 191.6C203.564 222.02 202.391 258.305 223.362 295.806C225.356 299.517 227.707 303.025 230.38 306.281C229.192 307.52 228.113 308.858 227.154 310.282C225.562 312.859 226.567 314.053 229.019 313.655C231.718 313.162 234.339 312.309 236.812 311.12C245.838 314.844 255.52 316.717 265.283 316.63C285.269 315.897 295.975 303.557 295.22 293.355C294.32 281.434 272.699 262.537 250.618 282.293C250.571 282.335 250.542 282.393 250.538 282.456C250.534 282.519 250.555 282.581 250.597 282.628C250.639 282.675 250.697 282.704 250.76 282.708C250.823 282.712 250.885 282.691 250.932 282.649C272.783 263.794 293.251 282.503 294.047 293.438C294.76 302.803 284.808 314.661 265.241 315.604C255.741 315.824 246.287 314.209 237.398 310.848C241.86 308.616 246.153 306.061 250.241 303.201C252.881 301.483 250.681 293.795 249.759 290.778C250.555 282.649 248.795 260.254 248.083 252.188C249.989 250.679 272.762 232.872 288.915 224.785C304.69 216.887 313.3 192.69 314.285 189.589C318.224 188.982 321.555 188.332 323.922 187.788C327.588 186.95 328.259 186.74 328.384 186.279C336.345 170.336 326.436 115.678 323.587 109.749C323.205 108.838 322.486 108.111 321.579 107.721C320.673 107.33 319.65 107.306 318.726 107.654C320.381 103.59 322.204 98.1006 323.398 93.9525C327.588 95.3981 331.317 92.1508 333.14 88.3379C339.865 87.479 341.143 81.2778 340.221 74.5319C343.238 70.0695 342.693 66.5918 340.912 64.0569C338.753 61.3007 335.633 59.4603 332.176 58.9032C332.828 56.5172 332.741 53.9895 331.925 51.6545C330.647 48.8681 327.902 48.1558 324.844 48.3444C330.877 34.1403 333.37 16.2909 334.271 0.955463C334.256 0.903577 334.224 0.85807 334.181 0.825713C334.137 0.793355 334.085 0.775876 334.03 0.775876C333.976 0.775876 333.924 0.793355 333.88 0.825713C333.837 0.85807 333.805 0.903577 333.789 0.955463C333.999 -2.73174 331.925 27.2896 323.314 48.512C322.712 48.6225 322.142 48.8685 321.649 49.2314C321.155 49.5944 320.75 50.0647 320.465 50.607C319.145 45.5999 315.186 43.2326 309.99 43.2535C308.606 43.1618 307.217 43.3461 305.904 43.7956C304.591 44.2452 303.381 44.9511 302.343 45.8723C301.468 46.7722 300.782 47.8382 300.325 49.0076C299.868 50.177 299.65 51.426 299.683 52.681C292.623 50.7746 290.549 59.1965 292.811 65.9843C292.954 66.5781 293.275 67.1138 293.732 67.5186C294.19 67.9234 294.76 68.1777 295.367 68.2469C291.051 82.2205 290.549 100.887 305.402 99.3367C302.909 103.212 298.573 111.027 297.022 113.813C295.577 113.813 293.482 113.666 293.482 112.221C293.466 112.169 293.434 112.124 293.391 112.091C293.348 112.059 293.295 112.041 293.241 112.041C293.187 112.041 293.134 112.059 293.09 112.091C293.047 112.124 293.015 112.169 293 112.221C293 115.363 300.06 114.316 303.161 113.75C306.598 113.039 309.949 111.957 313.154 110.524C315.274 109.716 317.435 109.017 319.627 108.429C320.259 108.301 320.915 108.397 321.484 108.698C322.053 109 322.5 109.49 322.749 110.084C325.305 115.426 334.858 170.064 327.295 185.609ZM297.755 113.792C300.793 108.785 305.905 100.279 307.015 98.9386C307.082 98.8497 307.121 98.7431 307.128 98.6321C307.134 98.5211 307.108 98.4107 307.052 98.3146C306.996 98.2185 306.913 98.1409 306.814 98.0917C306.714 98.0425 306.602 98.0237 306.492 98.0378C294.613 100.133 292.853 89.2597 294.299 77.3392C294.667 74.2733 295.241 71.2357 296.017 68.2469C299.285 68.2469 303.747 64.5387 305.277 63.6169C309.299 70.3209 320.151 70.719 320.486 70.9285C321.081 71.3699 321.575 71.9324 321.936 72.5788C322.297 73.2252 322.517 73.9409 322.581 74.6785C322.859 76.9675 322.724 79.2877 322.183 81.5292C322.183 81.5292 322.372 82.011 322.707 81.7806C323.076 81.4335 323.523 81.1813 324.011 81.0458C324.499 80.9103 325.013 80.8956 325.507 81.0028C326.002 81.11 326.464 81.336 326.852 81.6613C327.24 81.9866 327.543 82.4014 327.735 82.87C328.077 83.2861 328.264 83.8082 328.264 84.3469C328.264 84.8857 328.077 85.4078 327.735 85.8239C327.097 86.3826 326.344 86.7942 325.53 87.0296C324.715 87.2649 323.859 87.3182 323.021 87.1857C322.849 87.137 322.669 87.1249 322.492 87.1502C322.316 87.1754 322.146 87.2375 321.995 87.3323C320.696 88.1494 321.366 91.25 321.492 92.7793C321.5 92.8496 321.526 92.9168 321.566 92.9751C321.606 93.0335 321.66 93.0813 321.722 93.1145L322.456 93.5545C321.953 94.9581 318.098 106.858 317.826 107.905C313.112 109.204 306.785 113.457 297.818 113.792H297.755ZM221.707 291.113C224.203 287.398 227.059 283.939 230.234 280.785C231.704 285.003 233.629 289.049 235.974 292.852C236.919 293.988 238.107 294.898 239.452 295.512C239.284 298.781 238.844 297.084 230.674 305.841C227.165 301.279 224.178 296.339 221.77 291.113H221.707ZM248.942 293.795C249.227 293.264 249.425 292.691 249.529 292.098C250.031 294.193 251.624 301.127 249.654 302.279C243.809 305.883 235.974 311.225 228.704 312.419C228.379 312.478 228.045 312.478 227.72 312.419C225.101 312.042 238.886 299.095 239.619 297.943C239.937 297.246 240.095 296.487 240.08 295.722C241.584 296.364 243.251 296.524 244.849 296.179C246.448 295.833 247.9 295 249.005 293.795H248.942ZM253.97 193.989L227.28 224.66C224.412 229.126 222.164 233.96 220.597 239.031C218.502 248.165 226.421 271.001 229.877 279.863C226.351 282.741 223.492 286.351 221.497 290.443C211.295 269.22 206.288 247.097 210.478 223.633C212.133 223.507 220.45 222.858 226.567 222.46C227.007 221.936 253.802 193.675 253.802 193.675C253.819 193.634 253.847 193.599 253.883 193.574C253.918 193.549 253.96 193.535 254.004 193.533C254.048 193.531 254.091 193.541 254.129 193.562C254.167 193.584 254.198 193.616 254.219 193.654C254.239 193.693 254.248 193.736 254.245 193.78C254.242 193.824 254.226 193.865 254.2 193.9C254.174 193.935 254.139 193.962 254.098 193.978C254.057 193.994 254.013 193.997 253.97 193.989ZM267.022 167.676C265.869 169.167 264.819 170.735 263.879 172.368L230.611 178.653C234.146 173.903 238.139 169.51 242.531 165.539C248.397 167.655 254.745 168.974 267.085 167.676H267.022ZM238.551 91.1452C238.739 90.9357 249.529 76.8154 252.943 76.6897C253.3 76.6897 253.362 76.6897 253.237 77.1716C252.063 79.6596 250.539 81.9666 248.712 84.0222C248.041 84.8602 247.999 84.8812 248.712 85.803C249.982 87.366 251.117 89.034 252.105 90.7891C253.991 94.5391 250.492 92.8841 247.475 89.553C246.805 88.8407 246.386 90.0768 246.512 90.2653C246.637 90.4539 246.512 90.2653 246.679 90.412C248.449 92.1197 249.953 94.0829 251.142 96.2361C251.142 96.4456 251.288 96.7598 251.142 96.8436C249.738 97.4721 246.365 93.7011 245.527 92.507L245.401 92.3394C245.066 92.088 244.103 92.1927 244.626 93.0517C245.716 94.7297 246.431 96.6235 246.721 98.6034C246.721 99.6509 245.82 99.5252 244.836 99.1691C241.903 98.0797 238.027 94.4134 238.551 91.1452ZM212.74 124.959C212.188 125.055 211.661 125.262 211.19 125.566C208.184 127.35 205.878 130.107 204.654 133.38C201.155 127.975 206.351 123.408 212.133 120.454C213.733 118.847 215.464 117.376 217.307 116.055C217.538 115.929 218.25 115.552 218.355 115.782C218.921 117.165 213.662 123.806 212.74 124.959ZM148.152 14.8663L134.785 23.8748C134.785 23.1625 134.387 8.20416 134.345 6.50721C136.922 8.16226 145.428 13.3998 148.152 14.8663ZM97.5573 52.8277C97.0126 51.9687 96.9078 51.7592 97.7667 42.7717C99.736 42.4993 108.598 41.5147 111.007 42.7717C111.384 44.8667 109.247 50.6489 115.784 51.1517C119.974 51.445 123.766 52.5344 125.945 52.0735C128.647 51.4659 128.04 48.8681 127.704 45.7885C127.327 43.2954 126.866 40.6976 129.045 40.5091C131.224 40.3205 141.175 39.4197 142.432 41.5147C143.689 43.6097 141.741 50.5022 145.952 50.4184C149.66 50.4184 158.103 52.7858 159.904 49.1824C161.497 45.977 158.647 40.5719 160.554 40.1739C163.319 39.6292 175.952 39.2521 176.748 41.7242C177.44 43.8192 177.859 48.3025 176.434 49.769C175.009 51.2355 172.097 54.6084 171.636 55.2998C171.176 55.9911 170.442 52.8277 170.442 97.9959C166.252 98.1635 154.353 98.2263 152.048 97.9959C151.168 95.7542 153.578 85.4259 152.781 83.8756C151.692 81.6549 145.533 81.7806 145.491 83.6661C145.559 85.459 145.404 87.2535 145.03 89.0083C144.108 89.0083 140.484 89.0083 140.002 88.5684C139.928 88.2161 139.928 87.8522 140.002 87.4999C140.002 85.5935 140.672 83.0166 139.29 82.87C137.907 82.7233 133.696 81.8434 132.209 82.7024C131.538 83.1004 131.433 83.8337 131.412 84.7974C131.496 86.3116 131.496 87.8293 131.412 89.3435C129.547 89.5614 127.66 89.4836 125.819 89.1131C125.274 88.7569 126.678 82.011 123.954 81.8015C122.415 81.4582 120.837 81.3243 119.261 81.4035C116.957 81.8434 116.957 83.7289 116.999 86.0753C116.999 89.9092 117.69 95.8799 116.999 97.3674C115.616 97.4721 108.2 97.514 102.774 97.514C102.774 94.4553 103.381 61.899 103.13 58.7775C102.899 55.9073 98.9399 55.0693 97.5573 52.8277ZM102.774 172.243C93.5768 175.343 41.3065 173.751 33.6388 169.959C32.7098 169.625 31.8766 169.068 31.2121 168.338C30.5475 167.607 30.0716 166.725 29.8259 165.769C28.8622 160.008 37.7241 154.33 43.5691 152.948C46.1285 152.271 48.8512 152.625 51.153 153.932C53.4195 155.284 55.2459 157.263 56.4115 159.631C56.4511 159.714 56.5171 159.782 56.5992 159.824C56.6814 159.866 56.7751 159.88 56.8658 159.863C56.9565 159.846 57.0392 159.8 57.101 159.732C57.1628 159.663 57.2002 159.576 57.2076 159.484C57.2076 159.17 56.9352 152.508 67.6826 147.605C69.6795 146.536 71.9349 146.044 74.1959 146.185C76.4569 146.325 78.6339 147.093 80.483 148.402C81.9634 149.409 83.1608 150.78 83.9607 152.382C83.9363 152.502 83.9517 152.627 84.0045 152.738C84.0573 152.849 84.1447 152.939 84.2534 152.996C84.3622 153.053 84.4864 153.073 84.6075 153.053C84.7285 153.032 84.8397 152.974 84.9244 152.885C85.2387 152.529 86.8937 143.772 95.1271 142.033C97.7095 141.634 100.347 141.776 102.871 142.451C105.396 143.125 107.753 144.317 109.792 145.95C117.585 151.879 112.013 169.163 102.774 172.243ZM113.605 161.286C115.574 155.189 115.05 148.443 110.483 145.029C108.322 143.288 105.822 142.016 103.142 141.295C100.462 140.573 97.6609 140.418 94.9176 140.839C92.4379 141.416 90.1583 142.648 88.316 144.405C86.4738 146.163 85.1362 148.382 84.4426 150.832C82.9663 148.512 80.7526 146.756 78.1576 145.846C79.6869 126.676 78.1575 100.698 78.0528 93.4707C78.0528 92.0461 78.1576 91.648 77.5919 91.6061C73.5187 91.518 69.4543 91.1892 65.42 90.6215C63.0107 90.0349 64.0582 79.3713 64.8124 77.0878C65.2104 75.8517 69.3586 77.1925 70.2175 77.3182C70.834 79.2881 71.0057 81.3703 70.7203 83.4147C70.3223 85.5097 75.6854 84.3784 77.2986 84.3784C79.2679 84.3784 77.8852 79.6437 78.4718 77.6953C78.8489 76.4383 83.6884 77.2973 84.9663 77.6953C85.5739 77.842 84.694 82.1158 84.8406 83.1423C84.9873 84.1689 85.5739 84.2946 86.4957 84.4412C87.8294 84.5571 89.1724 84.3856 90.4342 83.9384C91.9846 83.2471 90.6647 78.9942 91.5446 78.5333C92.5477 78.2535 93.6086 78.2561 94.6104 78.5407C95.6122 78.8253 96.5159 79.381 97.2221 80.1465C98.3115 81.9901 96.6145 96.0475 96.3421 98.1635C96.3421 98.1635 96.3421 98.7291 96.9078 98.7501C118.842 98.9805 117.544 98.7501 117.858 98.2473C119.282 96.5713 117.502 85.1116 118.319 83.3937C119.136 81.6758 122.257 82.9119 123.829 83.0376C124.269 83.0376 124.415 84.4831 124.457 84.9021C124.771 88.6731 123.745 89.972 125.986 90.5167C127.826 90.6799 129.677 90.6799 131.517 90.5167C133.612 90.6843 132.041 85.0697 132.669 83.7708C132.669 83.7708 132.942 83.6242 133.005 83.6242C134.976 83.4724 136.959 83.6065 138.892 84.0222C139.122 85.1535 138.284 88.4217 139.185 89.3854C140.086 90.3491 143.92 89.972 145.093 90.1815C146.957 90.5377 146.517 85.4468 146.685 83.7289C147.498 83.3623 148.395 83.2232 149.28 83.3265C150.166 83.4298 151.007 83.7716 151.713 84.3155C152.195 85.3002 149.995 95.9847 150.896 98.2892C150.956 98.4837 151.068 98.6584 151.219 98.7949C151.37 98.9313 151.555 99.0244 151.755 99.0643C153.347 99.2738 171.406 99.3157 174.025 98.8548C174.276 98.8548 174.632 98.6663 174.632 98.2473C174.842 86.9343 173.983 79.0361 175.387 78.3867C177.03 78.0389 178.729 78.0389 180.373 78.3867C180.896 78.3867 180.771 81.4454 180.792 82.1577C180.813 82.87 180.959 83.289 181.651 83.5613C183.025 83.8695 184.433 84.0033 185.841 83.9594C187.81 83.9594 186.469 80.9426 187.307 79.2247C187.852 78.0934 193.026 78.7638 193.906 79.2247C194.786 79.6856 193.383 82.5557 194.765 83.289C196.12 83.707 197.551 83.8214 198.955 83.6242C199.668 83.6242 200.087 83.3937 200.254 82.7652C200.422 82.1367 200.254 80.9007 200.422 80.2303C200.422 79.937 200.589 79.8532 201.427 79.6437C202.852 79.2875 205.429 79.1828 205.429 80.6493C205.429 82.7443 205.638 88.0656 205.429 89.5111C203.543 89.6787 196.295 89.6578 196.085 89.6787C195.519 89.6787 195.54 89.8254 195.519 90.2025C194.849 100.175 192.042 137.424 190.596 147.354C189.857 147.75 189.057 148.019 188.229 148.15C179.849 149.952 160.533 150.434 151.902 150.497C152.928 143.562 152.719 134.218 149.136 128.059C147.812 125.706 145.831 123.791 143.434 122.548C141.037 121.305 138.33 120.788 135.644 121.062C122.404 121.586 119.576 136.858 120.979 149.994C116.077 149.784 116.098 149.68 116.077 149.994C116.077 150.055 116.101 150.113 116.145 150.157C116.188 150.2 116.246 150.224 116.308 150.224C137.551 151.376 155.756 151.335 168.892 150.769C172.139 150.622 188.229 149.847 190.931 148.129C191.058 148.074 191.169 147.987 191.254 147.877C191.338 147.767 191.393 147.638 191.413 147.501C192.503 140.273 194.346 118.757 195.603 104.239C199.144 99.1062 204.235 99.5043 208.948 103.254C209.03 103.295 209.119 103.316 209.21 103.316C209.301 103.316 209.391 103.295 209.472 103.254C209.828 103.254 209.472 103.108 210.562 102.689C213.832 101.507 217.32 101.05 220.785 101.348C221.884 101.399 222.954 101.71 223.909 102.257C224.863 102.803 225.674 103.569 226.274 104.49C222.566 109.183 222.377 109.539 218.669 114.504C216.93 113.666 212.95 117.731 211.462 119.239C210.492 119.715 209.555 120.254 208.655 120.852C199.751 126.739 202.831 132.501 204.36 133.988C204.266 134.641 204.266 135.304 204.36 135.957C199.323 144.351 194.986 153.144 191.392 162.25C191.225 162.438 180.435 162.522 113.605 161.286ZM152.886 268.382C146.098 267.607 136.587 266.979 130.176 263.459C129.875 263.317 129.599 263.125 129.359 262.893C129.171 262.705 129.15 262.642 129.359 262.474C131.454 260.379 146.119 259.374 147.67 258.871C149.22 258.368 150.833 255.519 151.566 254.367C152.448 255.72 153.609 256.869 154.971 257.736C156.333 258.603 157.865 259.169 159.465 259.395C158.459 261.532 155.128 268.655 152.823 268.382H152.886ZM132.167 231.657C132.502 237.062 130.491 243.096 123.41 248.92C107.844 261.762 70.8251 260.568 50.7131 257.928C53.1223 239.22 59.931 211.021 71.663 196C84.7358 179.24 102.795 176.516 113.563 183.43C120.162 187.62 122.425 197.236 122.362 204.946C122.389 205.542 122.347 206.14 122.236 206.726C113.407 209.482 104.961 213.339 97.0964 218.207C82.908 226.939 70.0701 237.695 58.9883 250.135C58.8772 250.246 58.8147 250.397 58.8147 250.554C58.8147 250.711 58.8772 250.862 58.9883 250.973C59.0994 251.084 59.2502 251.146 59.4073 251.146C59.5645 251.146 59.7152 251.084 59.8263 250.973C76.9634 234.213 99.2961 217.453 123.137 214.436C124.583 215.714 131.517 222.9 132.104 231.657H132.167ZM161.015 221.978C132.02 203.27 100.26 215.693 73.3391 237.292C120.414 194.743 157.139 201.824 179.891 214.897C179.337 223.614 179.646 232.365 180.813 241.021C174.959 233.92 168.293 227.528 160.952 221.978H161.015ZM216.574 330.918C216.281 333.977 217.328 337.811 221.037 342.378C223.554 345.031 225.149 348.425 225.583 352.056C225.617 353.55 225.245 355.024 224.507 356.323C223.769 357.622 222.693 358.696 221.393 359.431C223.865 352.476 217.58 345.855 211.462 341.644C209.591 340.409 208.044 338.742 206.95 336.784C205.857 334.827 205.249 332.635 205.177 330.394C204.779 324.109 208.11 317.133 211.316 311.895C214.666 315.584 218.466 318.836 222.629 321.574C220.937 322.546 219.5 323.905 218.437 325.541C217.373 327.176 216.713 329.041 216.511 330.981L216.574 330.918ZM312.798 281.35C311.658 279.103 310.348 276.946 308.88 274.898C330.752 263.04 353.252 260.589 369.635 278.941C353.001 264.8 331.611 270.1 312.735 281.413L312.798 281.35ZM381.388 298.445C374.392 290.762 364.757 285.997 354.404 285.1C342.568 284.262 327.735 281.078 335.968 272.53C344.696 270.375 353.902 271.346 361.988 275.275C369.219 279.276 375.037 285.416 378.643 292.852C378.698 292.922 378.768 292.978 378.848 293.017C378.928 293.055 379.016 293.076 379.104 293.076C379.193 293.076 379.281 293.055 379.36 293.017C379.44 292.978 379.51 292.922 379.565 292.852C379.796 292.496 379.565 292.14 379.23 291.574C371.374 275.694 358.406 264.59 340.389 264.716C340.556 263.815 342.484 255.142 349.858 252.272C353.587 250.826 358.678 250.868 365.654 254.157C380.697 261.071 383.273 282 381.325 298.508L381.388 298.445Z" fill="#072924"/>
<path fill-rule="evenodd" clip-rule="evenodd" d="M300.605 81.4033C301.26 81.9327 302.052 82.2667 302.888 82.367C303.286 82.367 303.181 81.927 302.888 81.9899C302.317 81.7057 301.783 81.354 301.296 80.9424C301.296 80.9424 301.191 80.8167 301.296 80.7119C301.505 80.251 302.385 78.4284 302.888 77.1295C303.014 76.8362 303.391 75.7887 303.454 75.663C303.517 75.5373 303.454 75.244 303.202 75.3697C302.051 76.9202 301.126 78.6274 300.458 80.4396C300.379 80.5954 300.35 80.7721 300.377 80.9449C300.403 81.1178 300.483 81.278 300.605 81.4033ZM299.138 71.7872C299.945 71.748 300.751 71.8764 301.505 72.1643C301.535 72.1944 301.574 72.2137 301.616 72.219C301.658 72.2243 301.7 72.2154 301.737 72.1936C301.773 72.1719 301.801 72.1386 301.816 72.0991C301.831 72.0596 301.832 72.0161 301.82 71.9758C301.719 71.7042 301.549 71.4635 301.327 71.277C301.105 71.0906 300.839 70.9649 300.554 70.9121C300.269 70.8594 299.975 70.8814 299.702 70.976C299.428 71.0706 299.183 71.2346 298.991 71.452C298.782 71.5358 298.929 71.892 299.138 71.7872ZM299.892 75.7677C299.892 75.642 300.06 75.1811 300.102 75.0345C300.198 74.7984 300.21 74.5366 300.135 74.2928C300.061 74.0491 299.905 73.8383 299.694 73.6958C299.483 73.5534 299.229 73.4879 298.975 73.5104C298.721 73.5329 298.483 73.642 298.3 73.8194C297.923 74.1755 297.986 74.5107 297.776 75.0554C297.68 75.3308 297.694 75.6328 297.815 75.8982C297.936 76.1637 298.155 76.3721 298.426 76.48C298.715 76.5746 299.029 76.5531 299.303 76.4202C299.577 76.2873 299.788 76.0534 299.892 75.7677ZM246.637 90.4118C246.176 90.6632 246.344 90.6003 246.637 90.4118V90.4118ZM306.554 88.1282C306.387 87.8559 306.177 87.8349 303.244 87.5835C301.149 87.395 298.887 87.2693 298.803 87.2693C298.719 87.2693 298.531 87.5835 298.489 87.793C298.044 88.9487 298.039 90.2274 298.476 91.3862C298.912 92.545 299.759 93.503 300.856 94.078C305.193 95.8797 306.932 87.4997 306.638 88.6101C306.669 88.5296 306.677 88.4425 306.662 88.3577C306.647 88.273 306.61 88.1938 306.554 88.1282ZM301.275 93.0096C300.365 92.5215 299.645 91.7421 299.231 90.7962C298.817 89.8502 298.733 88.7927 298.991 87.793C301.38 88.2539 302.762 88.5263 305.276 88.9243C304.711 90.9146 303.265 93.7847 301.275 93.0096ZM312.462 74.6783C311.791 74.227 311.023 73.9399 310.221 73.8403C309.824 73.7987 309.423 73.7987 309.027 73.8403C308.796 73.8403 308.775 74.1965 309.027 74.2174C310.408 74.6334 311.759 75.1444 313.07 75.7468C313.237 75.9144 313.489 75.6211 313.3 75.4744C313.055 75.1754 312.774 74.908 312.462 74.6783ZM308.272 77.6113C307.916 77.9465 307.958 78.3027 307.769 78.8474C307.716 78.9806 307.69 79.1232 307.693 79.2667C307.695 79.4102 307.727 79.5517 307.786 79.6827C307.844 79.8137 307.929 79.9316 308.034 80.0292C308.139 80.1268 308.263 80.2023 308.398 80.251C308.684 80.3522 308.999 80.3364 309.273 80.2069C309.548 80.0775 309.76 79.8449 309.864 79.5597C309.864 79.413 310.032 78.9731 310.074 78.8055C310.192 78.5678 310.218 78.2953 310.149 78.0392C310.08 77.7832 309.92 77.561 309.699 77.4145C309.478 77.268 309.211 77.2072 308.949 77.2434C308.686 77.2796 308.445 77.4105 308.272 77.6113Z" fill="#072924"/>
</svg>
