<svg xmlns="http://www.w3.org/2000/svg" width="24" height="24" viewBox="0 0 24 24" fill="none">
<path d="M12.8804 2.25561C12.6732 2.23754 12.4645 2.26276 12.2676 2.32965C12.0706 2.39654 11.8898 2.50365 11.7365 2.64418C11.5832 2.78471 11.4608 2.95558 11.377 3.14595C11.2933 3.33631 11.25 3.54201 11.25 3.74999V7.5628C11.2474 7.91659 11.3711 8.25971 11.5988 8.53053C11.8265 8.80134 12.1432 8.98208 12.4922 9.0403C13.1494 9.14871 13.7517 9.47271 14.2044 9.96123C14.6571 10.4498 14.9343 11.075 14.9925 11.7385C15.0506 12.402 14.8863 13.0659 14.5254 13.6257C14.1646 14.1855 13.6277 14.6093 12.9994 14.8303C12.9263 14.8572 12.8632 14.9058 12.8186 14.9697C12.774 15.0336 12.7501 15.1096 12.75 15.1875V21.3028C12.7497 21.3559 12.7606 21.4085 12.7821 21.457C12.8036 21.5056 12.8351 21.549 12.8747 21.5845C12.9142 21.6199 12.9608 21.6466 13.0114 21.6627C13.062 21.6787 13.1154 21.6839 13.1682 21.6778C15.508 21.3889 17.6648 20.2647 19.2417 18.512C20.8185 16.7593 21.7093 14.496 21.75 12.1387C21.8204 7.04905 17.9241 2.70749 12.8804 2.25561Z" fill="#FF8547"/>
<path d="M4.50567 5.79188C3.30143 7.22289 2.54183 8.97475 2.32036 10.8319C2.31427 10.8845 2.31939 10.9377 2.33537 10.9882C2.35135 11.0387 2.37783 11.0852 2.41308 11.1247C2.44832 11.1642 2.49153 11.1958 2.53986 11.2174C2.58819 11.239 2.64055 11.2501 2.69348 11.25H8.76848C8.8487 11.2499 8.92678 11.2241 8.99124 11.1763C9.0557 11.1286 9.10314 11.0614 9.12661 10.9847C9.20048 10.7247 9.31776 10.479 9.47348 10.2581C9.67907 9.9713 9.77601 9.62073 9.74699 9.26902C9.71796 8.91732 9.56487 8.58738 9.31505 8.33813L6.72098 5.68875C6.57339 5.54115 6.39661 5.42598 6.20196 5.3506C6.0073 5.27523 5.79906 5.24131 5.59055 5.25101C5.38204 5.26072 5.17785 5.31384 4.99104 5.40697C4.80423 5.5001 4.63892 5.6312 4.50567 5.79188Z" fill="#C285FF"/>
<path d="M9.87775 14.1221C10.1923 14.437 10.573 14.678 10.9923 14.8275C11.0673 14.8532 11.1324 14.9017 11.1785 14.9662C11.2246 15.0308 11.2493 15.1082 11.2491 15.1875V21.3066C11.2495 21.3596 11.2386 21.412 11.2171 21.4605C11.1957 21.509 11.1642 21.5524 11.1248 21.5878C11.0854 21.6233 11.0389 21.65 10.9884 21.6661C10.9379 21.6823 10.8846 21.6875 10.8319 21.6816C8.66498 21.419 6.64862 20.4375 5.10514 18.894C3.56166 17.3505 2.58017 15.3342 2.31757 13.1672C2.3116 13.1145 2.31687 13.0612 2.33303 13.0107C2.34918 12.9602 2.37586 12.9137 2.41129 12.8743C2.44673 12.8349 2.49012 12.8034 2.5386 12.782C2.58709 12.7606 2.63956 12.7497 2.69257 12.75H8.81725C8.8959 12.7508 8.97237 12.7759 9.03617 12.8219C9.09996 12.8679 9.14794 12.9325 9.1735 13.0069C9.32261 13.4263 9.56317 13.8072 9.87775 14.1221Z" fill="#FF8599"/>
</svg>