<svg width="136" height="163" viewBox="0 0 136 163" fill="none" xmlns="http://www.w3.org/2000/svg">
<path d="M128.11 11.5605H22.8097C19.4727 11.5605 16.7676 14.2724 16.7676 17.6176V155.419C16.7676 158.765 19.4727 161.477 22.8097 161.477H128.11C131.447 161.477 134.152 158.765 134.152 155.419V17.6176C134.152 14.2724 131.447 11.5605 128.11 11.5605Z" fill="black"/>
<path d="M128.346 162.14C129.77 162.462 131.288 161.931 132.282 161.078C133.319 160.238 133.874 159.153 134.272 158.303C134.975 156.728 134.895 155.724 134.912 154.982C134.911 154.211 134.911 153.441 134.909 151.899C134.909 148.819 135.147 148.819 135.147 145.739C135.147 142.658 135.28 142.658 135.28 139.577C135.28 136.496 134.966 136.496 134.966 133.416C134.966 130.337 134.846 130.337 134.846 127.258C134.846 124.178 135.168 124.178 135.168 121.099C135.168 118.019 135.342 118.019 135.342 114.939C135.358 112.886 135.374 110.833 135.389 108.779C135.389 105.699 135.285 105.699 135.285 102.619C135.285 99.539 135.149 99.539 135.149 96.4592C135.169 94.4068 135.189 92.3538 135.21 90.3002C135.21 87.2209 135.34 87.2209 135.34 84.1414C135.34 81.0616 135.107 81.0616 135.107 77.9818C135.107 74.9024 135.397 74.9024 135.397 71.823C135.397 68.7445 134.96 68.7445 134.96 65.6659C134.96 62.5866 135.484 62.5866 135.484 59.5073C135.465 57.4556 135.445 55.4033 135.426 53.3505C135.426 50.2719 135.283 50.2719 135.283 47.1933C135.283 44.1154 135.095 44.1154 135.095 41.0373C135.095 37.9585 134.987 37.9585 134.987 34.8797C134.987 31.8 135.5 31.8 135.5 28.7203C135.474 26.6684 135.447 24.6155 135.42 22.5616C135.42 21.0222 135.296 20.2524 135.172 19.4826C135.11 19.0978 135.048 18.7129 135.002 18.2318C134.946 17.7815 134.956 17.1162 134.788 16.2579C134.389 14.5646 133.892 13.8016 133.407 13.0623C132.88 12.3702 132.283 11.5747 130.583 10.895C129.727 10.5862 129.038 10.4969 128.475 10.4968C127.886 10.4823 127.581 10.5332 127.173 10.5518C126.405 10.6042 125.637 10.6566 124.101 10.6566C121.03 10.6566 121.03 10.4619 117.958 10.4619C114.886 10.4619 114.886 10.7567 111.815 10.7567C108.743 10.7567 108.743 10.5777 105.672 10.5777C102.6 10.5777 102.6 10.1865 99.5283 10.1865C96.4573 10.1865 96.4573 10.6122 93.3862 10.6122C90.3146 10.6122 90.3146 10.4126 87.243 10.4126C84.1719 10.4126 84.1719 10.754 81.1008 10.754C78.0297 10.754 78.0295 10.5342 74.9584 10.5342C71.887 10.5342 71.887 10.1876 68.8156 10.1876C65.7448 10.1876 65.7448 10.7912 62.6739 10.7912C59.6026 10.7912 59.6026 10.6312 56.5312 10.6312C53.4602 10.6312 53.4602 10.7886 50.389 10.7886C47.3184 10.7886 47.3184 10.3739 44.2476 10.3739C41.1764 10.3739 41.1765 10.8675 38.1053 10.8675C35.0341 10.8675 35.0341 10.6555 31.9631 10.6555C28.8925 10.6555 28.8925 10.541 25.822 10.541C24.2826 10.5424 23.528 10.5692 22.7422 10.6063C21.8696 10.6713 20.9367 10.7517 19.377 11.5814C17.8568 12.4963 17.3956 13.3357 16.9596 14.0678C16.5912 14.8425 16.1574 15.6538 16.067 17.3765C16.0443 20.5046 15.979 20.4685 15.9739 23.5579C15.9577 25.6095 15.9414 27.6614 15.9252 29.7137C15.9252 32.7921 15.6307 32.7921 15.6307 35.8705C15.6567 37.9223 15.6827 39.975 15.7087 42.0286C15.7087 45.1067 15.4696 45.1067 15.4696 48.1848C15.4482 50.236 15.4267 52.2878 15.4053 54.3402C15.4053 57.4182 16.0213 57.4182 16.0213 60.4961C16.0213 63.5748 15.4156 63.5748 15.4156 66.6535C15.4156 69.7319 15.5456 69.7319 15.5456 72.8104C15.5456 75.8881 15.8089 75.8881 15.8089 78.9658C15.8089 82.0433 16.0519 82.0433 16.0519 85.1207C16.0519 88.1984 15.4345 88.1984 15.4345 91.2761C15.4345 94.3545 15.9113 94.3545 15.9113 97.4329C15.8945 99.4849 15.8776 101.537 15.8608 103.59C15.8608 106.668 15.4513 106.668 15.4513 109.745C15.4649 111.797 15.4784 113.848 15.4919 115.9C15.4919 118.977 16.0295 118.977 16.0295 122.054L16.0344 128.209C16.03 130.262 16.0256 132.314 16.0212 134.366C16.0212 137.444 15.7603 137.444 15.7603 140.523C15.7603 143.601 15.868 143.601 15.868 146.678C15.868 149.755 15.6096 149.755 15.6096 152.832C15.6013 153.601 15.5952 154.178 15.5901 154.659C15.5767 155.131 15.5579 155.514 15.5755 156.006C15.6495 156.909 15.7257 157.911 16.7195 159.499C17.8075 161.024 18.7185 161.449 19.5345 161.822C20.366 162.144 21.2996 162.466 23.0173 162.474C26.0869 162.474 26.087 162.663 29.1567 162.663C32.2271 162.663 32.2271 162.366 35.2976 162.366C37.3434 162.332 39.3906 162.299 41.4393 162.266C44.5093 162.266 44.5093 162.434 47.5792 162.434C50.6484 162.434 50.6484 162.266 53.7177 162.266C56.7885 162.266 56.7885 162.423 59.8593 162.423C62.9303 162.423 62.9303 162.689 66.0013 162.689C69.0719 162.689 69.0719 162.315 72.1425 162.315C75.2131 162.315 75.213 162.565 78.2835 162.565C81.3542 162.565 81.3542 162.207 84.4248 162.207C87.4958 162.207 87.4958 162.328 90.5669 162.328C93.6376 162.328 93.6376 162.497 96.7083 162.497C99.7788 162.497 99.7788 162.351 102.849 162.351C104.896 162.353 106.943 162.355 108.99 162.356C112.061 162.356 112.061 162.791 115.131 162.791C117.779 162.792 120.435 162.298 123.083 162.495C124.043 162.567 127.529 163.522 128.03 162.069C128.121 161.804 128.114 161.51 128.106 161.226C128.103 161.123 128.096 161.011 128.036 160.936C127.969 160.853 127.86 160.845 127.763 160.842C123.555 160.717 119.316 160.29 115.116 160.29C112.043 160.29 112.043 160.408 108.971 160.408C106.922 160.431 104.873 160.454 102.824 160.476C100.776 160.447 98.7281 160.417 96.6786 160.388C94.6308 160.388 92.583 160.389 90.5352 160.389C88.4883 160.363 86.4406 160.337 84.3919 160.311C81.3195 160.311 81.3194 160.619 78.247 160.619C76.1996 160.643 74.1515 160.667 72.1027 160.691C69.03 160.691 69.0299 160.154 65.9573 160.154C62.8851 160.154 62.8851 160.394 59.8129 160.394C57.7655 160.376 55.7176 160.358 53.6692 160.34C50.5974 160.34 50.5974 160.162 47.5256 160.162C44.4534 160.162 44.4534 160.662 41.3811 160.662C38.3094 160.662 38.3094 160.387 35.2376 160.387C33.1904 160.395 31.1431 160.403 29.0957 160.41C26.0241 160.41 26.0241 160.583 22.9524 160.583C21.5908 160.559 21.0201 160.177 20.4994 159.819C20.0001 159.429 19.5075 159.026 18.8134 158.03C18.17 156.991 18.1498 156.336 18.1113 155.748C18.1209 154.999 18.1305 154.253 18.1497 152.761C18.1497 149.683 17.7032 149.683 17.7032 146.605C17.7032 143.526 17.9712 143.526 17.9712 140.447C17.9712 137.367 18.0776 137.367 18.0776 134.288C18.0776 131.208 17.6661 131.208 17.6661 128.129C17.6661 125.05 18.0575 125.05 18.0575 121.971C18.0575 118.892 17.8524 118.892 17.8524 115.812C17.8524 112.733 17.5287 112.733 17.5287 109.654C17.5537 107.602 17.5787 105.55 17.6038 103.496C17.6038 100.417 17.8737 100.417 17.8737 97.3372C17.8737 94.2585 18.0552 94.2585 18.0552 91.1796C18.0226 89.128 17.99 87.075 17.9573 85.0206C17.9573 81.9419 17.795 81.9419 17.795 78.8632C17.795 75.784 18.1446 75.784 18.1446 72.7047C18.1446 69.626 17.6925 69.626 17.6925 66.5473C17.6949 64.4948 17.6974 62.4423 17.6999 60.3898C17.6999 57.3108 17.9331 57.3108 17.9331 54.2317C17.9331 51.1532 18.1565 51.1532 18.1565 48.0748C18.1565 44.9958 18.0541 44.9958 18.0541 41.9169C18.0429 39.8646 18.0317 37.8121 18.0205 35.7594C18.0159 33.7073 18.0112 31.6551 18.0065 29.6028C18.0065 26.524 17.8104 26.524 17.8104 23.4452C17.8171 20.3938 17.8799 20.3052 17.9098 17.349C18.0044 16.0966 18.333 15.52 18.6237 14.9715C18.9553 14.4487 19.3198 13.8721 20.4181 13.223C21.5538 12.65 22.1951 12.5488 22.8625 12.4434C23.6302 12.3592 24.3979 12.2749 25.9333 12.2749C29.0049 12.2749 29.0049 12.9526 32.0766 12.9526C35.1471 12.9526 35.1471 12.7548 38.2177 12.7548C41.2881 12.7548 41.2881 12.4686 44.3584 12.4686C47.4291 12.4686 47.4291 12.7725 50.4999 12.7725C53.5713 12.7725 53.5713 12.306 56.6428 12.306C59.7133 12.306 59.7133 12.9421 62.7838 12.9421C65.8538 12.9421 65.8538 12.4295 68.924 12.4295C71.9941 12.4295 71.9942 12.6909 75.0646 12.6909C78.1356 12.6909 78.1356 12.3468 81.2068 12.3468C84.2776 12.3468 84.2776 12.9411 87.3484 12.9411C90.4185 12.9411 90.4185 12.4736 93.4887 12.4736C95.5344 12.4479 97.5809 12.4222 99.6283 12.3964C102.698 12.3964 102.698 12.7999 105.768 12.7999C108.839 12.7999 108.839 12.9253 111.91 12.9253C114.981 12.9253 114.981 12.5634 118.052 12.5634C121.122 12.5634 121.122 12.868 124.192 12.868C125.727 12.868 126.494 12.797 127.262 12.7259C128.078 12.686 128.7 12.4756 129.914 12.9247C131.091 13.4207 131.541 13.9378 131.947 14.4123C132.325 14.914 132.716 15.4567 132.991 16.692C133.112 17.2955 133.051 17.7984 133.034 18.3142C132.995 18.7909 132.964 19.1771 132.932 19.5644C132.858 20.3338 132.784 21.1032 132.784 22.6419C132.784 25.7201 133.175 25.7201 133.175 28.7984C133.175 31.8769 133.005 31.8769 133.005 34.9555C133.005 38.0331 133.32 38.0331 133.32 41.1107C133.32 44.1878 132.863 44.1878 132.863 47.2648C132.863 50.3416 133.382 50.3416 133.382 53.4184C133.361 55.4691 133.339 57.5204 133.318 59.5723C133.318 62.6496 133.422 62.6496 133.422 65.7269C133.422 68.8049 132.982 68.8049 132.982 71.883C132.979 73.9353 132.975 75.9877 132.972 78.04C132.972 81.1175 133.275 81.1175 133.275 84.1952C133.293 86.2459 133.312 88.2971 133.331 90.3489C133.331 93.4273 132.809 93.4273 132.809 96.5057C132.809 99.5843 133.413 99.5843 133.413 102.663C133.413 105.741 133.254 105.741 133.254 108.819C133.254 111.897 132.785 111.897 132.785 114.976C132.785 118.054 133.137 118.054 133.137 121.132C133.137 124.211 132.881 124.211 132.881 127.289C132.881 130.368 133.122 130.368 133.122 133.446C133.099 135.497 133.075 137.549 133.052 139.602C133.031 141.654 133.01 143.706 132.989 145.758C132.989 148.837 133.419 148.837 133.419 151.915C133.419 153.454 133.377 154.224 133.334 154.994C133.274 155.768 133.29 156.377 132.759 157.602C132.408 158.368 131.745 159.003 131.037 159.481C130.328 159.984 129.584 160.325 128.796 160.817L128.614 160.93C128.445 161.026 128.26 161.154 128.171 161.375C128.068 161.634 128.078 162.087 128.346 162.14Z" fill="black"/>
<path d="M118.306 1.88867H10.1007C5.78968 1.88867 2.29492 5.39209 2.29492 9.71379V143.98C2.29492 148.301 5.78968 151.805 10.1007 151.805H118.306C122.617 151.805 126.112 148.301 126.112 143.98V9.71379C126.112 5.39209 122.617 1.88867 118.306 1.88867Z" fill="white"/>
<path d="M119.896 149.871C119.652 150.018 119.382 150.139 119.08 150.269C118.399 150.549 117.734 152.816 119.099 153.136C119.973 153.297 120.947 152.717 121.708 152.377C122.791 151.922 123.787 151.273 124.643 150.468C126.153 149.042 127.238 147.121 127.622 144.991C127.754 144.098 127.697 143.394 127.647 142.685C127.595 141.965 127.528 141.243 127.528 140.533C127.528 133.131 127.763 133.131 127.763 125.728C127.763 118.326 127.454 118.326 127.454 110.925C127.454 103.523 127.794 103.523 127.794 96.1222C127.771 91.1882 127.747 86.254 127.723 81.3195C127.723 73.9183 127.497 73.9183 127.497 66.517C127.497 59.1167 128.004 59.1167 128.004 51.7164C128.004 44.316 127.331 44.3163 127.331 36.9161C127.376 31.9839 127.421 27.051 127.466 22.1173C127.466 18.417 127.515 16.5668 127.563 14.7167C127.584 13.7912 127.605 12.866 127.63 11.7102C127.637 11.1319 127.644 10.4959 127.653 9.77331C127.642 8.93509 127.557 7.94245 127.225 6.88462C126.527 4.76214 125.366 3.46735 124.325 2.58882C123.259 1.71464 122.239 1.23903 121.195 0.92237C120.186 0.604967 118.963 0.492466 117.791 0.535651C116.637 0.545388 115.253 0.557059 113.408 0.572598C106.026 0.572598 106.026 0.262433 98.6438 0.262433C91.2617 0.262433 91.262 0.0547918 83.88 0.0547918C78.9588 0.0778434 74.0373 0.100884 69.1156 0.123914C61.7338 0.123914 61.7338 0.658115 54.3521 0.658115C46.9697 0.658115 46.9697 0.36054 39.5872 0.36054C32.2054 0.36054 32.2054 0.126477 24.8237 0.126477C19.9003 0.084329 14.9762 0.0421699 10.0514 0C7.75012 0.0370921 6.10643 0.81111 4.95543 1.61131C3.79618 2.43241 3.06648 3.32331 2.48918 4.26756C1.92299 5.2203 1.49267 6.25151 1.23037 7.58089C1.09351 8.23802 1.04145 9.00197 1.04763 9.80792C1.05607 10.5313 1.06549 11.3401 1.07628 12.2648C1.04573 17.1975 1.01516 22.1305 0.984592 27.0638C0.972618 31.9968 0.960629 36.9299 0.948622 41.8631C0.948622 49.2634 0.5 49.2634 0.5 56.6637C0.525257 61.5965 0.550512 66.5296 0.575768 71.4629C0.561736 76.3954 0.547721 81.328 0.533688 86.2607C0.565623 91.1933 0.597554 96.1263 0.629478 101.06C0.627677 105.993 0.625874 110.925 0.624105 115.858C0.649726 120.79 0.675359 125.723 0.701002 130.656C0.687655 134.355 0.681004 136.205 0.674331 138.055C0.668686 138.98 0.663037 139.906 0.656026 141.062C0.654209 141.64 0.652242 142.276 0.649991 142.998C0.653271 143.376 0.639679 143.707 0.657302 144.187C0.66486 144.681 0.715897 145.202 0.818408 145.755C1.26114 147.966 2.24465 149.422 3.17463 150.451C4.12276 151.482 5.06829 152.129 6.0759 152.628C7.08871 153.114 8.19211 153.463 9.60211 153.557C10.9369 153.617 12.1894 153.593 14.0749 153.603C21.4566 153.603 21.4566 153.219 28.8383 153.219C36.2181 153.219 36.2181 153.01 43.5979 153.01C48.5186 153.024 53.4393 153.038 58.36 153.052C65.7398 153.052 65.7398 153.237 73.1197 153.237C78.0394 153.211 82.9593 153.186 87.8795 153.161C95.2608 153.161 95.2608 153.346 102.642 153.346C105.06 153.346 107.474 153.545 109.888 153.691C112.157 153.828 114.62 154.215 116.854 153.531C117.001 153.486 117.139 153.472 117.27 153.483C117.549 153.37 117.811 153.247 118.063 153.117C118.49 152.306 118.353 150.863 117.67 150.398C117.289 150.139 116.26 150.408 115.816 150.393L113.819 150.301C112.571 150.23 111.303 150.378 110.049 150.427C106.245 150.575 102.417 150.595 98.6151 150.377C96.2769 150.242 93.9493 149.894 91.6105 149.772C90.3637 149.707 89.1158 149.685 87.8682 149.685C80.4848 149.685 80.4848 149.927 73.1015 149.927C68.1798 149.951 63.2578 149.975 58.3357 149.998C50.9527 149.998 50.9527 149.743 43.5696 149.743C36.1865 149.743 36.1867 150.266 28.8038 150.266C21.4217 150.266 21.4217 150.047 14.0397 150.047C12.2353 150.058 10.8823 150.067 9.75323 150.074C8.84995 150.048 8.13443 149.871 7.4557 149.597C6.78159 149.316 6.12814 148.929 5.47096 148.263C4.82203 147.602 4.14443 146.63 3.85657 145.144C3.78699 144.774 3.7606 144.422 3.75472 144.088C3.75599 143.688 3.75717 143.313 3.75825 142.96C3.77155 142.237 3.78327 141.602 3.79393 141.023C3.83545 139.868 3.86876 138.943 3.90203 138.017C3.9807 136.167 4.05936 134.317 4.05936 130.618C4.0255 125.684 3.99165 120.751 3.95783 115.816C3.95783 108.416 4.33476 108.416 4.33476 101.015C4.33476 93.615 3.64372 93.6151 3.64372 86.2148C3.64372 78.8144 4.18013 78.8146 4.18013 71.4144C4.18013 64.0142 3.59832 64.0139 3.59832 56.6134C3.59828 49.2133 4.1394 49.2133 4.1394 41.8133C4.1394 34.4125 3.96799 34.4125 3.96799 27.0117C3.94548 22.0785 3.92298 17.1452 3.90051 12.2117C3.90276 11.2867 3.90473 10.4774 3.9065 9.75469C3.93064 9.16338 3.98163 8.67089 4.1104 8.2281C4.34682 7.3458 4.70663 6.69539 5.14028 6.11575C5.58106 5.54146 6.10839 5.02294 6.87549 4.55264C7.64128 4.08908 8.66262 3.66143 10.1142 3.63817C15.0347 3.60689 19.9556 3.57558 24.8768 3.54425C32.258 3.54425 32.258 3.95277 39.6391 3.95277C47.0202 3.95277 47.0204 3.5812 54.4018 3.5812C59.3231 3.59346 64.2445 3.60571 69.1658 3.61795C76.5472 3.61795 76.5472 3.32431 83.9284 3.32431C91.309 3.32431 91.309 3.69382 98.6896 3.69382C106.071 3.69382 106.071 3.30297 113.452 3.30297C115.297 3.30297 116.681 3.32683 117.834 3.36265C118.952 3.39123 119.561 3.54127 120.279 3.82144C120.955 4.10047 121.592 4.47838 122.252 5.09227C122.899 5.70833 123.606 6.56756 124.051 7.92449C124.26 8.6166 124.3 9.21191 124.311 9.81459C124.302 10.537 124.293 11.1727 124.286 11.7509C124.257 12.9063 124.233 13.8314 124.21 14.7566C124.155 16.6063 124.1 18.4559 124.1 22.1552C124.1 27.0885 124.1 32.0218 124.1 36.9552C124.1 44.3535 124.541 44.3535 124.541 51.7518C124.541 59.1518 124.042 59.1518 124.042 66.5517C124.042 73.9499 124.693 73.9499 124.693 81.348C124.704 86.2808 124.716 91.2137 124.728 96.1467C124.729 101.079 124.73 106.011 124.732 110.943C124.732 118.341 124.366 118.341 124.366 125.739C124.366 133.139 124.685 133.139 124.685 140.539L124.657 144.01C124.634 144.959 124.395 145.887 123.971 146.718C123.538 147.562 122.926 148.32 122.167 148.883C121.524 149.383 120.552 149.509 119.896 149.871Z" fill="black"/>
<path d="M105.895 101.796C105.951 101.713 106.01 101.622 106.072 101.517C106.23 101.252 106.297 98.5556 106.116 98.0952C106.003 97.8054 105.861 98.2391 105.744 98.2504C105.582 98.266 105.42 98.2588 105.258 98.2288C104.972 98.1758 104.686 98.0374 104.401 97.8561C104.177 97.7142 103.943 98.0358 103.716 98.0358C102.536 98.0358 102.536 97.7538 101.356 97.7538C100.176 97.7538 100.176 98.1244 98.9965 98.1244C97.8167 98.1244 97.8167 97.7155 96.6368 97.7155C95.457 97.7155 95.4571 97.8009 94.2772 97.8009C93.0973 97.8009 93.0974 98.073 91.9176 98.073C90.7379 98.073 90.7379 97.4632 89.5582 97.4632C88.3786 97.4632 88.3786 98.2722 87.199 98.2722C86.0195 98.2722 86.0195 98.1105 84.84 98.1105C83.6602 98.1105 83.6602 97.8761 82.4805 97.8761C81.3008 97.8761 81.3008 98.1596 80.1211 98.1596C78.9413 98.1596 78.9414 97.7877 77.7617 97.7877C76.5821 97.7877 76.5821 97.5386 75.4025 97.5386C74.2228 97.5386 74.2227 97.6215 73.043 97.6215C71.8634 97.6215 71.8634 98.2621 70.6838 98.2621C69.5041 98.2621 69.5041 97.9052 68.3243 97.9052C67.1447 97.9052 67.1447 97.6246 65.965 97.6246C64.7855 97.6246 64.7855 97.4703 63.6059 97.4703C62.4264 97.4703 62.4264 98.2729 61.2468 98.2729C60.0673 98.2729 60.0673 98.1627 58.8877 98.1627C57.7082 98.1627 57.7082 98.1194 56.5286 98.1194C55.349 98.1194 55.349 97.58 54.1693 97.58C52.9898 97.58 52.9898 97.6712 51.8102 97.6712C50.6307 97.6712 50.6307 97.6205 49.4513 97.6205C48.2718 97.6205 48.2718 97.7357 47.0922 97.7357C45.9127 97.7357 45.9127 97.7293 44.7332 97.7293C43.5538 97.7293 43.5539 97.8217 42.3744 97.8217C41.1948 97.8217 41.1948 97.7576 40.0152 97.7576C38.8359 97.7576 38.8359 97.5818 37.6565 97.5818C36.4769 97.5818 36.4769 98.0416 35.2973 98.0416C34.118 98.0416 34.118 98.2935 32.9387 98.2935C31.7591 98.2935 31.7591 98.2421 30.5796 98.2421C29.4003 98.2421 29.4002 98.0212 28.2209 98.0212C27.0416 98.0212 27.0416 98.1117 25.8623 98.1117C24.6827 98.1117 24.6827 97.8904 23.5032 97.8904C23.1168 97.8904 22.7311 97.6515 22.3452 97.4766C21.9827 97.3122 21.5891 96.8473 21.232 97.6684C21.2087 97.7221 21.1865 97.7384 21.1657 97.7255C21.121 97.8615 21.0792 98.0084 21.039 98.1649C20.9707 99.1369 20.9925 100.868 21.1016 101.425C21.1625 101.736 21.327 101.414 21.398 101.431C21.5043 101.457 21.6108 101.496 21.7171 101.541C21.9165 101.627 22.1191 101.45 22.3196 101.391C22.9274 101.213 23.5392 101.19 24.1467 101.451C24.5204 101.612 24.8923 102.03 25.2661 102.177C25.4653 102.254 25.6648 102.28 25.8641 102.28C27.044 102.28 27.044 101.99 28.2239 101.99C29.4037 101.99 29.4037 101.905 30.5835 101.905C31.7633 101.905 31.7633 102.211 32.9432 102.211C34.123 102.211 34.123 101.584 35.3028 101.584C36.4825 101.584 36.4825 101.847 37.6621 101.847C38.8418 101.847 38.8418 101.481 40.0214 101.481C41.2009 101.481 41.2009 101.859 42.3805 101.859C43.5602 101.859 43.5602 101.737 44.7399 101.737C45.9196 101.737 45.9196 102.191 47.0993 102.191C48.279 102.191 48.279 101.36 49.4587 101.36C50.6383 101.36 50.6383 102.005 51.8179 102.005C52.9976 102.005 52.9976 101.305 54.1773 101.305C55.3569 101.305 55.3569 101.956 56.5366 101.956C57.7164 101.956 57.7163 101.75 58.8961 101.75C60.0758 101.75 60.0757 101.669 61.2553 101.669C62.4349 101.669 62.4349 101.836 63.6145 101.836C64.794 101.836 64.794 101.724 65.9736 101.724C67.1531 101.724 67.1531 102.213 68.3326 102.213C69.5121 102.213 69.5122 101.768 70.6917 101.768C71.8715 101.768 71.8714 101.812 73.0511 101.812C74.2306 101.812 74.2307 101.46 75.4102 101.46C76.5896 101.46 76.5896 101.903 77.7691 101.903C78.9486 101.903 78.9486 101.434 80.1282 101.434C81.3077 101.434 81.3077 101.892 82.4872 101.892C83.6666 101.892 83.6666 102.158 84.8459 102.158C85.6324 102.158 86.4188 102.158 87.2052 102.158C88.3845 102.158 88.3845 101.627 89.5639 101.627C90.7435 101.627 90.7435 102.227 91.9231 102.227C93.1025 102.227 93.1025 101.445 94.2818 101.445C95.4613 101.445 95.4613 101.403 96.6408 101.403C97.8201 101.403 97.8201 101.398 98.9994 101.398C100.179 101.398 100.179 101.838 101.358 101.838C102.538 101.838 102.538 101.454 103.717 101.454C104.087 101.454 104.457 101.504 104.826 101.554C105.015 101.579 105.203 101.605 105.391 101.624C105.548 101.64 105.741 102.022 105.895 101.796Z" fill="black"/>
<path d="M32.2459 116.184C32.204 116.097 32.1605 116.002 32.114 115.893C31.9962 115.615 31.9457 112.796 32.0808 112.314C32.1658 112.011 32.2716 112.465 32.3592 112.476C32.48 112.493 32.6008 112.485 32.7215 112.454C32.9354 112.398 33.1488 112.254 33.3622 112.064C33.5293 111.916 33.7041 112.252 33.8731 112.252C34.7543 112.252 34.7543 111.957 35.6355 111.957C36.5167 111.957 36.5167 112.345 37.3977 112.345C38.2788 112.345 38.2788 111.917 39.1599 111.917C40.041 111.917 40.0409 112.006 40.922 112.006C41.8031 112.006 41.803 112.291 42.6841 112.291C43.565 112.291 43.565 111.653 44.446 111.653C45.3269 111.653 45.3269 112.499 46.2078 112.499C47.0886 112.499 47.0886 112.33 47.9695 112.33C48.8505 112.33 48.8505 112.085 49.7315 112.085C50.6124 112.085 50.6124 112.381 51.4934 112.381C52.3744 112.381 52.3743 111.992 53.2553 111.992C54.1362 111.992 54.1362 111.732 55.0171 111.732C55.898 111.732 55.8981 111.819 56.7791 111.819C57.66 111.819 57.66 112.489 58.5409 112.489C59.4218 112.489 59.4219 112.115 60.3029 112.115C61.1838 112.115 61.1838 111.822 62.0647 111.822C62.9456 111.822 62.9456 111.661 63.8264 111.661C64.7073 111.661 64.7073 112.5 65.5881 112.5C66.469 112.5 66.469 112.385 67.3498 112.385C68.2306 112.385 68.2307 112.339 69.1115 112.339C69.9925 112.339 69.9925 111.775 70.8734 111.775C71.7543 111.775 71.7543 111.871 72.6351 111.871C73.5159 111.871 73.5159 111.818 74.3967 111.818C75.2775 111.818 75.2775 111.938 76.1584 111.938C77.0392 111.938 77.0392 111.931 77.92 111.931C78.8007 111.931 78.8007 112.028 79.6815 112.028C80.5624 112.028 80.5624 111.961 81.4433 111.961C82.324 111.961 82.324 111.777 83.2047 111.777C84.0856 111.777 84.0856 112.258 84.9665 112.258C85.8472 112.258 85.8472 112.521 86.7278 112.521C87.6087 112.521 87.6087 112.468 88.4895 112.468C89.3702 112.468 89.3702 112.237 90.2509 112.237C91.1316 112.237 91.1316 112.331 92.0123 112.331C92.8931 112.331 92.8931 112.1 93.774 112.1C94.0625 112.1 94.3506 111.85 94.6387 111.667C94.9094 111.495 95.2033 111.009 95.47 111.868C95.4875 111.924 95.504 111.941 95.5196 111.927C95.5529 112.07 95.5842 112.223 95.6142 112.387C95.6652 113.403 95.6489 115.213 95.5674 115.796C95.522 116.121 95.3991 115.785 95.3461 115.803C95.2667 115.83 95.1872 115.87 95.1078 115.918C94.9588 116.008 94.8076 115.822 94.6579 115.761C94.204 115.575 93.7471 115.55 93.2934 115.824C93.0144 115.992 92.7366 116.429 92.4575 116.582C92.3087 116.664 92.1598 116.691 92.0109 116.691C91.1298 116.691 91.1298 116.387 90.2487 116.387C89.3676 116.387 89.3676 116.298 88.4866 116.298C87.6055 116.298 87.6056 116.618 86.7245 116.618C85.8434 116.618 85.8434 115.962 84.9624 115.962C84.0814 115.962 84.0814 116.238 83.2005 116.238C82.3196 116.238 82.3195 115.855 81.4387 115.855C80.5578 115.855 80.5578 116.251 79.677 116.251C78.796 116.251 78.796 116.123 77.915 116.123C77.034 116.123 77.034 116.597 76.1531 116.597C75.2721 116.597 75.2722 115.728 74.3912 115.728C73.5103 115.728 73.5103 116.403 72.6294 116.403C71.7484 116.403 71.7484 115.671 70.8674 115.671C69.9865 115.671 69.9865 116.351 69.1056 116.351C68.2246 116.351 68.2246 116.136 67.3436 116.136C66.4626 116.136 66.4627 116.051 65.5818 116.051C64.7009 116.051 64.7009 116.226 63.82 116.226C62.9392 116.226 62.9392 116.108 62.0583 116.108C61.1775 116.108 61.1775 116.621 60.2966 116.621C59.4158 116.621 59.4158 116.155 58.5349 116.155C57.654 116.155 57.654 116.201 56.773 116.201C55.8922 116.201 55.8922 115.833 55.0113 115.833C54.1306 115.833 54.1306 116.296 53.2498 116.296C52.3689 116.296 52.3689 115.806 51.4881 115.806C50.6073 115.806 50.6073 116.285 49.7265 116.285C48.8457 116.285 48.8457 116.563 47.965 116.563C47.3777 116.563 46.7904 116.563 46.2032 116.563C45.3225 116.563 45.3225 116.008 44.4418 116.008C43.5609 116.008 43.5609 116.635 42.68 116.635C41.7993 116.635 41.7993 115.817 40.9186 115.817C40.0378 115.817 40.0378 115.773 39.1569 115.773C38.2763 115.773 38.2763 115.768 37.3956 115.768C36.5149 115.768 36.5149 116.228 35.6342 116.228C34.7533 116.228 34.7533 115.827 33.8725 115.827C33.5964 115.827 33.3203 115.879 33.0443 115.931C32.9037 115.957 32.7631 115.984 32.6225 116.004C32.5049 116.021 32.361 116.421 32.2459 116.184Z" fill="black"/>
<path d="M80.4963 29H46.5037C41.8072 29 38 32.8072 38 37.5037V71.4963C38 76.1928 41.8072 80 46.5037 80H80.4963C85.1928 80 89 76.1928 89 71.4963V37.5037C89 32.8072 85.1928 29 80.4963 29Z" fill="#99C9FF"/>
</svg>
