<svg width="194" height="160" viewBox="0 0 194 160" fill="none" xmlns="http://www.w3.org/2000/svg">
<path d="M157.463 87.4125C157.463 89.4353 157.332 91.4253 157.069 93.3824C154.131 116.867 133.989 135.171 109.793 135.171H78.29C73.3164 135.171 69.2427 139.13 69.0914 144.111L68.7322 155.939L39.4053 134.102C28.6699 131.783 19.2475 125.813 12.5174 117.574C5.01101 108.407 0.83712 96.4302 1.87239 83.5242C3.87448 58.5653 25.3263 39.6542 50.3191 39.6542H109.793C122.893 39.6542 134.81 45.0154 143.461 53.6823C146.875 57.1031 149.781 61.05 152.029 65.3752C155.509 71.97 157.463 79.4692 157.463 87.4125Z" fill="#FAF9F7"/>
<path d="M158.551 87.228C159.692 85.0048 158.515 82.8911 158.337 81.4614C157.973 78.809 157.952 78.8092 157.383 76.1939C156.724 73.6049 157.099 73.4899 156.229 70.934C155.279 68.4116 155.479 68.3236 154.329 65.8686C153.104 63.4625 152.664 63.7039 151.282 61.4128C149.825 59.165 149.664 59.2746 148.047 57.1573C146.363 55.0972 146.757 54.7439 144.895 52.7918C142.97 50.9105 143.163 50.6963 141.095 48.943C138.969 47.267 139.014 47.2004 136.764 45.6853C135.63 44.9383 135.02 44.6364 134.41 44.3397C133.803 44.0351 133.199 43.7317 131.99 43.125C129.559 41.9395 129.467 42.1425 126.966 41.1511C124.431 40.2497 124.459 40.1561 121.856 39.4447C119.232 38.8319 119.27 38.6232 116.593 38.2073C115.249 38.0275 114.567 38.0438 113.886 38.0991C113.205 38.1509 112.531 38.1546 111.187 38.1393C108.499 38.0692 108.561 37.6482 105.939 37.6325C103.338 37.6325 103.338 38.3435 100.736 38.3435C98.1332 38.3435 98.1332 37.4912 95.5309 37.4912C92.9292 37.4912 92.9292 37.5863 90.3275 37.5863C87.7258 37.5863 87.7258 37.818 85.1238 37.818C82.5226 37.818 82.5226 38.1236 79.9212 38.1236C77.3191 38.1236 77.3191 38.2987 74.7172 38.2987C72.1144 38.2987 72.1144 37.465 69.5116 37.465C66.9093 37.465 66.9093 37.595 64.3067 37.595C61.7046 37.595 61.7046 38.4011 59.1023 38.4011C56.4999 38.4011 56.4999 37.8496 53.8974 37.8496C51.2777 37.8789 51.3361 38.1206 48.6465 38.2665C45.9738 38.4036 45.9394 38.0065 43.27 38.416C40.591 38.769 40.6895 39.2785 38.0952 39.9023C36.7902 40.1816 36.1376 40.3213 35.4772 40.4626C34.8215 40.607 34.162 40.7524 32.8892 41.183C30.3691 42.0951 30.1679 41.6339 27.6615 42.7017C25.2671 43.9984 25.5817 44.573 23.2859 45.9466C22.175 46.6999 21.575 47.0103 20.9715 47.3231C20.3676 47.6347 19.7449 47.928 18.7163 48.8082C16.6332 50.5366 16.9362 50.8831 15.0535 52.7787C13.1279 54.6324 12.9103 54.433 11.1649 56.4899C10.2738 57.5016 9.77268 57.9649 9.28208 58.4464C8.78041 58.9182 8.27395 59.3961 7.49316 60.5151C6.03211 62.8242 6.94321 63.3578 5.62009 65.6696C4.55702 68.1212 4.20893 67.9735 3.26262 70.4919C2.83077 71.7665 2.67624 72.4245 2.52265 73.079C2.44185 73.4053 2.36106 73.7312 2.26052 74.1367C2.18831 74.5509 2.08967 75.0437 1.93808 75.6955C1.3434 78.2987 0.603136 78.1588 0.283282 80.8609C-0.0799754 83.5577 0.71837 83.6196 0.615732 86.2779C0.599322 88.9417 0.258197 88.9555 0.446311 91.6374C0.552575 92.9767 0.605714 93.6464 0.659135 94.3193C0.703976 94.9927 0.747754 95.6689 1.01839 96.991C1.58217 99.6294 1.7824 99.5811 2.54241 102.155C3.40057 104.703 3.67274 104.602 4.71262 107.058C5.25713 108.276 5.52938 108.885 5.8023 109.496C6.0837 110.102 6.33842 110.725 7.02248 111.875C8.39558 114.168 8.3353 114.212 9.88238 116.398C11.5069 118.521 11.1279 118.836 12.9293 120.855C14.7787 122.829 14.8818 122.727 16.8648 124.552C18.9233 126.287 18.6746 126.608 20.8776 128.202C23.1171 129.736 23.0686 129.82 25.4262 131.18C26.6238 131.831 27.3429 131.92 28.0626 131.979C28.775 132.055 29.4818 132.11 30.7108 132.627C33.1808 133.613 32.8545 134.546 35.4628 135.353C36.3274 135.598 36.9102 135.75 37.431 135.832C37.69 135.876 37.9307 135.917 38.1796 135.96C38.2754 135.974 38.4941 136.017 38.4981 136.009C38.4896 135.998 38.5082 135.994 38.5247 135.99L38.5579 135.986L38.5788 135.99C38.6316 136.026 38.688 136.065 38.7481 136.106C38.987 136.278 39.2846 136.493 39.6433 136.752C41.731 138.306 41.9855 137.963 44.0732 139.518C46.1606 141.072 46.3957 140.755 48.4832 142.31C50.5708 143.864 49.9737 144.669 52.0614 146.223C54.1495 147.778 54.6106 147.157 56.6987 148.711C58.0743 149.77 59.4502 150.828 60.8264 151.887C61.8702 152.664 62.2931 153.186 62.716 153.708C62.9274 153.969 63.1389 154.23 63.428 154.523C63.5726 154.67 63.7365 154.824 63.9296 154.991C64.0991 155.125 64.2783 155.267 64.4692 155.419C64.6926 155.588 64.9295 155.768 65.1823 155.959C67.9373 157.979 68.8096 158.619 70.6934 160C70.7062 159.494 70.734 158.404 70.7747 156.808C70.8513 154.284 70.6752 152.907 70.4914 151.785C70.2964 151.03 70.0963 150.442 70.1366 149.119C70.1901 147.393 70.2437 145.666 70.2972 143.94C70.3649 142.803 70.574 142.261 70.7445 141.726C70.96 141.205 71.1467 140.66 71.7946 139.73C72.4642 138.81 73.0069 138.54 73.4834 138.265C73.9963 138.03 74.4734 137.772 75.4586 137.359C76.4531 136.962 76.9913 136.893 77.5177 136.758C77.7958 136.728 78.0365 136.684 78.4194 136.659C78.8258 136.643 79.3135 136.632 79.9637 136.632C82.5643 136.632 82.5643 137.052 85.1648 137.052C87.7652 137.052 87.7652 137.255 90.3655 137.255C92.9658 137.255 92.9659 136.786 95.5663 136.786C98.1671 136.786 98.1671 137.093 100.768 137.093C103.369 137.093 103.369 136.611 105.971 136.611C108.588 136.582 108.537 136.514 111.209 136.383C113.873 136.239 113.905 136.612 116.564 136.201C119.23 135.851 119.168 135.529 121.764 134.909C123.07 134.624 123.722 134.476 124.372 134.308C125.025 134.154 125.682 134 126.954 133.568C129.441 132.571 129.606 132.933 132.067 131.798C133.253 131.141 133.772 130.679 134.285 130.221C134.798 129.761 135.321 129.334 136.412 128.559C138.621 127.054 138.899 127.433 140.976 125.703C143.093 124.019 142.627 123.505 144.552 121.667C146.424 119.771 146.478 119.812 148.255 117.807C149.793 115.619 150.114 115.84 151.548 113.559C152.893 111.222 152.805 111.172 153.93 108.736C155.11 106.325 155.081 106.312 156.009 103.793C156.5 102.544 156.848 101.952 157.179 101.344C157.524 100.742 157.872 100.13 158.226 98.8145C158.542 97.6814 158.465 96.4683 158.531 95.2998C158.583 94.1219 158.651 92.9797 158.903 91.8293C159.131 91.0397 160.799 87.9312 158.42 87.4821C157.993 87.4027 157.517 87.4097 157.058 87.4165C156.891 87.4191 156.709 87.4245 156.588 87.4748C156.454 87.5302 156.44 87.6203 156.435 87.7013C156.323 89.4482 155.987 91.1786 155.574 92.8682C155.079 94.5619 154.681 96.2342 154.285 97.8972C153.958 99.104 153.842 99.7203 153.725 100.339C153.663 100.648 153.601 100.957 153.523 101.343C153.411 101.718 153.252 102.162 153.035 102.751C152.598 103.929 152.406 104.528 152.213 105.129C151.999 105.72 151.729 106.29 151.193 107.43C150.142 109.721 149.893 109.586 148.647 111.762C147.31 113.884 147.221 113.827 145.779 115.879C144.665 117.128 143.521 118.345 142.347 119.532C140.539 121.257 140.948 121.708 138.961 123.283C137.02 124.906 137.045 124.943 134.951 126.373C133.917 127.112 133.229 127.2 132.574 127.319C131.916 127.435 131.269 127.545 130.184 128.151C127.926 129.178 128.096 129.577 125.766 130.502C124.578 130.903 123.978 131.084 123.378 131.264C123.079 131.356 122.78 131.448 122.407 131.563C122.026 131.65 121.568 131.755 120.959 131.895C118.525 132.48 118.478 132.242 116.014 132.562C113.563 132.948 113.619 133.646 111.087 133.788C108.561 133.913 108.505 133.379 105.92 133.406C104.185 133.418 102.451 133.431 100.716 133.443C98.1139 133.443 98.1139 133.723 95.5114 133.723C92.9097 133.723 92.9097 133.11 90.3081 133.11C87.7062 133.11 87.7062 132.926 85.1044 132.926C82.5031 132.926 82.5031 133.652 79.9017 133.652C79.2512 133.652 78.7633 133.624 78.3567 133.584C77.8844 133.552 77.5014 133.526 77.1172 133.5C76.3487 133.513 75.5166 133.466 74.0435 134.056C72.5878 134.677 71.95 135.162 71.2803 135.589C70.6639 136.08 69.9769 136.542 69.037 137.847C68.1225 139.175 68.026 140.034 67.8962 140.805C67.8364 141.605 67.7316 142.367 67.6501 143.87C67.5521 146.528 66.9316 146.471 66.8482 149.089C66.8284 149.74 66.8344 150.23 66.8532 150.638C66.8663 150.841 66.8782 151.025 66.8894 151.199C66.9046 151.34 66.9168 151.623 66.9389 151.581C67.0192 151.678 67.0964 151.872 67.0875 152.167C67.0831 152.311 67.1127 152.472 67.1578 152.679C67.0627 152.793 66.989 153.101 66.253 152.553C65.8618 152.252 65.5684 152.026 65.3237 151.837C65.0073 151.581 64.7537 151.377 64.5003 151.172C63.9963 150.759 63.4922 150.345 62.4481 149.568C60.3592 148.012 60.6202 147.661 58.5314 146.105C56.443 144.55 56.6185 144.314 54.5302 142.759C52.4412 141.203 52.3466 141.331 50.2577 139.775C48.1694 138.221 48.0124 138.432 45.924 136.877C43.8354 135.322 44.1734 134.866 42.0848 133.311C41.4708 132.854 41.1704 132.703 40.3088 132.166C40.0333 132.131 39.7733 132.098 39.5219 132.066C39.2663 132.037 39.2418 132.064 39.0943 132.063C38.8566 132.072 38.6246 132.08 38.375 132.09C37.8685 132.105 37.2886 132.027 36.4179 131.78C34.0133 131.031 34.0146 131.018 31.6787 130.076C30.5161 129.589 29.9882 129.228 29.4668 128.865C28.9376 128.517 28.4298 128.138 27.3298 127.545C25.1672 126.287 25.3519 125.987 23.3118 124.582C21.3058 123.124 21.2095 123.242 19.3086 121.63C17.4777 119.943 17.4266 119.991 15.7243 118.167C14.0681 116.302 14.0567 116.307 12.5466 114.32C11.1078 112.284 10.8379 112.457 9.55051 110.297C8.32461 108.103 8.447 108.037 7.39966 105.764C6.4298 103.456 6.30988 103.499 5.51688 101.115C4.80848 98.711 4.2777 98.8432 3.75095 96.3529C3.49386 95.1055 3.6899 94.4286 3.87295 93.7694C4.04379 93.11 4.24204 92.4627 4.13852 91.2265C3.97015 88.7533 3.65097 88.7602 3.66728 86.2566C3.7665 83.7596 3.31147 83.7224 3.65278 81.2176C3.94239 78.7033 4.52544 78.8147 5.07138 76.3844C5.32465 75.1614 5.34097 74.5179 5.37768 73.8693C5.39933 73.2175 5.42413 72.5555 5.82985 71.3516C6.73971 68.9758 7.78113 69.4305 8.75949 67.1622C10.0119 65.0303 9.2067 64.558 10.5783 62.4302C11.304 61.3949 11.7525 60.9377 12.1976 60.4853C12.4209 60.2594 12.6404 60.0321 12.8991 59.7374C13.1843 59.463 13.509 59.1216 13.9139 58.644C15.5265 56.7322 15.0845 56.3239 16.917 54.5619C18.7067 52.7517 19.4143 53.5591 21.3136 51.9707C22.2537 51.1578 22.6818 50.692 23.0882 50.1808C23.4972 49.6747 23.9143 49.1628 24.9585 48.4518C27.1311 47.1751 27.0804 47.0748 29.3104 45.883C30.4689 45.3719 31.1146 45.2647 31.7524 45.161C32.3972 45.0728 33.002 44.9051 34.1963 44.5398C36.5748 43.7826 36.5912 43.8274 39.0187 43.2932C40.2268 43.0061 40.7999 42.7177 41.3807 42.4279C41.9676 42.1742 42.5695 41.9591 43.815 41.7772C46.3059 41.388 46.3566 41.9782 48.838 41.8437C50.0687 41.7714 50.7111 41.6461 51.3707 41.5417C52.0208 41.4266 52.671 41.3115 53.9715 41.3115C55.7048 41.3396 57.4385 41.3676 59.1726 41.3957C61.7736 41.3957 61.7736 41.8765 64.3745 41.8765C66.976 41.8765 66.976 41.2418 69.5776 41.2418C72.1794 41.2418 72.1794 41.5187 74.7812 41.5187C77.3822 41.5187 77.3822 41.0068 79.9832 41.0068C82.5837 41.0068 82.5837 41.749 85.1843 41.749C87.7846 41.749 87.7846 40.9058 90.3848 40.9058C92.9854 40.9058 92.9854 41.0105 95.5857 41.0105C98.1866 41.0105 98.1865 40.8416 100.787 40.8416C103.389 40.8416 103.389 41.5559 105.99 41.5559C108.567 41.5715 108.648 41.5364 111.137 41.6062C112.386 41.618 113.013 41.5872 113.649 41.5013C114.286 41.413 114.925 41.3696 116.177 41.5348C118.667 41.9242 118.686 41.8376 121.147 42.4124C123.591 43.0853 123.34 43.8928 125.671 44.7242C127.97 45.6367 128.367 44.7388 130.652 45.8558C131.788 46.4236 132.305 46.8002 132.817 47.1771C133.337 47.5425 133.849 47.9147 134.903 48.6094C137 50.0233 136.549 50.6449 138.494 52.1775C140.382 53.7831 140.766 53.3639 142.568 55.1251C144.304 56.9479 143.991 57.2287 145.565 59.1561C147.075 61.1337 147.394 60.9122 148.762 63.0234C150.058 65.1748 149.955 65.2368 151.095 67.4787C152.157 69.7489 152.062 69.7922 152.941 72.131C153.744 74.4921 154.408 74.2984 155.035 76.7646C155.574 79.248 155.314 79.2977 155.657 81.7972C155.857 83.4179 155.228 85.2368 156.464 86.7773L156.614 86.9537C156.758 87.1138 156.951 87.2832 157.303 87.3606C157.714 87.4508 158.447 87.434 158.551 87.228Z" fill="black"/>
<path d="M157.935 84.7226L127.7 92.4771L152.888 64.5007C156.373 71.1058 158.198 82.7624 157.935 84.7226Z" fill="black"/>
<path d="M158.839 84.7981C159.845 84.2647 158.972 83.7706 158.964 83.4832C158.929 83.1178 158.894 82.7525 158.859 82.3871C158.795 81.85 159.122 81.8074 159.049 81.2689C158.973 80.7327 159.153 80.706 159.073 80.1687C158.986 79.6344 158.567 79.7026 158.481 79.173C158.39 78.6439 158.226 78.6739 158.13 78.1478C158.035 77.6221 158.461 77.5387 158.353 77.0119C158.244 76.4856 158.477 76.4365 158.364 75.9089C158.245 75.3829 158.307 75.3689 158.188 74.8424C158.07 74.3154 157.927 74.3496 157.798 73.8262C157.666 73.303 157.492 73.348 157.356 72.8274C157.213 72.3081 157.292 72.2864 157.149 71.7663C157.008 71.2462 157.172 71.1977 157.015 70.6784C156.856 70.1589 156.558 70.2522 156.398 69.7368C156.225 69.2243 156.597 69.0999 156.422 68.5821C156.249 68.064 155.691 68.2637 155.498 67.7583C155.301 67.2409 155.983 67.0227 155.758 66.4525C155.337 65.5282 155.273 65.5782 154.865 64.6789C154.455 63.7678 154.335 63.9878 153.926 63.1496C153.719 62.7259 153.591 62.6096 153.471 62.5089C153.411 62.4582 153.352 62.4104 153.285 62.3272L153.232 62.2574C153.207 62.2794 153.178 62.3255 153.149 62.359C153.089 62.4268 153.025 62.5006 152.951 62.5853C152.36 63.2151 152.361 63.4283 151.804 64.023C151.262 64.6146 150.999 63.8773 150.284 64.6688C149.944 65.0464 149.762 65.2893 149.648 65.4563C149.58 65.5724 149.511 65.6885 149.335 65.8844C148.982 66.2762 149.48 66.7262 149.127 67.118C148.775 67.5098 148.434 67.202 148.081 67.5938C147.728 67.9856 147.938 68.1752 147.585 68.5671C147.233 68.9589 147.038 68.7828 146.685 69.1746C146.332 69.5665 146.627 69.8331 146.275 70.225C145.922 70.6167 145.743 70.4548 145.39 70.8466C145.037 71.2384 144.646 70.8847 144.293 71.2766C143.94 71.6684 144.366 72.0533 144.013 72.4451C143.661 72.8369 143.461 72.6565 143.108 73.0483C142.755 73.4401 143.097 73.7488 142.744 74.1406C142.392 74.5324 142.172 74.3336 141.819 74.7253C141.466 75.1171 141.119 74.8037 140.766 75.1955C140.414 75.5872 141.018 76.1331 140.665 76.5249C140.312 76.9166 140.152 76.772 139.799 77.1638C139.447 77.5556 139.604 77.6979 139.251 78.0896C138.899 78.4813 138.484 78.1063 138.131 78.498C137.778 78.8898 138.272 79.3362 137.92 79.728C137.567 80.1198 137.355 79.928 137.002 80.3198C136.649 80.7115 136.535 80.608 136.182 80.9997C135.829 81.3914 135.954 81.5041 135.601 81.8958C135.249 82.2876 135.43 82.4518 135.078 82.8437C134.725 83.2354 134.643 83.1612 134.29 83.553C133.938 83.9446 133.889 83.9005 133.536 84.2922C133.183 84.6839 132.888 84.4169 132.535 84.8087C132.183 85.2005 132.261 85.2712 131.908 85.663C131.555 86.0546 131.316 85.838 130.963 86.2296C130.787 86.4255 130.682 86.5088 130.578 86.5922C130.484 86.6638 130.224 86.9201 129.895 87.2852C129.173 88.0878 130.082 88.323 129.564 88.8984C129.045 89.4744 127.844 89.5848 127.124 90.3843C126.423 91.163 126.747 91.0659 126.089 91.7967C125.416 92.5444 126.205 92.1994 125.62 92.85C125.014 93.5225 125.866 93.0669 125.342 93.6498C125.096 93.9231 124.439 94.3801 123.724 94.8845C123.303 95.2216 122.88 95.5755 123.42 95.437C124.446 95.1737 125.995 94.1104 126.792 93.9058C127.614 93.695 127.487 93.7982 128.333 93.5812C129.153 93.3709 128.425 94.1296 129.442 93.8689C130.445 93.5834 130.452 93.5813 131.456 93.2957C132.464 93.037 132.63 92.2436 133.381 92.0511C133.788 91.9443 134.196 91.8375 134.603 91.7307C134.945 91.6493 135.286 91.5678 135.628 91.4863C136.138 91.3554 136.225 91.6975 136.735 91.5666C137.245 91.4358 137.209 91.2947 137.719 91.1639C138.229 91.0331 138.316 91.3719 138.826 91.2411C139.335 91.1104 139.377 91.2745 139.887 91.1437C140.397 91.0129 140.3 90.6342 140.81 90.5034C141.32 90.3726 141.384 90.6208 141.894 90.49C142.404 90.3592 142.304 89.9701 142.814 89.8392C143.324 89.7084 143.291 89.5774 143.801 89.4465C144.311 89.3157 144.367 89.5357 144.877 89.4049C145.387 89.2741 145.331 89.0542 145.841 88.9234C146.351 88.7926 146.403 88.998 146.913 88.8672C147.424 88.7363 147.512 89.0845 148.023 88.9536C148.533 88.8228 148.408 88.3343 148.918 88.2035C149.428 88.0727 149.511 88.3986 150.021 88.2678C150.532 88.137 150.412 87.6692 150.922 87.5384C151.432 87.4075 151.473 87.5655 151.983 87.4346C152.493 87.3038 152.55 87.5255 153.06 87.3947C153.57 87.2639 153.521 87.0729 154.031 86.9421C154.372 86.8571 154.712 86.7721 155.053 86.6871C155.563 86.5563 155.708 87.1255 156.218 86.9948C156.658 86.8821 156.934 86.1231 157.44 86.2682C157.624 86.3209 158.522 87.4217 158.12 85.4998C158.035 85.1532 157.941 84.7677 157.851 84.3947C157.816 84.2604 157.777 84.1134 157.742 84.0179C157.703 83.9125 157.682 83.9062 157.665 83.9065C156.925 83.9225 156.078 83.5447 155.38 83.7236C154.869 83.8546 154.909 84.0093 154.399 84.1402C153.888 84.2711 153.911 84.3604 153.4 84.4914C152.89 84.6222 152.86 84.5063 152.35 84.6372C152.01 84.725 151.67 84.8129 151.33 84.9008C150.82 85.0316 150.793 84.9291 150.283 85.06C149.773 85.1909 149.876 85.5943 149.365 85.7252C148.855 85.8561 148.879 85.9502 148.369 86.0812C147.858 86.2121 147.679 85.5088 147.168 85.6397C146.658 85.7706 146.738 86.0849 146.228 86.2158C145.717 86.3467 145.699 86.2761 145.189 86.407C144.679 86.5379 144.619 86.3051 144.109 86.436C143.599 86.5669 143.766 87.2205 143.255 87.3514C142.745 87.4823 142.653 87.1237 142.143 87.2545C141.806 87.3514 141.468 87.4485 141.13 87.5457C140.62 87.6765 140.678 87.9028 140.168 88.0337C139.658 88.1645 139.531 87.6692 139.021 87.8001C138.511 87.9309 138.473 87.783 137.963 87.9138C137.453 88.0446 137.602 88.6301 137.092 88.761C136.582 88.8918 136.492 88.5404 135.982 88.6713C135.472 88.8022 135.436 88.6625 134.926 88.7934C134.416 88.9242 134.554 89.4638 134.043 89.5947C133.585 89.7121 133.219 89.2593 133.261 89.2485C133.236 89.2548 133.171 89.5583 133.048 89.5899C132.954 89.6139 132.613 90.1534 132.364 90.2172C132.129 90.2775 132.264 90.1382 132.065 90.1892C131.846 90.2452 132.528 89.6935 132.439 89.7163C132.325 89.7456 132.916 89.3402 132.889 89.3471C132.871 89.3517 132.764 89.415 132.649 89.4794C132.562 89.5275 132.484 89.5673 132.509 89.5392C132.553 89.49 131.985 89.7929 132.083 89.6839C132.189 89.5667 133.224 89.1237 133.224 89.1237C133.209 89.1399 132.087 89.473 132.222 89.3225C132.305 89.2355 132.388 89.1485 132.471 89.0615C132.596 88.9226 132.938 89.014 132.985 88.9611C133.006 88.9378 133.332 89.0269 133.671 88.6513C134.023 88.2594 133.921 88.1667 134.274 87.7749C134.626 87.3831 134.593 87.3527 134.945 86.9608C135.176 86.6956 135.406 86.4302 135.637 86.1647C135.989 85.7729 135.793 85.5952 136.145 85.2034C136.498 84.8116 136.583 84.8881 136.935 84.4964C137.288 84.1047 137.209 84.0333 137.562 83.6416C137.915 83.2499 137.577 82.9452 137.93 82.5534C138.283 82.1616 138.961 82.7744 139.314 82.3825C139.666 81.9908 139.468 81.812 139.821 81.4203C140.174 81.0286 139.887 80.7698 140.24 80.3781C140.593 79.9864 140.897 80.2612 141.249 79.8695C141.602 79.4777 141.135 79.0558 141.488 78.664C141.841 78.2723 142.477 78.8475 142.83 78.4558C143.183 78.0642 142.67 77.6007 143.022 77.209C143.375 76.8173 143.636 77.0537 143.989 76.6621C144.342 76.2703 143.997 75.9591 144.35 75.5673C144.703 75.1756 145.298 75.713 145.65 75.3212C146.003 74.9296 145.535 74.5069 145.888 74.1153C146.24 73.7237 146.163 73.6538 146.516 73.2622C146.868 72.8706 147.272 73.2354 147.625 72.8438C147.977 72.4521 148.103 72.5654 148.455 72.1737C148.808 71.7819 148.446 71.4547 148.799 71.0629C149.151 70.6713 149.456 70.9468 149.809 70.5551C150.161 70.1636 149.877 69.9066 150.23 69.515C150.582 69.1234 150.634 69.1704 150.987 68.7788C151.339 68.3872 151.636 68.6555 151.989 68.2639C152.165 68.0681 152.155 67.8815 152.145 67.6951C152.077 67.5741 152.002 67.459 152.061 67.3938C152.172 67.2704 152.258 67.5197 152.312 67.4592C152.361 67.4049 152.363 66.7663 152.516 66.5958C152.596 66.47 152.562 66.882 152.525 67.1448C152.491 67.3485 152.465 67.5054 152.435 67.691C152.435 67.691 152.857 66.8849 152.961 67.1303C153.055 67.3509 152.984 67.4068 153.066 67.5981C153.238 68.0518 153.375 68.0194 153.555 68.495C153.739 68.9766 153.18 69.1765 153.341 69.66C153.446 69.9835 153.551 70.3071 153.656 70.6308C153.806 71.1198 154.196 70.9987 154.346 71.4931C154.496 71.9869 154.572 71.9644 154.708 72.4647C154.846 72.9653 154.166 73.1514 154.302 73.6447C154.431 74.1405 155.218 73.939 155.345 74.444C155.47 74.949 155.267 74.9975 155.38 75.5037C155.495 76.0103 154.876 76.1498 154.989 76.6505C155.096 77.1529 155.56 77.0554 155.665 77.5628C155.77 78.0702 155.431 78.1364 155.523 78.6422C155.615 79.148 155.939 79.0902 156.027 79.5994C156.11 80.1084 156.016 80.1236 156.099 80.6315C156.174 81.1389 156.088 81.1507 156.16 81.6566C156.228 82.1606 156.796 82.0888 156.858 82.6007C156.912 83.1097 156.673 83.1253 156.717 83.6231C156.726 83.9463 156.129 84.2468 157.122 84.511L157.243 84.5525C157.359 84.5919 157.515 84.6409 157.804 84.6945C158.141 84.7569 158.747 84.8392 158.839 84.7981Z" fill="black"/>
<path d="M119.51 80.3163L125.094 82.4682L128.531 91.9365L107.481 97.9618L97.6011 86.772L102.326 68.6961L104.474 66.9746L112.207 68.6961L114.784 77.7341L119.51 80.3163Z" fill="#FFEDE0"/>
<path d="M128.493 91.725C127.918 90.9089 127.77 91.782 127.534 91.8403C127.247 91.9135 126.96 91.9868 126.673 92.0601C126.242 92.1663 126.167 91.8622 125.736 91.9685C125.305 92.0747 125.264 91.9057 124.833 92.012C124.402 92.1182 124.5 92.519 124.069 92.6253C123.638 92.7315 123.676 92.8848 123.245 92.991C122.814 93.0972 122.713 92.6854 122.282 92.7916C121.851 92.8978 121.797 92.6755 121.366 92.7817C120.935 92.8879 120.92 92.8275 120.489 92.9337C120.058 93.04 120.091 93.1732 119.66 93.2795C119.229 93.3856 119.272 93.5597 118.841 93.6659C118.41 93.772 118.391 93.6944 117.96 93.8006C117.529 93.9068 117.488 93.7407 117.057 93.8469C116.627 93.9531 116.699 94.2504 116.269 94.3566C115.838 94.4627 115.747 94.0918 115.316 94.198C114.885 94.3041 115.022 94.8633 114.592 94.9694C114.161 95.0756 113.996 94.4053 113.565 94.5115C113.135 94.6176 113.153 94.6924 112.722 94.7986C112.291 94.9048 112.336 95.087 111.905 95.1931C111.475 95.2992 111.534 95.5395 111.103 95.6457C110.672 95.7519 110.706 95.8896 110.275 95.9958C109.844 96.1019 109.683 95.4462 109.252 95.5524C108.822 95.6586 108.847 95.7608 108.416 95.867C107.985 95.9732 108.141 96.6072 107.71 96.7133C107.279 96.8195 107.173 96.3857 106.742 96.4919C106.311 96.598 106.376 96.8652 105.946 96.9714C105.515 97.0776 105.454 96.8295 105.023 96.9357C104.592 97.0418 104.684 97.4175 104.254 97.5237C103.823 97.6298 103.767 97.4017 103.336 97.5078C102.905 97.614 102.783 97.1157 102.352 97.2218C101.921 97.328 102.054 97.8703 101.623 97.9764C101.193 98.0826 101.13 97.8284 100.699 97.9346C100.269 98.0408 100.375 98.4757 99.9446 98.5819C99.5138 98.688 99.445 98.4079 99.0143 98.5141C98.5834 98.6203 98.475 98.1787 98.0442 98.2848C97.6134 98.391 97.8023 99.16 97.3715 99.2662C96.9407 99.3724 96.8907 99.1686 96.4599 99.2747C96.0453 99.3769 96.0422 99.5903 95.6838 99.6786C95.4722 99.7307 95.4903 99.1659 95.4466 99.1767C95.4065 99.1866 95.0796 99.9341 94.8399 99.9932C94.6135 100.049 94.8852 99.6955 94.7447 99.7301C94.6731 99.7477 94.6799 99.712 94.7011 99.6706C94.7688 99.5777 94.8362 99.4957 94.8531 99.4361C94.8842 99.3277 94.6723 99.475 94.7175 99.3166C94.7587 99.1727 94.4819 99.2759 94.5438 99.0591C94.6044 98.847 94.7151 98.8507 94.7663 98.6715C94.8842 98.259 94.9487 98.2661 95.0699 97.8422C95.1921 97.4149 95.5636 97.5216 95.6858 97.0944C95.8079 96.6671 95.7096 96.6389 95.8317 96.2116C95.9539 95.7843 96.2555 95.8709 96.3776 95.4438C96.4997 95.0166 96.581 95.0399 96.7031 94.6128C96.8252 94.1857 96.0477 93.9626 96.1699 93.5354C96.292 93.1082 97.0565 93.3275 97.1786 92.9003C97.3007 92.4731 97.1367 92.4259 97.2588 91.9988C97.3809 91.5716 97.0486 91.4763 97.1707 91.0491C97.2928 90.6221 96.9861 90.5341 97.1081 90.1069C97.2302 89.6798 98.0095 89.9034 98.1316 89.4763C98.2537 89.0491 97.6519 88.8764 97.774 88.4492C97.8962 88.0219 97.9599 88.0403 98.0821 87.613C98.2042 87.1859 98.721 87.3342 98.8431 86.907C98.9652 86.48 98.9139 86.4653 99.036 86.0382C99.158 85.6112 98.4797 85.4165 98.6018 84.9895C98.6811 84.7042 98.7604 84.4189 98.8398 84.1335C98.9267 83.8505 99.0136 83.5672 99.1006 83.2839C99.2227 82.8566 99.5519 82.9511 99.6741 82.5239C99.7962 82.0968 99.6603 82.0578 99.7824 81.6307C99.9045 81.2036 100.231 81.2972 100.353 80.8702C100.475 80.4432 100.633 80.4885 100.755 80.0615C100.877 79.6345 100.512 79.5299 100.634 79.1029C100.756 78.6758 100.995 78.7444 101.117 78.3173C101.24 77.8901 100.865 77.7826 100.987 77.3555C101.109 76.9282 100.983 76.892 101.105 76.4648C101.227 76.0377 101.439 76.0985 101.561 75.6714C101.683 75.2443 101.471 75.1836 101.594 74.7566C101.716 74.3294 101.913 74.3861 102.035 73.9589C102.158 73.5316 102.493 73.6278 102.615 73.2006C102.737 72.7734 102.267 72.6384 102.389 72.2113C102.511 71.7841 102.825 71.8741 102.947 71.4469C103.069 71.0197 102.619 70.8905 102.741 70.4633C102.863 70.0361 103.015 70.0797 103.137 69.6524C103.259 69.2252 103.473 69.2865 103.595 68.8593C103.717 68.4321 103.533 68.3793 103.655 67.9522C103.739 67.668 103.822 67.3839 103.906 67.0997C104.028 66.6725 104.576 66.8297 104.698 66.4026C104.804 66.0342 104.287 65.4864 104.641 65.1892C104.769 65.0814 106.111 64.9415 104.301 64.3469C103.969 64.2481 103.6 64.1383 103.243 64.032C103.113 63.9983 102.97 63.9615 102.875 63.9369C102.768 63.9163 102.753 63.9284 102.746 63.9409C102.421 64.4811 101.715 64.9167 101.548 65.501C101.426 65.9284 101.575 65.9712 101.453 66.3987C101.33 66.8262 101.416 66.8509 101.294 67.2785C101.172 67.706 101.06 67.6739 100.938 68.1014L100.695 68.9566C100.573 69.3839 100.475 69.3556 100.352 69.7829C100.23 70.2104 100.619 70.3218 100.496 70.7493C100.374 71.1767 100.465 71.2027 100.343 71.6301C100.22 72.0576 99.5435 71.8634 99.4213 72.2908C99.2991 72.7182 99.6016 72.8051 99.4795 73.2325C99.3573 73.6598 99.2895 73.6404 99.1673 74.0677C99.0451 74.4951 98.821 74.4308 98.6988 74.8581C98.5766 75.2855 99.2058 75.4661 99.0837 75.8935C98.9615 76.3209 98.6163 76.2218 98.4941 76.6491C98.3863 77.0797 98.386 77.0811 98.2782 77.5118C98.156 77.9391 98.3738 78.0016 98.2516 78.4289C98.1295 78.8561 97.6528 78.7194 97.5307 79.1466C97.4085 79.5738 97.2661 79.533 97.144 79.9602C97.0219 80.3874 97.5854 80.5491 97.4633 80.9762C97.3413 81.4035 97.003 81.3065 96.8809 81.7337C96.7587 82.1611 96.6243 82.1226 96.5021 82.55C96.3799 82.9773 96.8993 83.1263 96.7771 83.5536C96.655 83.981 96.1609 83.8392 96.0388 84.2665C95.9166 84.6939 96.1756 84.7682 96.0534 85.1955C95.9313 85.6229 96.3397 85.74 96.2176 86.1674C96.0954 86.5947 96.0007 86.5675 95.8786 86.9948C95.7564 87.4222 95.4157 87.3244 95.2936 87.7518C95.1714 88.179 94.9423 88.1133 94.8202 88.5406C94.698 88.9679 94.8215 89.0034 94.6994 89.4308C94.5772 89.858 94.7821 89.9168 94.66 90.3441C94.5378 90.7714 94.0966 90.6448 93.9744 91.0721C93.8523 91.4994 94.4229 91.6631 94.3007 92.0904C94.2162 92.3743 94.1317 92.6583 94.0471 92.9422C93.9249 93.3695 93.6306 93.2851 93.5084 93.7124C93.3863 94.1396 93.1044 94.0587 92.9823 94.486C92.8601 94.9133 92.9893 94.9503 92.8671 95.3776C92.745 95.8049 92.7874 95.817 92.6653 96.2443C92.5898 96.5306 92.5143 96.8171 92.4386 97.1038C92.3138 97.5406 92.5701 97.5807 92.4358 98.0508C92.223 98.7948 92.1086 98.792 91.8862 99.5699C91.6639 100.348 91.7845 100.302 91.5712 101.048C91.3523 101.813 91.9264 101.411 91.7462 102.042C91.6527 102.369 91.2759 102.831 90.8911 103.346C90.7629 103.6 90.7001 103.831 91.1229 103.726C91.9935 103.512 92.2446 103.183 93.0352 102.988C93.8489 102.787 94.0353 102.355 94.7331 102.183C95.4301 102.011 95.4203 102.424 96.2403 102.222C96.7577 102.094 96.5492 101.515 96.9994 101.405C97.4301 101.298 97.629 102.109 98.0598 102.003C98.4904 101.897 98.33 101.244 98.7606 101.137C99.1913 101.031 99.2731 101.364 99.7038 101.258C100.134 101.152 100.027 100.714 100.458 100.607C100.888 100.501 101.074 101.258 101.505 101.152C101.936 101.046 101.789 100.451 102.22 100.345C102.651 100.238 102.627 100.14 103.057 100.034C103.488 99.9278 103.614 100.442 104.045 100.336C104.475 100.23 104.514 100.389 104.945 100.283C105.376 100.177 105.263 99.7159 105.694 99.6097C106.124 99.5036 106.219 99.8918 106.65 99.7857C107.081 99.6795 106.992 99.3175 107.422 99.2114C107.853 99.1053 107.869 99.1715 108.3 99.0654C108.73 98.9592 108.823 99.3374 109.254 99.2312C109.684 99.1251 109.562 98.626 109.993 98.5198C110.423 98.4137 110.477 98.6315 110.908 98.5253C111.338 98.4192 111.239 98.0166 111.67 97.9105C112.1 97.8044 112.244 98.3881 112.674 98.282C113.105 98.1759 112.942 97.5127 113.373 97.4067C113.803 97.3006 113.823 97.3829 114.254 97.2769C114.684 97.1707 114.652 97.0379 115.082 96.9317C115.513 96.8256 115.651 97.3873 116.082 97.2812C116.37 97.2145 116.658 97.1478 116.946 97.081C117.377 96.9749 117.282 96.5884 117.712 96.4823C118.143 96.3762 118.125 96.3051 118.556 96.199C118.987 96.0929 119.15 96.7593 119.581 96.6531C120.012 96.5469 119.822 95.7758 120.253 95.6697C120.684 95.5635 120.734 95.7657 121.164 95.6596C121.595 95.5535 121.742 96.1534 122.173 96.0473C122.604 95.9411 122.493 95.4905 122.924 95.3844C123.354 95.2782 123.435 95.6049 123.866 95.4988C124.296 95.3927 124.221 95.0854 124.651 94.9792C125.082 94.8731 125.104 94.9625 125.535 94.8563C125.965 94.7502 125.985 94.8302 126.416 94.7241C126.846 94.6179 126.712 94.0691 127.142 93.963C127.573 93.8568 127.627 94.0745 128.058 93.9683C128.332 93.9008 128.788 94.4092 128.818 93.3829L128.819 93.2597C128.819 93.1411 128.811 92.9844 128.756 92.7051C128.692 92.3788 128.547 91.8015 128.493 91.725Z" fill="black"/>
<path d="M191.248 29.4089C194.262 25.6171 191.192 17.1281 184.107 10.0302C177.023 2.93244 168.549 -0.14397 164.765 2.87643L164.727 2.83911L103.559 64.1216C102.658 65.0244 103.046 66.5641 104.268 66.929L111.792 69.1771L114.595 78.5943C114.75 79.1154 115.146 79.5295 115.66 79.7065L125.788 83.1998L127.409 89.8214C127.722 91.0972 129.306 91.5407 130.233 90.6118L191.285 29.4462L191.248 29.4089Z" fill="#FFDA75"/>
<path d="M190.623 28.8582C189.079 29.09 188.795 30.523 188.201 31.1184C187.48 31.8438 186.76 32.5692 186.039 33.2946C184.957 34.3793 184.736 34.1579 183.653 35.2426C182.57 36.3276 182.447 36.2046 181.364 37.2896C180.281 38.3743 180.573 38.6662 179.49 39.7509C178.408 40.8352 178.519 40.9469 177.437 42.0314C176.355 43.1157 176.055 42.8159 174.973 43.9002C173.89 44.9849 173.729 44.8229 172.646 45.9076C171.91 46.6155 171.174 47.3239 170.437 48.0327C169.355 49.1175 169.451 49.2145 168.369 50.2992C167.286 51.3838 167.413 51.5105 166.33 52.5951C165.248 53.6795 165.191 53.623 164.109 54.7074C163.027 55.7918 162.906 55.6709 161.823 56.7553C160.741 57.8399 160.957 58.0563 159.874 59.1409C158.792 60.2253 158.522 59.9552 157.44 61.0396C156.358 62.1236 156.764 62.5308 155.682 63.6149C154.6 64.6993 154.113 64.2112 153.03 65.2956C151.948 66.3796 152.003 66.4341 150.921 67.5182C149.839 68.6023 149.971 68.7349 148.889 69.8191C147.807 70.903 147.982 71.078 146.9 72.162C145.818 73.2461 145.918 73.3464 144.835 74.4306C143.753 75.5151 143.276 75.0377 142.194 76.1222C141.112 77.2065 141.186 77.281 140.104 78.3654C139.021 79.4497 139.482 79.9113 138.4 80.9956C137.317 82.08 137.002 81.7641 135.92 82.8485C134.837 83.9328 135.032 84.1274 133.949 85.2117C132.867 86.2959 132.687 86.1153 131.605 87.1996C130.522 88.284 130.795 88.5575 129.713 89.6419C129.437 89.9425 129.275 89.8879 129.132 89.8443C128.998 89.7807 128.883 89.7118 128.729 89.553C128.648 89.4626 128.657 89.3518 128.693 89.2803C128.714 88.7513 128.882 88.264 128.623 87.2066C128.258 85.7176 127.717 85.8506 127.352 84.3615C127.312 84.1784 127.276 84.0178 127.244 83.8738C127.195 83.6301 127.152 83.4148 127.113 83.2176C127.047 82.8082 126.993 82.4752 126.94 82.1467C126.622 82.006 126.31 81.8684 125.931 81.7008C125.737 81.6241 125.526 81.5405 125.286 81.4458C125.143 81.3928 124.984 81.3337 124.8 81.2659C123.353 80.7668 123.208 81.1903 121.761 80.6913C120.314 80.1921 120.407 79.9193 118.96 79.4202C118.237 79.1707 117.912 78.9384 117.587 78.7061C117.425 78.59 117.262 78.4738 117.05 78.3555C116.944 78.2964 116.825 78.2367 116.688 78.1762C116.577 78.1317 116.454 78.0825 116.313 78.0261C116.322 78.032 116.126 78.1842 115.89 78.1414C115.626 77.904 115.337 77.5506 115.134 76.8687C114.696 75.3992 114.897 75.3393 114.46 73.8699C114.022 72.4006 113.825 72.4596 113.387 70.9903C113.217 70.4187 113.202 70.0921 113.19 69.7097C113.137 69.1905 113.111 68.6993 112.979 67.9888C112.627 67.8342 112.148 67.6585 111.496 67.4638C111.371 67.4289 111.253 67.3963 111.142 67.3654C111.059 67.3483 110.982 67.3322 110.907 67.3168C110.759 67.291 110.626 67.2776 110.503 67.2725C110.256 67.2622 110.05 67.285 109.843 67.3078C109.431 67.3534 109.018 67.399 108.284 67.1799C106.818 66.7416 106.897 66.4751 105.431 66.0369C105.064 65.9267 104.745 65.8233 104.748 65.8073C104.677 65.7703 104.636 65.7182 104.603 65.6692C104.545 65.563 104.502 65.4552 104.495 65.2521C104.512 65.0429 104.556 64.9606 104.626 64.83C104.868 64.5301 105.109 64.2302 105.65 63.6882C106.733 62.6038 106.564 62.4353 107.647 61.351C108.729 60.267 108.805 60.3431 109.887 59.2591C110.623 58.552 111.359 57.8445 112.096 57.1366C113.178 56.0526 113.451 56.3264 114.533 55.2424C115.615 54.1581 115.543 54.0856 116.625 53.0013C117.707 51.9174 117.929 52.1397 119.011 51.0557C120.093 49.9719 120.153 50.0318 121.234 48.948C122.316 47.8641 121.744 47.2912 122.826 46.2073C123.908 45.1231 124.471 45.6865 125.553 44.6024C126.635 43.5182 126.514 43.3973 127.596 42.3132C128.678 41.2294 128.434 40.9846 129.515 39.9008C130.597 38.817 130.372 38.591 131.453 37.5073C132.535 36.4235 133.108 36.9977 134.19 35.9139C135.272 34.8298 134.829 34.3863 135.911 33.3023C136.648 32.5957 137.385 31.8886 138.123 31.181C139.204 30.0972 139.584 30.4781 140.666 29.3942C141.374 28.6595 142.083 27.9245 142.792 27.1892C143.873 26.1056 143.374 25.6057 144.456 24.522L146.615 22.35C147.34 21.6314 148.066 20.9128 148.791 20.1942C149.873 19.1101 150.115 19.3527 151.197 18.2686C152.279 17.1848 152.179 17.0847 153.261 16.0009C154.343 14.9173 154.582 15.1577 155.664 14.0741C156.746 12.9906 156.862 13.1069 157.943 12.0234C159.025 10.9399 158.757 10.6712 159.838 9.58773C160.92 8.50404 161.095 8.68009 162.177 7.5964C163.259 6.51247 162.983 6.23646 164.065 5.15253C164.806 4.41065 164.996 4.13298 165.48 3.59314H163.976C163.984 3.60068 163.999 3.61421 164.015 3.62793L164.753 4.28159L165.426 3.70777C165.505 3.64039 165.711 3.50144 166.003 3.30035C166.291 3.1881 166.509 3.11179 166.691 3.05506C166.888 3.0252 167.052 3.02353 167.21 3.01326C167.519 2.97589 167.853 3.02372 168.497 2.98163C169.161 3.00585 169.501 2.96376 169.854 2.97713C170.204 2.96551 170.561 2.96113 171.254 3.1441C172.635 3.53493 172.567 3.7417 173.899 4.28364C175.217 4.89999 175.058 5.20997 176.313 5.91778C177.541 6.68216 177.82 6.25859 179.027 7.12237C180.207 8.02193 180.024 8.25379 181.133 9.21974C182.249 10.1769 182.543 9.86714 183.619 10.9051C184.654 11.9848 184.541 12.0886 185.506 13.2173C186.432 14.3778 186.286 14.4952 187.127 15.6995C187.955 16.9097 188.12 16.8093 188.855 18.0837C189.562 19.3686 189.548 19.3802 190.122 20.7128C190.409 21.3823 190.368 21.7761 190.343 22.1536C190.329 22.5321 190.278 22.9011 190.43 23.559C190.663 24.6478 191.404 25.823 190.938 26.8668C190.856 27.0553 190.436 27.382 190.208 27.6382C190.005 27.9247 189.957 28.1903 190.66 28.8969C190.912 29.1434 191.212 29.384 191.506 29.6119C191.613 29.6945 191.73 29.7839 191.826 29.8158C191.933 29.8508 191.977 29.8038 192.012 29.7583C193.634 27.8418 194.12 25.1004 193.63 22.8595C193.442 22.0317 193.292 21.6373 193.117 21.2603C192.956 20.8761 192.798 20.4974 192.481 19.7404C192.185 18.9757 191.969 18.6324 191.777 18.2754C191.586 17.9172 191.388 17.5655 190.99 16.8693C190.188 15.483 190.285 15.4188 189.381 14.0993C188.464 12.79 188.435 12.8135 187.44 11.5702C186.406 10.3618 186.478 10.2969 185.376 9.1464C184.229 8.03911 183.981 8.30422 182.786 7.27692C181.593 6.2433 181.514 6.33816 180.259 5.38589C178.979 4.47103 179.356 3.89383 177.974 3.03803C176.555 2.23824 176.41 2.51903 174.942 1.83564C173.43 1.22131 173.458 1.14141 171.851 0.689553C171.035 0.469927 170.623 0.358878 170.202 0.245385C169.789 0.109767 169.345 0.0265255 168.443 0C167.515 0.0511249 167.067 0.250349 166.646 0.534628C166.223 0.77901 165.838 1.06367 165.003 1.45308C164.548 1.73836 164.212 1.9295 164.056 1.98398L165.57 2.06961C165.558 2.05256 165.546 2.03587 165.54 2.02641L164.971 1.23289L163.916 2.02637C163.316 2.47808 162.964 2.58589 162.212 3.33837C161.498 4.06796 160.784 4.79767 160.069 5.52749C158.987 6.61184 159.147 6.77231 158.065 7.85672C156.983 8.94074 156.632 8.58948 155.55 9.6735C154.468 10.7577 154.363 10.6527 153.281 11.7368C152.199 12.8208 152.614 13.2361 151.532 14.32C150.449 15.4042 150.201 15.155 149.119 16.2392C148.036 17.3237 147.937 17.2246 146.855 18.3091C145.772 19.3935 146.154 19.7763 145.072 20.8606C143.99 21.9449 143.626 21.5809 142.544 22.6652C141.462 23.7496 141.652 23.9404 140.57 25.0247C139.488 26.1091 139.788 26.4101 138.706 27.4944C137.623 28.5787 137.554 28.5089 136.472 29.5931C135.389 30.6776 135.139 30.4266 134.056 31.511C132.974 32.5952 132.805 32.4263 131.723 33.5105C130.641 34.595 130.732 34.686 129.649 35.7705C128.567 36.8547 128.718 37.0057 127.636 38.0898C126.553 39.1741 126.229 38.849 125.146 39.9333C124.064 41.0175 124.484 41.438 123.402 42.5222C122.678 43.2427 121.954 43.9631 121.231 44.6836C120.148 45.7679 119.932 45.551 118.85 46.6353C117.768 47.7194 117.56 47.5116 116.478 48.5957C115.396 49.68 115.491 49.7751 114.409 50.8594C113.698 51.5923 112.987 52.3256 112.276 53.059C111.559 53.786 110.842 54.513 110.125 55.24C109.042 56.3242 109.224 56.5066 108.142 57.5908C107.06 58.675 106.982 58.5965 105.9 59.6807C104.818 60.7646 104.891 60.8379 103.809 61.9218C103.26 62.4713 103.092 62.7964 102.866 63.1788C102.536 63.6983 102.16 64.2182 102.133 65.3604C102.211 66.4818 102.466 67.0696 102.79 67.6657C102.965 67.9613 103.205 68.2338 103.595 68.4782C104.116 68.7416 104.219 68.8152 104.625 68.9413C106.091 69.3794 106.165 69.1308 107.632 69.5689C108.365 69.7879 108.758 69.8075 109.151 69.8271C109.348 69.8368 109.545 69.8466 109.784 69.8813C109.904 69.9037 110.033 69.9279 110.18 69.9552C110.294 69.9842 110.42 70.0165 110.565 70.0534C110.703 70.0946 110.783 70.1483 110.781 70.1908C110.774 70.3682 110.713 70.4504 110.677 70.5671C110.703 70.8919 110.753 71.2484 110.913 71.7873C111.351 73.2567 111.936 73.0818 112.374 74.5513C112.811 76.0202 112.013 76.2588 112.45 77.7278C112.651 78.402 112.877 78.6848 113.134 79.025C113.575 79.6893 114.024 80.2576 115.278 80.78C116.786 81.3008 116.631 81.6093 118.091 82.1132C119.538 82.6123 119.685 82.1853 121.132 82.6844C122.579 83.1835 122.325 83.9207 123.772 84.4198C123.95 84.4812 124.109 84.5262 124.254 84.559C124.29 84.5541 124.284 84.5275 124.312 84.5074C124.354 84.4627 124.426 84.4082 124.52 84.3608C124.593 84.3337 124.673 84.3305 124.744 84.3734C124.782 84.4064 124.806 84.4016 124.848 84.4983C124.901 84.6414 124.951 84.804 124.997 84.993C125.361 86.4815 125.459 86.4574 125.824 87.9458C125.955 88.4801 125.972 88.8389 125.959 89.1493C125.947 89.3019 125.936 89.447 125.924 89.5947C125.922 89.7822 125.879 89.799 125.929 90.1643C125.997 90.6079 126.154 91.2067 126.723 91.7734C127.77 92.7266 128.58 92.7681 129.268 92.8041C129.623 92.7933 129.99 92.7535 130.415 92.5802C130.627 92.4963 130.857 92.3812 131.091 92.2091C131.208 92.1233 131.331 92.0299 131.453 91.916C131.548 91.8234 131.648 91.725 131.755 91.6202C132.837 90.536 132.501 90.2003 133.584 89.1161C134.665 88.0323 134.947 88.315 136.029 87.2312C137.111 86.1475 136.848 85.8839 137.929 84.8002C138.666 84.0944 139.403 83.388 140.141 82.6812C141.222 81.5974 141.497 81.8727 142.579 80.789C143.661 79.705 143.298 79.3416 144.38 78.2576C145.462 77.1734 145.621 77.332 146.703 76.2479C147.784 75.1641 147.492 74.871 148.574 73.7872C149.655 72.7036 150.079 73.1287 151.161 72.0451C152.242 70.9616 151.76 70.4787 152.842 69.3952C153.923 68.3117 153.983 68.3717 155.065 67.2881C156.146 66.2045 156.05 66.1077 157.132 65.024C158.214 63.9401 158.622 64.3491 159.704 63.2652C160.428 62.5454 161.152 61.8257 161.877 61.1059C162.958 60.0221 162.677 59.7407 163.759 58.6569C164.841 57.5734 164.789 57.5216 165.871 56.4381C166.953 55.354 167.437 55.8392 168.519 54.7552C169.601 53.6711 169.041 53.1096 170.123 52.0254C171.205 50.9414 171.352 51.0887 172.434 50.0047C173.516 48.9207 173.952 49.3575 175.034 48.2736C176.116 47.1896 175.788 46.8614 176.87 45.7775C177.952 44.6933 178.19 44.9312 179.272 43.8471C180.354 42.7631 180.13 42.5394 181.212 41.4553C182.294 40.3713 182.359 40.4364 183.441 39.3525C184.523 38.2685 184.581 38.3268 185.663 37.2428C186.745 36.1588 186.346 35.7592 187.428 34.6751C188.51 33.5911 188.669 33.7495 189.751 32.6652C190.441 31.9737 191.65 31.6156 191.62 30.2463L191.611 30.0865C191.599 29.9556 191.57 29.8011 191.449 29.61L191.448 29.284L191.361 29.3395C191.139 29.5002 190.824 29.8146 190.728 30.0048L190.727 28.8875C190.686 28.8649 190.649 28.8542 190.623 28.8582Z" fill="black"/>
<path d="M97.232 83.7648L92.9002 101.408L110.511 97.0683" fill="black"/>
<path d="M110.285 96.2119C109.894 95.3504 109.924 96.1798 109.811 96.2078C109.674 96.2441 109.536 96.2805 109.399 96.3169C109.192 96.3679 109.117 96.0638 108.911 96.1148C108.704 96.1658 108.662 95.9968 108.456 96.0478C108.249 96.0987 108.347 96.4996 108.141 96.5505C107.934 96.6015 107.972 96.7548 107.765 96.8058C107.558 96.8567 107.457 96.445 107.25 96.4959C107.044 96.5468 106.989 96.3245 106.782 96.3754C106.576 96.4264 106.561 96.366 106.354 96.417C106.147 96.4679 106.18 96.6012 105.973 96.6522C105.767 96.7031 105.809 96.8771 105.603 96.9281C105.396 96.979 105.377 96.9014 105.17 96.9524C104.964 97.0032 104.923 96.8372 104.716 96.8881C104.51 96.9391 104.583 97.2363 104.376 97.2872C104.169 97.3382 104.078 96.9672 103.871 97.0181C103.665 97.0691 103.802 97.6282 103.595 97.6792C103.389 97.7301 103.224 97.0598 103.018 97.1107C102.811 97.1616 102.829 97.2365 102.623 97.2874C102.416 97.3383 102.461 97.5205 102.254 97.5714C102.048 97.6223 102.107 97.8627 101.9 97.9136C101.693 97.9645 101.727 98.1022 101.52 98.1531C101.314 98.204 101.153 97.5484 100.946 97.5993C100.739 97.6502 100.765 97.7525 100.558 97.8034C100.351 97.8543 100.507 98.4883 100.3 98.5392C100.094 98.5902 99.987 98.1564 99.7803 98.2073C99.5737 98.2582 99.6393 98.5254 99.4326 98.5763C99.226 98.6273 99.165 98.3792 98.9584 98.4301C98.7518 98.4811 98.8439 98.8567 98.6373 98.9076C98.4306 98.9585 98.3746 98.7304 98.168 98.7813C97.9613 98.8322 97.839 98.3339 97.6323 98.3848C97.4256 98.4358 97.5588 98.978 97.3522 99.029C97.1455 99.0799 97.0831 98.8257 96.8765 98.8766C96.6697 98.9276 96.7766 99.3625 96.5699 99.4135C96.3633 99.4644 96.2945 99.1842 96.0879 99.2352C95.8812 99.2861 95.7728 98.8445 95.5661 98.8954C95.3383 98.9516 95.5992 99.7029 95.4764 99.7332C95.3803 99.7568 95.3819 99.5403 95.317 99.5563C95.2519 99.5723 95.2035 99.7968 95.1079 99.8204C95.0064 99.8454 95.257 99.2233 95.236 99.2285C95.2226 99.2318 95.1122 99.4258 94.9832 99.6243C94.8562 99.8223 94.7108 100.025 94.657 100.038C94.5485 100.065 94.8025 99.7158 94.7351 99.7324C94.6602 99.7509 94.8313 99.554 94.7787 99.567C94.7519 99.5736 94.6865 99.6302 94.6162 99.6888C94.5634 99.7293 94.5107 99.7665 94.5201 99.7284C94.5371 99.6586 94.2258 99.9295 94.2516 99.8244C94.2768 99.7217 94.4115 99.6237 94.4328 99.5369C94.4548 99.4471 94.5314 99.4033 94.5512 99.323C94.5728 99.2348 95.0144 99.0578 95.0219 99.027C95.0307 98.9912 94.9195 99.0149 94.932 98.9639C94.9454 98.9092 95.2689 98.9081 95.2709 98.9C95.2761 98.8788 95.3433 98.9595 95.4003 98.727C95.4512 98.5201 94.6659 98.3265 94.7167 98.1196C94.7675 97.9126 95.5397 98.1028 95.5906 97.8958C95.6414 97.6888 95.4755 97.648 95.5263 97.441C95.5772 97.234 95.2416 97.1513 95.2923 96.9444C95.3432 96.7375 95.0333 96.6611 95.0842 96.4542C95.1349 96.2472 95.922 96.4412 95.9729 96.2342C96.0237 96.0272 95.4158 95.8774 95.4666 95.6704C95.5175 95.4634 95.5819 95.4793 95.6327 95.2723C95.6835 95.0653 96.2055 95.194 96.2563 94.987C96.3071 94.7801 96.2553 94.7673 96.3062 94.5604C96.3569 94.3535 95.6717 94.1846 95.7226 93.9777C95.7543 93.8393 95.7861 93.7008 95.8179 93.5623C95.8769 93.3579 95.8772 93.3569 95.9362 93.1525C95.9871 92.9455 96.3196 93.0274 96.3705 92.8204C96.4213 92.6135 96.284 92.5796 96.3348 92.3727C96.3856 92.1658 96.715 92.247 96.7659 92.0401C96.8166 91.8332 96.9761 91.8725 97.027 91.6656C97.0777 91.4587 96.7095 91.3679 96.7602 91.161C96.8111 90.9541 97.0524 91.0136 97.1032 90.8066C97.154 90.5997 96.7757 90.5064 96.8265 90.2994C96.8773 90.0925 96.7499 90.061 96.8007 89.8541C96.8515 89.6471 97.0653 89.6998 97.1162 89.4929C97.167 89.286 96.9531 89.2333 97.0039 89.0264C97.0547 88.8194 97.2545 88.8686 97.3053 88.6616C97.3562 88.4546 97.6946 88.538 97.7455 88.331C97.7963 88.124 97.3213 88.007 97.3721 87.8C97.4229 87.593 97.7399 87.6711 97.7906 87.4641C97.8414 87.2572 97.3867 87.1451 97.4374 86.9381C97.4883 86.7311 97.6419 86.7689 97.6927 86.5619C97.7435 86.3549 97.9591 86.408 98.0099 86.201C98.0608 85.9941 97.875 85.9483 97.9259 85.7413C97.9619 85.6039 97.9979 85.4665 98.0339 85.329C98.0848 85.122 98.6382 85.2584 98.6891 85.0514C98.733 84.873 98.1491 84.5392 98.4437 84.4225C98.5506 84.3802 99.823 84.4446 97.9833 83.9553C97.6478 83.871 97.2744 83.7771 96.9133 83.6863C96.7821 83.6557 96.6385 83.6223 96.5428 83.6C96.4364 83.5786 96.4186 83.5889 96.4186 83.5889C96.1903 83.8334 95.5772 83.9854 95.5076 84.2685C95.4568 84.4756 95.6072 84.5127 95.5564 84.7198C95.5055 84.927 95.5923 84.9484 95.5414 85.1555C95.4906 85.3627 95.3778 85.3349 95.3269 85.542C95.2937 85.6802 95.2604 85.8184 95.2271 85.9566C95.1763 86.1636 95.0765 86.1391 95.0257 86.3461C94.9748 86.5532 95.3671 86.6499 95.3163 86.857C95.2654 87.0641 95.357 87.0866 95.3061 87.2937C95.2553 87.5009 94.5715 87.3323 94.5206 87.5395C94.4697 87.7465 94.7754 87.8219 94.7245 88.029C94.6737 88.236 94.6052 88.2191 94.5543 88.4262C94.5035 88.6332 94.2771 88.5775 94.2263 88.7845C94.1754 88.9916 94.8111 89.1483 94.7602 89.3553C94.7094 89.5624 94.3606 89.4765 94.3097 89.6835C94.2589 89.8905 94.2876 89.8976 94.2368 90.1046C94.1859 90.3117 94.4059 90.3659 94.355 90.5729C94.3042 90.7799 93.8227 90.6613 93.7719 90.8683C93.7211 91.0753 93.5772 91.0398 93.5264 91.2468C93.4756 91.4538 94.0449 91.5941 93.9941 91.801C93.9432 92.0081 93.6016 91.9239 93.5508 92.1309C93.4999 92.338 93.3641 92.3045 93.3134 92.5116C93.2625 92.7187 93.7871 92.848 93.7362 93.055C93.6855 93.2621 93.1865 93.1391 93.1356 93.3462C93.0848 93.5532 93.3464 93.6177 93.2955 93.8247C93.2446 94.0318 93.6573 94.1334 93.6064 94.3405C93.5555 94.5476 93.46 94.5239 93.4091 94.731C93.3583 94.938 93.0142 94.8533 92.9633 95.0603C92.9125 95.2673 92.6811 95.2103 92.6302 95.4174C92.5794 95.6244 92.7043 95.6552 92.6534 95.8623C92.6026 96.0693 92.8096 96.1203 92.7587 96.3273C92.7079 96.5343 92.2622 96.4245 92.2113 96.6316C92.1605 96.8386 92.7369 96.9806 92.686 97.1876C92.649 97.3248 92.612 97.462 92.575 97.5994C92.5242 97.8064 92.2268 97.7331 92.176 97.9402C92.1316 98.121 91.8305 98.1172 91.7298 98.5275C91.6275 98.944 91.7661 98.9429 91.6688 99.3394C91.5707 99.7389 91.6188 99.7285 91.5222 100.122C91.4366 100.509 91.4361 100.511 91.3504 100.898C91.2531 101.295 91.5618 101.117 91.474 101.475C91.3854 101.836 91.2464 101.937 91.1538 102.314C91.0613 102.691 91.1968 102.573 91.108 102.934C91.0641 103.113 91.1848 103.065 91.3122 102.999C91.5535 102.823 91.7829 102.648 91.941 102.609C92.2384 102.536 91.2291 103.7 91.6579 103.594C92.0755 103.492 92.3113 103.166 92.6905 103.073C93.0808 102.977 93.3372 102.527 93.6719 102.444C94.0063 102.362 93.8243 102.817 94.2176 102.72C94.6148 102.623 94.7556 101.957 95.0622 101.882C95.3649 101.807 95.3617 102.668 95.7877 102.563C96.2113 102.458 96.0895 101.796 96.2747 101.75C96.4813 101.699 96.563 102.032 96.7697 101.981C96.9763 101.93 96.8686 101.492 97.0752 101.441C97.2818 101.39 97.4678 102.147 97.6744 102.096C97.8809 102.045 97.7347 101.45 97.9413 101.399C98.1478 101.348 98.1237 101.25 98.3302 101.199C98.5368 101.148 98.6631 101.662 98.8696 101.611C99.0762 101.56 99.1154 101.72 99.322 101.669C99.5287 101.618 99.4154 101.157 99.6221 101.106C99.8286 101.055 99.9239 101.443 100.131 101.392C100.337 101.341 100.248 100.979 100.455 100.928C100.661 100.877 100.677 100.944 100.884 100.893C101.091 100.842 101.183 101.22 101.39 101.169C101.597 101.118 101.474 100.619 101.681 100.568C101.887 100.517 101.941 100.735 102.147 100.684C102.354 100.633 102.255 100.231 102.462 100.18C102.668 100.129 102.811 100.712 103.018 100.662C103.224 100.611 103.062 99.9476 103.268 99.8967C103.475 99.8458 103.495 99.9282 103.701 99.8773C103.908 99.8264 103.875 99.6935 104.082 99.6426C104.288 99.5917 104.426 100.153 104.633 100.103C104.771 100.073 104.91 100.043 105.049 100.013C105.256 99.9619 105.161 99.5754 105.367 99.5245C105.574 99.4736 105.556 99.4025 105.763 99.3516C105.969 99.3007 106.133 99.9671 106.34 99.9162C106.546 99.8652 106.357 99.0941 106.564 99.0431C106.77 98.9923 106.82 99.1945 107.027 99.1436C107.233 99.0927 107.38 99.6926 107.587 99.6417C107.794 99.5907 107.683 99.1402 107.89 99.0892C108.096 99.0383 108.176 99.3651 108.383 99.3142C108.59 99.2632 108.514 98.956 108.721 98.9051C108.927 98.8541 108.949 98.9435 109.156 98.8926C109.363 98.8417 109.382 98.9216 109.589 98.8707C109.795 98.8198 109.661 98.271 109.867 98.2201C110.074 98.1692 110.127 98.3869 110.334 98.3359C110.466 98.3037 110.759 98.852 110.651 97.8598L110.637 97.7405C110.622 97.6254 110.599 97.4723 110.538 97.1946C110.465 96.8702 110.322 96.2926 110.285 96.2119Z" fill="black"/>
<path d="M176.817 2.77953C175.844 2.43854 176.112 3.31875 175.901 3.53078C175.515 3.91723 175.52 3.92253 175.135 4.30898C174.749 4.69522 174.528 4.4738 174.143 4.86C173.757 5.24634 173.634 5.1233 173.249 5.50965C172.863 5.89585 173.154 6.18778 172.769 6.57399C172.384 6.96005 172.495 7.07177 172.11 7.45788C171.724 7.84399 171.425 7.54413 171.04 7.93025C170.654 8.31641 170.493 8.15451 170.107 8.54071C169.722 8.92687 169.678 8.88291 169.292 9.26907C168.907 9.65531 169.004 9.75236 168.618 10.1386C168.233 10.5247 168.359 10.6515 167.974 11.0376C167.588 11.4237 167.532 11.3673 167.147 11.7534C166.761 12.1395 166.641 12.0185 166.255 12.4046C165.87 12.7908 166.086 13.0073 165.7 13.3934C165.315 13.7795 165.045 13.5094 164.66 13.8955C164.275 14.2815 164.681 14.6887 164.296 15.0747C163.91 15.4608 163.423 14.9727 163.038 15.3588C162.653 15.7447 162.707 15.7992 162.322 16.1852C161.936 16.5712 162.069 16.7039 161.684 17.0899C161.298 17.4759 161.473 17.6509 161.088 18.0368C160.702 18.4228 160.803 18.5232 160.417 18.9092C160.032 19.2953 159.555 18.8178 159.17 19.204C158.784 19.5901 158.859 19.6646 158.473 20.0507C158.088 20.4367 158.549 20.8983 158.164 21.2844C157.778 21.6705 157.463 21.3546 157.077 21.7408C156.692 22.1268 156.886 22.3214 156.501 22.7074C156.115 23.0935 155.935 22.9128 155.55 23.2989C155.165 23.685 155.438 23.9585 155.052 24.3447C154.667 24.7307 154.501 24.5646 154.116 24.9506C153.73 25.3367 153.368 24.9738 152.983 25.36C152.597 25.746 152.991 26.1409 152.606 26.5269C152.221 26.913 152.036 26.7279 151.651 27.114C151.265 27.5 151.582 27.8167 151.196 28.2027C150.811 28.5888 150.607 28.3848 150.222 28.7708C149.837 29.1569 149.516 28.8353 149.13 29.2214C148.745 29.6074 149.304 30.1674 148.919 30.5534C148.533 30.9394 148.385 30.7911 148 31.1771C147.615 31.5631 147.76 31.7091 147.375 32.0951C146.99 32.4811 146.606 32.0963 146.22 32.4823C145.835 32.8684 146.292 33.3263 145.907 33.7123C145.522 34.0984 145.325 33.9017 144.94 34.2877C144.555 34.6736 144.449 34.5674 144.064 34.9534C143.678 35.3394 143.794 35.455 143.408 35.841C143.023 36.227 143.191 36.3955 142.806 36.7816C142.421 37.1675 142.345 37.0915 141.959 37.4774C141.574 37.8634 141.529 37.8181 141.144 38.204C140.759 38.59 140.485 38.3161 140.1 38.7021C139.715 39.0882 139.787 39.1607 139.402 39.5467C139.016 39.9327 138.794 39.7103 138.409 40.0963C138.024 40.4822 137.964 40.4224 137.579 40.8082C137.194 41.1941 137.766 41.7671 137.381 42.153C136.995 42.539 136.433 41.9756 136.048 42.3617C135.662 42.7477 135.783 42.8686 135.398 43.2546C135.013 43.6405 135.257 43.8853 134.872 44.2712C134.487 44.6571 134.712 44.8831 134.327 45.269C133.942 45.6549 133.369 45.0807 132.984 45.4666C132.598 45.8526 133.041 46.296 132.656 46.6821C132.271 47.0681 132.224 47.0211 131.838 47.4071C131.453 47.793 131.073 47.4121 130.688 47.7981C130.303 48.1839 130.34 48.2216 129.955 48.6075C129.57 48.9933 130.069 49.4932 129.684 49.879C129.299 50.2649 129.303 50.2695 128.918 50.6554C128.533 51.0413 128.521 51.0291 128.136 51.4151C127.75 51.8011 127.508 51.5584 127.123 51.9444C126.738 52.3303 126.838 52.4305 126.452 52.8163C126.067 53.2022 125.827 52.9618 125.442 53.3476C125.057 53.7334 124.941 53.617 124.556 54.0028C124.171 54.3886 124.439 54.6573 124.054 55.0431C123.669 55.4289 123.493 55.2529 123.108 55.6387C122.723 56.0247 122.998 56.3007 122.613 56.6867C122.228 57.0726 122.321 57.1656 121.935 57.5516C121.55 57.9375 121.395 57.7815 121.009 58.1674C120.624 58.5531 120.78 58.7092 120.395 59.0949C120.01 59.4809 119.864 59.3352 119.479 59.7212C119.094 60.1072 118.847 59.8602 118.462 60.2462C118.077 60.6322 118.423 60.9787 118.037 61.3647C117.652 61.7507 117.421 61.5195 117.036 61.9054C116.651 62.2914 116.982 62.6232 116.597 63.0092C116.211 63.3952 116.1 63.2831 115.714 63.6691C115.329 64.0551 115.172 63.8979 114.787 64.2838C114.402 64.6698 114.537 64.8053 114.152 65.1912C113.766 65.5771 113.762 65.5724 113.376 65.9584C112.991 66.3443 112.588 65.9406 112.203 66.3264C111.871 66.6592 111.995 67.4511 111.48 67.601C111.293 67.6553 109.971 67.2073 111.254 68.6185C111.487 68.875 111.76 69.1468 112.025 69.4095C112.12 69.5045 112.225 69.6081 112.302 69.6702C112.387 69.7385 112.409 69.7326 112.424 69.7231C113.067 69.3101 113.994 69.1733 114.521 68.6453C114.907 68.2591 114.797 68.1494 115.183 67.7632C115.568 67.3769 115.505 67.3136 115.891 66.9272C116.276 66.541 116.358 66.6233 116.744 66.2371C117.001 65.9797 117.257 65.7218 117.513 65.4635C117.899 65.0775 117.971 65.1502 118.357 64.7641C118.742 64.3779 118.457 64.0917 118.842 63.7055C119.227 63.3194 119.161 63.2526 119.546 62.8664C119.932 62.4802 120.43 62.9791 120.815 62.5929C121.201 62.2067 120.978 61.9837 121.363 61.5976C121.749 61.2115 121.799 61.2615 122.184 60.8754C122.57 60.4893 122.734 60.6544 123.12 60.2683C123.505 59.8821 123.042 59.4185 123.428 59.0322C123.813 58.6461 124.067 58.9005 124.453 58.5144C124.838 58.1285 124.817 58.1076 125.202 57.7216C125.588 57.3355 125.428 57.175 125.813 56.7889C126.198 56.4029 126.549 56.7542 126.934 56.3682C127.319 55.9822 127.424 56.0872 127.809 55.7011C128.195 55.3152 127.78 54.8998 128.165 54.5139C128.551 54.1279 128.799 54.3771 129.185 53.9911C129.57 53.605 129.669 53.704 130.054 53.3179C130.44 52.9317 130.058 52.549 130.443 52.1629C130.828 51.7769 131.192 52.1409 131.577 51.7548C131.963 51.3687 131.772 51.1779 132.157 50.7918C132.543 50.4057 132.242 50.1047 132.628 49.7186C133.013 49.3326 133.083 49.4024 133.468 49.0163C133.854 48.6302 134.104 48.8812 134.489 48.4951C134.875 48.1091 135.043 48.2779 135.429 47.8919C135.814 47.5058 135.723 47.4147 136.109 47.0286C136.494 46.6426 136.343 46.4915 136.728 46.1055C137.114 45.7194 137.438 46.0446 137.824 45.6585C138.209 45.2725 137.789 44.852 138.175 44.466C138.56 44.0799 138.567 44.0869 138.952 43.7008C139.337 43.3147 139.554 43.5317 139.939 43.1456C140.325 42.7596 140.532 42.9673 140.917 42.5813C141.303 42.1953 141.208 42.1001 141.593 41.7141C141.978 41.3281 141.947 41.2967 142.332 40.9107C142.718 40.5248 142.705 40.5118 143.09 40.1258C143.475 39.7397 143.293 39.5574 143.678 39.1713C144.064 38.7853 144.142 38.8638 144.527 38.4778C144.913 38.0919 144.839 38.0187 145.225 37.6327C145.61 37.2467 145.298 36.934 145.683 36.5481C146.069 36.162 146.696 36.7906 147.081 36.4046C147.467 36.0186 147.284 35.8352 147.669 35.4492C148.054 35.0633 147.789 34.7977 148.174 34.4118C148.559 34.0258 148.841 34.3078 149.226 33.9218C149.611 33.5358 149.18 33.1029 149.565 32.7168C149.95 32.3309 150.539 32.921 150.924 32.5351C151.309 32.1492 150.835 31.6736 151.22 31.2878C151.605 30.9018 151.847 31.1444 152.232 30.7584C152.618 30.3724 152.299 30.0532 152.684 29.6672C153.07 29.2811 153.62 29.8324 154.005 29.4465C154.39 29.0606 153.958 28.6269 154.343 28.241C154.728 27.8552 154.656 27.7835 155.042 27.3977C155.427 27.0118 155.8 27.3861 156.186 27.0002C156.571 26.6142 156.687 26.7305 157.072 26.3445C157.457 25.9585 157.122 25.6227 157.508 25.2367C157.893 24.8509 158.175 25.1335 158.56 24.7476C158.945 24.3618 158.682 24.0981 159.067 23.7123C159.452 23.3264 159.5 23.3746 159.885 22.9888C160.271 22.6029 160.545 22.8782 160.931 22.4924C161.316 22.1064 160.953 21.7429 161.338 21.357C161.724 20.971 161.882 21.1296 162.267 20.7436C162.652 20.3577 162.36 20.0645 162.745 19.6787C163.13 19.2928 163.554 19.7179 163.939 19.3321C164.324 18.9463 163.842 18.4634 164.227 18.0776C164.613 17.6918 164.672 17.7518 165.057 17.366C165.443 16.9801 165.346 16.8834 165.731 16.4975C166.116 16.1116 166.525 16.5206 166.91 16.1347C167.295 15.7487 167.304 15.7575 167.689 15.3715C168.074 14.9856 167.794 14.7042 168.179 14.3183C168.564 13.9325 168.512 13.8808 168.897 13.4949C169.282 13.109 169.767 13.5942 170.152 13.2082C170.537 12.8222 169.977 12.2607 170.362 11.8747C170.747 11.4888 170.894 11.636 171.28 11.25C171.665 10.864 172.101 11.3009 172.486 10.915C172.871 10.529 172.544 10.2009 172.929 9.81489C173.314 9.42888 173.552 9.66681 173.937 9.28079C174.322 8.89483 174.099 8.6711 174.484 8.28513C174.87 7.89917 174.934 7.9642 175.32 7.57828C175.705 7.19231 175.763 7.25056 176.148 6.86464C176.534 6.47868 176.135 6.07904 176.52 5.69308C176.905 5.30706 177.063 5.46557 177.449 5.07945C177.695 4.83335 178.399 4.98019 177.938 4.04222C177.921 4.00677 177.902 3.96972 177.881 3.93103C177.824 3.82522 177.741 3.69062 177.552 3.47801C177.331 3.22958 176.908 2.81146 176.817 2.77953Z" fill="black"/>
<path d="M188.301 17.8807C187.329 17.5397 187.597 18.4199 187.385 18.6319C187 19.0184 187.005 19.0237 186.619 19.4102C186.234 19.7964 186.013 19.575 185.627 19.9612C185.242 20.3475 185.119 20.2245 184.733 20.6108C184.348 20.997 184.639 21.289 184.254 21.6751C183.868 22.0612 183.98 22.173 183.594 22.5591C183.209 22.9451 182.91 22.6453 182.524 23.0314C182.139 23.4176 181.977 23.2557 181.592 23.6419C181.206 24.0281 181.162 23.9841 180.777 24.3703C180.392 24.7565 180.488 24.8535 180.103 25.2398C179.717 25.6259 179.844 25.7527 179.458 26.1388C179.073 26.5249 179.017 26.4684 178.631 26.8546C178.246 27.2407 178.125 27.1197 177.74 27.5058C177.354 27.892 177.57 28.1085 177.185 28.4946C176.8 28.8807 176.53 28.6106 176.145 28.9967C175.759 29.3827 176.166 29.7899 175.78 30.1759C175.395 30.562 174.908 30.0738 174.522 30.46C174.137 30.8459 174.192 30.9004 173.806 31.2864C173.421 31.6724 173.553 31.8051 173.168 32.1911C172.783 32.5771 172.958 32.7521 172.572 33.138C172.187 33.524 172.287 33.6243 171.902 34.0104C171.516 34.3965 171.04 33.919 170.654 34.3051C170.269 34.6913 170.343 34.7658 169.958 35.1518C169.573 35.5379 170.033 35.9995 169.648 36.3856C169.263 36.7717 168.947 36.4558 168.562 36.8419C168.177 37.228 168.371 37.4225 167.985 37.8086C167.6 38.1947 167.42 38.014 167.035 38.4001C166.649 38.7862 166.922 39.0597 166.537 39.4459C166.151 39.8319 165.986 39.6658 165.6 40.0518C165.215 40.4379 164.853 40.075 164.467 40.4612C164.082 40.8472 164.476 41.242 164.091 41.6281C163.705 42.0141 163.521 41.8291 163.135 42.2151C162.75 42.6012 163.066 42.9179 162.681 43.3039C162.296 43.69 162.092 43.486 161.707 43.872C161.321 44.2581 161 43.9365 160.615 44.3226C160.23 44.7085 160.789 45.2686 160.403 45.6546C160.018 46.0406 159.87 45.8923 159.485 46.2783C159.099 46.6643 159.245 46.8103 158.86 47.1963C158.474 47.5823 158.09 47.1975 157.705 47.5835C157.32 47.9695 157.777 48.4275 157.392 48.8135C157.006 49.1996 156.81 49.0028 156.425 49.3889C156.039 49.7748 155.933 49.6686 155.548 50.0546C155.163 50.4406 155.278 50.5561 154.893 50.9422C154.508 51.3282 154.676 51.4967 154.291 51.8828C153.905 52.2687 153.829 52.1926 153.444 52.5786C153.059 52.9645 153.014 52.9193 152.628 53.3052C152.243 53.6911 151.97 53.4173 151.585 53.8032C151.199 54.1893 151.272 54.2618 150.886 54.6479C150.501 55.0339 150.279 54.8115 149.894 55.1975C149.509 55.5834 149.449 55.5235 149.064 55.9094C148.679 56.2953 149.25 56.8682 148.865 57.2542C148.48 57.6402 147.918 57.0768 147.532 57.4628C147.147 57.8489 147.268 57.9698 146.882 58.3558C146.497 58.7417 146.742 58.9865 146.356 59.3724C145.971 59.7583 146.197 59.9843 145.812 60.3702C145.427 60.7561 144.853 60.1819 144.468 60.5678C144.083 60.9537 144.526 61.3972 144.14 61.7833C143.755 62.1692 143.708 62.1222 143.323 62.5082C142.938 62.8941 142.558 62.5133 142.173 62.8992C141.787 63.2851 141.825 63.3228 141.44 63.7086C141.055 64.0945 141.554 64.5943 141.169 64.9802C140.783 65.3661 140.788 65.3706 140.403 65.7565C140.018 66.1425 140.005 66.1303 139.62 66.5163C139.235 66.9022 138.993 66.6596 138.608 67.0456C138.222 67.4315 138.322 67.5316 137.937 67.9175C137.552 68.3033 137.312 68.063 136.927 68.4488C136.542 68.8346 136.426 68.7182 136.041 69.104C135.656 69.4898 135.924 69.7585 135.539 70.1443C135.154 70.5301 134.978 70.3541 134.593 70.7399C134.207 71.1259 134.483 71.4019 134.098 71.7878C133.713 72.1738 133.805 72.2668 133.42 72.6528C133.035 73.0386 132.879 72.8827 132.494 73.2685C132.109 73.6543 132.265 73.8103 131.88 74.1961C131.494 74.5821 131.349 74.4364 130.964 74.8223C130.578 75.2084 130.332 74.9614 129.947 75.3474C129.561 75.7334 129.907 76.0799 129.522 76.4659C129.137 76.8518 128.906 76.6206 128.521 77.0066C128.135 77.3926 128.467 77.7243 128.081 78.1103C127.696 78.4963 127.584 78.3843 127.199 78.7703C126.814 79.1563 126.657 78.999 126.271 79.385C125.886 79.771 126.021 79.9064 125.636 80.2923C125.251 80.6783 125.246 80.6736 124.861 81.0595C124.476 81.4455 124.073 81.0418 123.688 81.4275C123.355 81.7603 123.479 82.5522 122.964 82.7022C122.778 82.7565 121.456 82.3085 122.739 83.7196C122.972 83.9761 123.245 84.2479 123.509 84.5107C123.605 84.6057 123.71 84.7093 123.787 84.7713C123.872 84.8397 123.893 84.8338 123.908 84.8242C124.552 84.4112 125.479 84.2744 126.006 83.7465C126.391 83.3603 126.282 83.2506 126.667 82.8643C127.053 82.478 126.99 82.4147 127.375 82.0284C127.761 81.6422 127.843 81.7245 128.228 81.3383C128.485 81.0809 128.742 80.823 128.998 80.5647C129.383 80.1786 129.456 80.2514 129.841 79.8652C130.227 79.479 129.941 79.1929 130.327 78.8067C130.712 78.4205 130.645 78.3537 131.031 77.9676C131.416 77.5814 131.914 78.0802 132.3 77.694C132.685 77.3079 132.463 77.0849 132.848 76.6988C133.234 76.3127 133.283 76.3626 133.669 75.9765C134.054 75.5904 134.219 75.7556 134.604 75.3694C134.99 74.9833 134.527 74.5196 134.913 74.1334C135.298 73.7473 135.552 74.0017 135.937 73.6156C136.323 73.2296 136.302 73.2087 136.687 72.8227C137.072 72.4366 136.912 72.2761 137.298 71.8901C137.683 71.504 138.033 71.8554 138.419 71.4693C138.804 71.0833 138.909 71.1883 139.294 70.8023C139.679 70.4163 139.265 70.001 139.65 69.6151C140.035 69.2291 140.284 69.4783 140.669 69.0922C141.055 68.7061 141.154 68.8052 141.539 68.419C141.924 68.0329 141.542 67.6502 141.928 67.2641C142.313 66.878 142.676 67.2421 143.062 66.856C143.447 66.4699 143.257 66.279 143.642 65.893C144.027 65.5069 143.727 65.2059 144.112 64.8198C144.498 64.4338 144.567 64.5036 144.953 64.1175C145.338 63.7314 145.589 63.9824 145.974 63.5963C146.359 63.2102 146.528 63.3791 146.913 62.993C147.299 62.6069 147.208 62.5159 147.593 62.1297C147.978 61.7437 147.828 61.5927 148.213 61.2067C148.598 60.8206 148.923 61.1458 149.308 60.7597C149.694 60.3737 149.274 59.9532 149.659 59.5671C150.045 59.1811 150.052 59.188 150.437 58.802C150.822 58.4159 151.039 58.6329 151.424 58.2468C151.809 57.8608 152.017 58.0685 152.402 57.6825C152.787 57.2964 152.692 57.2013 153.077 56.8153C153.463 56.4292 153.432 56.3979 153.817 56.0119C154.202 55.626 154.189 55.613 154.574 55.2269C154.96 54.8409 154.778 54.6586 155.163 54.2725C155.548 53.8865 155.627 53.965 156.012 53.579C156.397 53.193 156.324 53.1198 156.709 52.7339C157.095 52.3479 156.783 52.0352 157.168 51.6493C157.553 51.2631 158.181 51.8918 158.566 51.5058C158.951 51.1198 158.768 50.9363 159.153 50.5503C159.539 50.1644 159.274 49.8989 159.659 49.5129C160.044 49.127 160.325 49.409 160.711 49.023C161.096 48.6369 160.664 48.2041 161.049 47.818C161.435 47.4321 162.024 48.0222 162.409 47.6362C162.794 47.2504 162.319 46.7748 162.705 46.3889C163.09 46.003 163.332 46.2455 163.717 45.8596C164.102 45.4736 163.784 45.1543 164.169 44.7683C164.554 44.3823 165.105 44.9336 165.49 44.5477C165.875 44.1617 165.442 43.7281 165.827 43.3422C166.213 42.9563 166.141 42.8847 166.526 42.4988C166.911 42.113 167.285 42.4873 167.67 42.1014C168.055 41.7154 168.172 41.8317 168.557 41.4457C168.942 41.0597 168.607 40.7239 168.992 40.3379C169.377 39.952 169.66 40.2347 170.045 39.8488C170.43 39.463 170.167 39.1993 170.552 38.8135C170.937 38.4276 170.985 38.4758 171.37 38.09C171.755 37.7041 172.03 37.9794 172.415 37.5935C172.8 37.2076 172.438 36.8441 172.823 36.4582C173.208 36.0722 173.367 36.2308 173.752 35.8447C174.137 35.4589 173.844 35.1657 174.229 34.7798C174.615 34.394 175.039 34.8191 175.424 34.4333C175.809 34.0474 175.327 33.5646 175.712 33.1788C176.097 32.793 176.157 32.853 176.542 32.4672C176.927 32.0813 176.831 31.9846 177.216 31.5987C177.601 31.2128 178.009 31.6218 178.395 31.2359C178.78 30.8499 178.789 30.8587 179.174 30.4727C179.559 30.0868 179.278 29.8054 179.663 29.4195C180.048 29.0337 179.997 28.982 180.382 28.5961C180.767 28.2102 181.251 28.6954 181.637 28.3094C182.022 27.9234 181.461 27.3619 181.847 26.9759C182.232 26.5899 182.379 26.7372 182.764 26.3512C183.149 25.9652 183.585 26.4021 183.971 26.0162C184.356 25.6302 184.028 25.3021 184.414 24.9161C184.799 24.5301 185.037 24.768 185.422 24.382C185.807 23.996 185.584 23.7723 185.969 23.3863C186.354 23.0004 186.419 23.0654 186.804 22.6795C187.19 22.2935 187.248 22.3518 187.633 21.9658C188.018 21.5798 187.619 21.1802 188.005 20.7943C188.39 20.4083 188.548 20.5667 188.933 20.1806C189.179 19.9345 189.883 20.0814 189.423 19.1434C189.406 19.108 189.387 19.0709 189.366 19.0322C189.309 18.9264 189.226 18.7918 189.036 18.5792C188.815 18.3308 188.392 17.9126 188.301 17.8807Z" fill="black"/>
<path d="M92.3293 99.7785C91.7101 99.6531 91.5032 99.7997 91.3208 100.063C91.1563 100.324 91.034 100.676 90.8307 100.807C90.0596 101.251 90.0532 101.254 89.2129 101.629C88.3489 101.98 88.2236 101.636 87.3437 101.924C86.4487 102.193 86.3951 102 85.4898 102.223C84.5672 102.425 84.6752 102.913 83.8198 103.013C82.9479 103.07 82.9418 103.244 82.0203 103.203C81.0874 103.126 81.1482 102.629 80.2265 102.493C79.2915 102.334 79.3437 102.069 78.3934 101.878C77.4624 101.679 77.3757 101.606 76.5251 101.403C75.6618 101.179 75.6088 101.346 74.7635 101.049C73.9328 100.734 73.8411 100.94 73.0387 100.544C72.254 100.128 72.2876 100.059 71.5719 99.5717C70.8776 99.0597 70.992 98.9119 70.3958 98.3449C69.8366 97.7549 69.5578 97.9861 69.0643 97.2992C68.6217 96.5817 69.0162 96.3739 68.7038 95.6642C68.4572 94.9311 67.8054 95.1058 67.6376 94.2458C67.5525 93.3695 68.312 93.3088 68.3372 92.5628C68.4032 91.8114 68.3121 91.7871 68.5027 91.0704C68.7373 90.3899 68.5386 90.2895 68.9138 89.6799C69.3212 89.1332 69.1283 88.916 69.6719 88.4931C70.2667 88.1411 70.2195 87.9819 70.9334 87.7889C71.675 87.6893 71.6946 88.489 72.1471 88.57C72.585 88.7186 72.6188 88.5835 72.9923 88.9125C73.3027 89.2646 73.9753 88.8876 74.2717 89.6075C74.4933 90.3723 73.9729 90.4667 74.0221 91.2063C74.0026 91.9728 74.3324 91.9998 74.1552 92.8304C73.9436 93.6665 73.6521 93.5706 73.3429 94.3445C72.977 95.0984 73.3746 95.3217 72.8907 96.0798C72.379 96.8204 72.1574 96.6492 71.5819 97.3206C70.9638 97.9736 70.5508 97.5466 69.9066 98.1169C69.2435 98.6697 69.6326 99.1878 68.88 99.7146C68.113 100.219 67.9545 99.9583 67.1675 100.397C66.3704 100.812 66.585 101.284 65.7283 101.658C64.862 102.004 64.7481 101.695 63.8876 101.967C63.0153 102.213 62.8911 101.698 62.0544 101.858C61.2221 101.984 61.3158 102.901 60.402 102.947C59.4989 102.945 59.5066 102.72 58.6432 102.606C57.7841 102.468 57.7263 102.718 56.8617 102.462C56.0008 102.176 56.2246 101.598 55.4509 101.237C54.6889 100.85 54.31 101.514 53.5283 101.011C52.7663 100.483 52.9537 100.232 52.2593 99.6503C51.5798 99.0426 51.6929 98.9233 51.0727 98.2666C50.4726 97.5908 50.3177 97.7176 49.7635 96.983C49.2333 96.2355 48.9932 96.3926 48.5127 95.5885C48.0557 94.7714 48.1619 94.7221 47.7665 93.8722C47.3921 93.0118 47.4555 92.9861 47.1359 92.1041C46.8356 91.21 47.2608 91.0794 47.0155 90.1876C46.7889 89.2861 46.6696 89.3133 46.4845 88.3911C46.3175 87.4622 46.6749 87.4055 46.5475 86.4793C46.4361 85.5462 46.5315 85.5367 46.4525 84.5978C46.388 83.6581 45.4484 83.709 45.4102 82.7366C45.3844 81.7624 46.3063 81.7496 46.3041 80.7929C46.3143 79.8343 46.1072 79.8148 46.1467 78.8973C46.204 77.9882 45.8009 77.9491 45.9252 77.0467C46.0785 76.1685 45.7078 76.0827 45.9586 75.2204C46.2547 74.3806 47.1241 74.7417 47.4559 74.1455C47.8219 73.604 47.2621 73.1287 47.8354 72.6199C48.4446 72.1937 48.4718 72.2555 49.1461 72.0286C49.8707 71.866 49.929 72.4983 50.5693 72.5263C51.2344 72.614 51.2593 72.5598 51.9237 72.7949C52.5471 73.0879 52.975 72.3666 53.6495 72.8778C54.2875 73.4331 54.2902 73.4369 54.8368 74.1057C55.337 74.8219 55.3227 74.8341 55.7287 75.6247C56.1031 76.4437 55.7253 76.5918 55.9964 77.4229C56.2384 78.2712 56.3718 78.2471 56.5514 79.1352C56.6714 80.0392 56.2854 80.0765 56.3326 80.959C56.3373 81.8497 56.1683 81.8457 56.1017 82.7251C56.0184 83.601 56.4623 83.6627 56.3003 84.5642C56.133 85.4648 55.8275 85.3934 55.5968 86.263C55.3345 87.1257 55.7495 87.2716 55.425 88.1456C55.054 88.9978 55.2061 89.0674 54.7819 89.9062C54.3331 90.7316 54.1299 90.6165 53.6327 91.3974C53.1368 92.1786 53.3329 92.3178 52.7763 93.0747C52.203 93.8187 52.0012 93.6544 51.3892 94.3651C50.7423 95.0527 50.4605 94.7796 49.7952 95.4276C49.1211 96.0673 49.5064 96.4943 48.7789 97.1129C48.0582 97.7376 47.7995 97.4128 47.0675 98C46.2977 98.5346 46.6259 99.0083 45.8186 99.5265C45.0138 100.046 44.9196 99.8904 44.094 100.357C43.2704 100.833 43.135 100.569 42.3048 101.004C41.4473 101.372 41.5468 101.611 40.6664 101.944C39.7879 102.28 39.7856 102.274 38.8902 102.544C37.9915 102.819 37.8232 102.138 36.954 102.354C36.2114 102.493 35.5214 103.355 34.7025 103.109C34.3734 103.037 33.4314 101.57 33.2314 103.795C33.1929 104.197 33.1819 104.645 33.1728 105.078C33.1696 105.235 33.1668 105.406 33.1844 105.52C33.2036 105.646 33.2406 105.658 33.2738 105.662C34.6903 105.876 36.2448 106.368 37.7101 106.089C38.754 105.834 38.7244 105.696 39.7381 105.388C40.7549 105.08 40.7204 104.979 41.7029 104.605C42.6844 104.229 42.7225 104.322 43.6894 103.902C44.6198 103.418 44.6391 103.449 45.5464 102.927C46.4574 102.411 46.5175 102.51 47.4002 101.941C48.2838 101.371 47.9983 100.961 48.8436 100.369C49.6517 99.7236 49.6065 99.6663 50.3855 98.9915C51.1677 98.3257 51.7114 98.9279 52.4832 98.1961C53.242 97.4534 52.9727 97.1901 53.6889 96.4246C54.3781 95.6269 54.4529 95.6969 55.1094 94.8471C55.7413 93.9859 55.979 94.1504 56.5599 93.2346C57.1403 92.3144 56.4635 91.9246 56.9591 91.0063C57.4307 90.0713 57.7966 90.2383 58.222 89.2527C58.5978 88.2483 58.5757 88.241 58.8889 87.2147C59.1658 86.1749 58.9333 86.1182 59.1296 85.0737C59.3124 84.03 59.8814 84.1035 59.9822 83.0034C60.0615 81.9059 60.2115 81.9058 60.2002 80.7881C60.14 79.6631 59.4515 79.7307 59.3098 78.6644C59.096 77.605 59.5265 77.5114 59.2163 76.4259C58.8638 75.3545 59.0244 75.2925 58.5381 74.2321C57.9955 73.1819 57.4536 73.5017 56.8041 72.5806C56.0819 71.7025 56.5208 71.274 55.5706 70.451C54.542 69.6817 54.3629 69.9546 53.2533 69.4461C52.081 69.0327 51.9569 69.5105 50.8055 69.3623C49.6298 69.3272 49.6036 69.1931 48.3995 69.4745C47.2379 69.8718 47.0201 69.5326 45.9464 70.2966C44.9817 71.1597 44.7557 71.0051 44.0298 72.0856C43.4124 73.1976 43.5726 73.2668 43.1793 74.3768C42.858 75.4925 43.1132 75.5457 42.9273 76.6237C42.7827 77.6938 42.2558 77.6466 42.1885 78.7305C42.144 79.811 42.8439 79.8011 42.8336 80.8198C42.8362 81.8372 42.8266 81.8377 42.8545 82.8585C42.8949 83.8795 42.5419 83.8993 42.6141 84.9331C42.7013 85.9652 42.3653 86.0005 42.4916 87.0458C42.6358 88.0912 42.7931 88.067 42.9815 89.1054C43.1906 90.1436 43.2446 90.1325 43.5056 91.1629C43.7891 92.1904 43.8146 92.1841 44.1576 93.1984C44.525 94.2092 44.8092 94.0965 45.2356 95.0701C45.6854 96.0339 45.5829 96.099 46.1151 97.0434C46.6738 97.9752 46.7844 97.9032 47.4102 98.7804C48.0642 99.6444 48.4685 99.3096 49.1667 100.091C49.8855 100.85 49.1801 101.589 50.0229 102.338C50.8849 103.057 51.0751 102.809 51.9857 103.435C52.9248 104.036 53.149 103.647 54.1164 104.134C55.1017 104.59 54.9441 105.011 56.0254 105.366C57.1258 105.679 57.284 104.977 58.3454 105.14C59.4095 105.272 59.3704 106.225 60.5335 106.221C61.6877 106.162 61.6067 105.379 62.666 105.218C63.7182 105.014 63.8136 105.402 64.8657 105.104C65.9046 104.771 65.7245 104.274 66.6961 103.883C67.653 103.464 68.0357 104.285 69.0171 103.774C69.9798 103.234 69.6132 102.626 70.4972 102.042C71.3709 101.428 71.3021 101.335 72.119 100.651C72.913 99.9439 73.3417 100.385 74.1108 99.5649C74.8413 98.7129 74.9987 98.8341 75.6549 97.8815C76.2784 96.8948 75.7947 96.6221 76.2767 95.6108C76.6958 94.5656 77.1477 94.7118 77.4394 93.5543C77.6825 92.3619 77.2514 92.2853 77.2692 91.1047C77.1839 89.8993 77.2818 89.8792 76.9137 88.6485C76.6965 88.0369 76.6176 87.6913 76.5398 87.3267C76.4437 86.972 76.3436 86.5776 75.7986 86.0313C75.246 85.4956 74.8055 85.4176 74.4152 85.3595C74.0125 85.3224 73.6425 85.2839 72.9827 85.1183C72.3351 84.9756 72.0032 84.9024 71.656 84.8259C71.3204 84.7586 70.9704 84.7044 70.3073 84.8271C69.0058 85.1815 69.1834 85.6327 68.1288 86.2669C67.1515 87.028 66.6454 86.5556 65.8409 87.6346C65.1472 88.7691 65.8886 89.1146 65.5149 90.1857C65.2258 91.2898 65.1353 91.2791 65.0372 92.4154C65.0085 93.5576 65.2113 93.5402 65.3263 94.6346C65.5373 95.7131 64.8903 95.8904 65.2822 97.0249C65.7579 98.1162 65.7489 98.1257 66.375 99.1333C67.0677 100.099 67.432 99.7967 68.1987 100.602C69.0084 101.37 69.0741 101.292 69.9525 101.939C70.8462 102.544 70.4557 103.218 71.4609 103.749C72.4801 104.248 72.8427 103.378 73.8236 103.75C74.8182 104.096 74.7555 104.313 75.786 104.578C76.8359 104.825 76.6181 105.493 77.6222 105.707C78.621 105.908 78.7246 105.383 79.7443 105.556C80.7806 105.709 80.7282 106.106 81.8303 106.196C82.9525 106.245 82.9539 105.892 84.0835 105.816C85.2415 105.681 85.2634 105.752 86.2751 105.533C87.2938 105.282 87.318 105.373 88.3346 105.067C89.3518 104.733 89.1315 104.118 90.1017 103.724C91.0678 103.29 91.1856 103.538 92.1533 102.979C92.7239 102.641 93.9447 102.594 93.651 101.229C93.6365 101.18 93.6212 101.13 93.6051 101.076C93.5565 100.933 93.4731 100.761 93.2449 100.522C92.9784 100.244 92.4465 99.8028 92.3293 99.7785Z" fill="black"/>
</svg>
