<svg width="136" height="87" viewBox="0 0 136 87" fill="none" xmlns="http://www.w3.org/2000/svg">
<path d="M122.701 7.87402H18.3168C11.7027 7.87402 6.34082 13.2418 6.34082 19.8632V73.994C6.34082 80.6154 11.7027 85.9832 18.3168 85.9832H122.701C129.315 85.9832 134.677 80.6154 134.677 73.994V19.8632C134.677 13.2418 129.315 7.87402 122.701 7.87402Z" fill="black"/>
<path d="M124.112 85.0897C123.879 85.1695 123.63 85.2079 123.363 85.2622C122.705 85.3988 122.341 86.4577 123.224 86.5919C123.502 86.6285 123.814 86.6164 124.12 86.5467C124.425 86.4719 124.728 86.3823 125.007 86.337C125.77 86.1809 126.525 85.9796 127.255 85.701C128.547 85.2141 129.775 84.5486 130.89 83.707C131.759 83.0337 132.448 82.1004 133.074 81.203C133.463 80.6039 133.807 80.0758 134.036 79.5637C134.156 79.3108 134.281 79.0781 134.377 78.8483C134.465 78.615 134.548 78.3947 134.627 78.1849C134.802 77.7701 134.89 77.3747 134.994 77.0072C135.108 76.6413 135.169 76.2872 135.226 75.9316C135.29 75.577 135.354 75.222 135.366 74.8389C135.388 74.4622 135.43 74.0376 135.426 73.624C135.43 72.7746 135.435 71.7554 135.443 70.3966C135.443 64.9617 135.3 64.9617 135.3 59.5269C135.3 54.0923 135.457 54.0923 135.457 48.6578C135.446 45.0347 135.435 41.4116 135.424 37.7885C135.424 32.3539 135.32 32.3539 135.32 26.9193C135.32 24.2023 135.378 22.8439 135.437 21.4854C135.451 21.1457 135.465 20.8061 135.48 20.4453C135.487 20.2649 135.493 20.0791 135.5 19.8855C135.496 19.679 135.492 19.4642 135.487 19.238C135.48 19.0111 135.477 18.7722 135.462 18.5199C135.428 18.269 135.392 18.0041 135.353 17.7224C135.333 17.5815 135.312 17.4364 135.29 17.2867C135.254 17.1398 135.217 16.9883 135.179 16.8321C135.093 16.5224 135.035 16.1828 134.906 15.8415C134.463 14.4458 133.853 13.5169 133.359 12.762C133.088 12.3979 132.822 12.0873 132.58 11.7901C132.317 11.5096 132.054 11.2605 131.8 11.0067C131.263 10.5268 130.708 10.0702 129.963 9.57782C129.603 9.31496 129.158 9.1005 128.684 8.81118C128.177 8.58398 127.63 8.28252 126.952 8.06292C126.785 8.00193 126.623 7.94284 126.467 7.88553C126.307 7.8365 126.149 7.8008 125.998 7.75982C125.693 7.68481 125.411 7.59873 125.138 7.54652C124.589 7.4736 124.11 7.35376 123.665 7.3465C122.765 7.27998 122.096 7.28462 121.418 7.27688C120.061 7.26127 118.704 7.24565 115.991 7.24565C110.562 7.24565 110.562 7.15516 105.134 7.15516C99.7061 7.15516 99.7061 7.2646 94.278 7.2646C88.8499 7.2646 88.85 7.121 83.422 7.121C77.994 7.121 77.9943 7.02485 72.5664 7.02485C68.9477 7.03551 65.329 7.04618 61.7102 7.05686C56.2824 7.05686 56.2824 7.30418 50.8547 7.30418C45.4264 7.30418 45.4264 7.16641 39.9981 7.16641C34.5704 7.16641 34.5704 7.05806 29.1427 7.05806C25.5238 7.0387 21.9047 7.01934 18.2856 7C17.5591 7.03522 16.922 7.05612 16.3638 7.17511C15.7995 7.25015 15.3201 7.39665 14.8852 7.5259C14.4446 7.63596 14.0771 7.82392 13.7205 7.96462C13.3608 8.10049 13.0502 8.28978 12.7335 8.461C12.5765 8.54838 12.4195 8.6358 12.2601 8.72454C12.109 8.82689 11.9555 8.93077 11.7975 9.0378C11.6397 9.14386 11.4773 9.25303 11.308 9.36684C11.144 9.48777 10.9824 9.62653 10.8071 9.7642C10.0982 10.3036 9.32104 11.0492 8.43171 12.1549C7.54271 13.2694 7.09466 14.253 6.72471 15.0576C6.5727 15.4754 6.42232 15.8475 6.30607 16.2071C6.20931 16.5729 6.11825 16.9173 6.02716 17.2617C5.89751 17.9617 5.77626 18.6662 5.75495 19.5583C5.72134 20.4354 5.7401 21.4338 5.73349 22.7984C5.72793 26.4206 5.72237 30.0429 5.7168 33.6652C5.7168 39.0991 5.50879 39.0991 5.50879 44.533C5.5205 48.1552 5.53221 51.7775 5.54392 55.3997C5.53741 59.0216 5.5309 62.6435 5.52439 66.2655C5.53551 68.9821 5.54106 70.3404 5.54661 71.6987C5.55131 72.3779 5.556 73.0571 5.56187 73.906C5.58111 74.3457 5.59843 74.8514 5.64948 75.4104C5.73743 75.9684 5.80808 76.5988 6.01404 77.2941C6.39188 78.6901 6.87088 79.6781 7.33307 80.4512C7.56645 80.8381 7.77098 81.19 8.0128 81.4893C8.24708 81.7931 8.44484 82.0979 8.6988 82.356C9.17101 82.903 9.68777 83.411 10.3883 83.9803C11.0994 84.534 11.9983 85.1553 13.3226 85.7405C16.0086 86.8031 17.5792 86.7174 18.9258 86.741C20.2825 86.7365 21.6392 86.7321 24.3525 86.7232C27.9709 86.7314 31.5893 86.7397 35.2078 86.7479C38.8253 86.7706 42.443 86.7932 46.0608 86.8158C51.4885 86.8158 51.4885 86.6383 56.9162 86.6383C62.3425 86.6383 62.3425 86.541 67.7688 86.541C71.387 86.5476 75.0051 86.5543 78.6233 86.5609C84.0496 86.5609 84.0496 86.6461 89.4759 86.6461C93.0935 86.6345 96.7111 86.6229 100.329 86.6112C105.756 86.6112 105.756 86.6967 111.184 86.6967C112.961 86.6967 114.736 86.7889 116.512 86.8564C118.18 86.9198 119.991 87.0994 121.634 86.7824C121.741 86.7616 121.843 86.7553 121.939 86.7603C122.145 86.7078 122.337 86.6511 122.522 86.5907C122.836 86.2154 122.736 85.5472 122.234 85.332C121.954 85.2121 121.197 85.3364 120.87 85.3297L119.402 85.2871C118.484 85.254 117.552 85.3225 116.63 85.3451C113.833 85.4138 111.018 85.4229 108.223 85.3219C106.503 85.2597 104.792 85.0984 103.072 85.0419C102.155 85.0118 101.238 85.0018 100.32 85.0018C94.8915 85.0018 94.8915 85.1139 89.4626 85.1139C85.8436 85.1249 82.2245 85.1358 78.6054 85.1468C73.1767 85.1468 73.1767 85.0287 67.748 85.0287C62.3193 85.0287 62.3194 85.2707 56.8908 85.2707C51.4628 85.2707 51.4628 85.1691 46.0349 85.1691C40.6069 85.1691 40.6071 85.3103 35.1793 85.3103C29.752 85.3103 29.752 85.1643 24.3248 85.1643C21.6107 85.1761 20.2537 85.182 18.8966 85.1879C18.5537 85.1936 18.216 85.195 17.888 85.1739C17.5519 85.1535 17.1922 85.1648 16.802 85.0889C16.4092 85.0341 15.976 84.9777 15.4996 84.8367C15.0128 84.7361 14.4959 84.528 13.9028 84.3044C12.7383 83.792 11.9598 83.2257 11.3442 82.731C11.0352 82.4836 10.7944 82.2171 10.5475 81.9904C10.3076 81.7556 10.1198 81.4979 9.91075 81.2627C9.69444 81.0326 9.5391 80.7535 9.34023 80.4859C9.13525 80.2214 8.9736 79.9052 8.77528 79.5675C8.39096 78.8871 7.98633 78.0295 7.66635 76.821C7.48488 76.221 7.4307 75.6742 7.34067 75.1929C7.30191 74.7007 7.2678 74.2674 7.23676 73.8732C7.20672 73.0241 7.16667 72.3449 7.12662 71.6656C7.04652 70.3072 6.96641 68.9487 6.96641 66.2317C6.96641 60.7979 7.21515 60.7979 7.21515 55.3641C7.21515 49.9303 6.94537 49.93 6.94537 44.496C6.94535 39.0623 7.19625 39.0623 7.19625 33.6286C7.16975 30.006 7.14325 26.3832 7.11676 22.7601C7.12405 21.4112 7.09852 20.3615 7.12818 19.5552C7.14072 18.7589 7.24469 18.1301 7.35381 17.5042C7.43104 17.1957 7.50827 16.8873 7.59032 16.5596C7.7038 16.2413 7.82395 15.9043 7.95745 15.5298C8.29219 14.8125 8.68296 13.9263 9.48618 12.9317C9.66512 12.667 9.88655 12.4631 10.0703 12.2507C10.2559 12.0393 10.4361 11.8469 10.6278 11.6875C10.8123 11.5208 10.9858 11.3641 11.15 11.2158C11.3237 11.079 11.4952 10.9594 11.6541 10.8401C11.966 10.5922 12.2743 10.4106 12.5671 10.2423C12.7123 10.1566 12.8533 10.0735 12.9922 9.99162C13.1383 9.9237 13.2823 9.85681 13.4262 9.78995C13.7134 9.65531 13.9969 9.5125 14.3197 9.41345C14.6389 9.30698 14.9666 9.16289 15.3558 9.08441C15.5476 9.0362 15.7489 8.98561 15.9622 8.93201C16.1756 8.87869 16.4089 8.86123 16.6522 8.81977C17.1386 8.72137 17.6938 8.72161 18.3269 8.68404C21.9451 8.66954 25.5634 8.65504 29.1817 8.64054C34.6091 8.64054 34.6091 8.82969 40.0364 8.82969C45.4637 8.82969 45.4638 8.65769 50.8912 8.65769C54.5099 8.66335 58.1285 8.66901 61.7471 8.67467C67.1746 8.67467 67.1746 8.5387 72.602 8.5387C78.0289 8.5387 78.0289 8.70978 83.4558 8.70978C88.8831 8.70978 88.8831 8.52882 94.3105 8.52882C99.7378 8.52882 99.7376 8.70566 105.165 8.70566C110.592 8.70566 110.592 8.80821 116.018 8.80821C118.732 8.80821 120.089 8.80818 121.446 8.80818H122.485C122.851 8.8047 123.178 8.83934 123.577 8.85325C123.969 8.85919 124.389 8.96522 124.874 9.02481C125.113 9.07527 125.362 9.14864 125.63 9.21451C125.9 9.27162 126.176 9.37076 126.468 9.48314C127.065 9.67386 127.543 9.94696 127.989 10.1469C128.402 10.4082 128.797 10.5907 129.108 10.8313C129.759 11.2699 130.24 11.6803 130.704 12.1089C130.922 12.3367 131.154 12.5548 131.378 12.8061C131.585 13.0714 131.819 13.3431 132.05 13.666C132.477 14.3314 133.002 15.1476 133.389 16.3668C133.498 16.6661 133.549 16.963 133.624 17.2336C133.703 17.5043 133.745 17.7649 133.773 18.0126C133.807 18.2591 133.839 18.4907 133.869 18.7101C133.875 18.9315 133.88 19.1405 133.885 19.3397C133.889 19.5393 133.892 19.729 133.895 19.9112C133.888 20.1049 133.882 20.2906 133.876 20.471C133.861 20.8318 133.847 21.1714 133.833 21.5111C133.775 22.8695 133.717 24.2279 133.717 26.9447C133.717 32.377 134.019 32.377 134.019 37.8093C134.025 41.4314 134.03 45.0535 134.035 48.6757C134.036 52.2972 134.037 55.9187 134.037 59.5402C134.037 64.9726 133.868 64.9726 133.868 70.405C133.877 71.7632 133.885 72.7819 133.891 73.631C133.907 74.0676 133.879 74.4024 133.876 74.7467C133.881 75.0865 133.836 75.4014 133.795 75.7176C133.761 76.035 133.722 76.3523 133.633 76.6802C133.554 77.0099 133.491 77.3663 133.344 77.7392C133.278 77.9282 133.209 78.1267 133.136 78.337C133.054 78.5436 132.945 78.7528 132.841 78.9805C132.737 79.2084 132.625 79.4494 132.469 79.6867C132.317 79.9251 132.181 80.1955 131.989 80.4525C131.067 81.7709 129.85 82.877 128.467 83.6816C127.769 84.1046 127.011 84.4174 126.242 84.677C125.589 84.8871 124.754 84.9253 124.112 85.0897Z" fill="black"/>
<path d="M117.87 1.72949H13.1052C6.59605 1.72949 1.31934 7.012 1.31934 13.5283V65.5794C1.31934 72.0957 6.59605 77.3782 13.1052 77.3782H117.87C124.379 77.3782 129.656 72.0957 129.656 65.5794V13.5283C129.656 7.012 124.379 1.72949 117.87 1.72949Z" fill="white"/>
<path d="M119.264 76.4979C119.034 76.5764 118.788 76.6154 118.523 76.6683C117.873 76.803 117.513 77.845 118.386 77.977C118.661 78.0126 118.97 78.0015 119.271 77.9316C119.573 77.8579 119.872 77.7695 120.148 77.7247C120.902 77.5698 121.648 77.3692 122.369 77.0937C123.645 76.6101 124.857 75.9488 125.956 75.113C126.818 74.4502 127.486 73.5171 128.107 72.633C128.489 72.0378 128.825 71.5143 129.049 71.0075C129.309 70.5171 129.475 70.0586 129.628 69.6423C129.802 69.2327 129.876 68.8379 129.985 68.4763C130.099 68.115 130.145 67.762 130.207 67.4117C130.237 67.2362 130.266 67.0607 130.297 66.8824C130.31 66.7023 130.324 66.5194 130.338 66.3309C130.363 65.9545 130.395 65.5447 130.392 65.1349C130.396 64.2954 130.401 63.2882 130.408 61.9453C130.408 56.574 130.268 56.574 130.268 51.2028C130.268 45.8318 130.423 45.8318 130.423 40.4608C130.412 36.8802 130.401 33.2995 130.391 29.7187C130.391 24.3477 130.287 24.3477 130.287 18.9767C130.287 16.2916 130.345 14.949 130.403 13.6064C130.406 12.9038 130.417 12.1771 130.274 11.2905C130.232 10.8417 130.077 10.3682 129.954 9.8193C129.766 9.29067 129.593 8.67912 129.257 8.04007C128.966 7.37929 128.598 6.86154 128.298 6.38842C127.947 5.94942 127.671 5.53651 127.343 5.22724C126.734 4.56895 126.17 4.12055 125.593 3.70638C125.293 3.51364 125.01 3.29858 124.681 3.1146C124.347 2.94028 124.011 2.72692 123.61 2.54162C123.202 2.3733 122.778 2.13478 122.251 1.97378C121.99 1.888 121.72 1.77515 121.421 1.69367C121.121 1.6174 120.801 1.53643 120.461 1.45006C119.77 1.33207 119.164 1.214 118.614 1.20667C118.341 1.19252 118.084 1.17922 117.841 1.16664C117.608 1.16528 117.388 1.16398 117.178 1.16272C116.34 1.1546 115.67 1.14809 114.999 1.14161C113.658 1.12624 112.317 1.1109 109.635 1.1109C104.271 1.1109 104.271 1.02185 98.9061 1.02185C93.5415 1.02185 93.5415 1.12955 88.177 1.12955C82.8124 1.12955 82.8126 0.988229 77.4481 0.988229C72.0836 0.988229 72.0838 0.89362 66.7194 0.89362C63.1431 0.904099 59.5667 0.914589 55.9903 0.925091C50.626 0.925091 50.6261 1.16852 45.2618 1.16852C39.8971 1.16852 39.8971 1.03293 34.5323 1.03293C29.1681 1.03293 29.1681 0.92628 23.8039 0.92628C20.2273 0.907232 16.6506 0.888185 13.0739 0.869141C12.3558 0.903472 11.7262 0.925224 11.1746 1.04271C10.6169 1.11663 10.1434 1.2635 9.71348 1.39033C8.8604 1.66322 8.2048 1.96148 7.58832 2.31742C7.43337 2.40501 7.27491 2.48533 7.1216 2.57994C6.97221 2.68107 6.82057 2.78372 6.66439 2.88945C6.50843 2.99429 6.34795 3.10213 6.18067 3.21457C6.02333 3.34054 5.85958 3.47167 5.68729 3.60961C4.99003 4.14656 4.21989 4.88146 3.34799 5.98031C2.47563 7.08601 2.02942 8.05642 1.6753 8.85682C1.52784 9.27058 1.37065 9.63567 1.26785 9.99481C1.17241 10.3565 1.0826 10.6969 0.992778 11.0373C0.937113 11.385 0.881466 11.7327 0.822326 12.1022C0.768927 12.4725 0.768669 12.8701 0.738276 13.3092C0.713144 14.1684 0.725861 15.1606 0.72113 16.5076C0.715658 20.0874 0.710185 23.6673 0.704713 27.2472C0.704713 32.6175 0.5 32.6175 0.5 37.9878C0.511524 41.5677 0.523047 45.1475 0.534567 48.7274C0.528166 52.3069 0.521764 55.8865 0.515362 59.466C0.526293 62.1508 0.531761 63.4932 0.537207 64.8357C0.573866 66.1517 0.483177 67.7194 1.51264 70.3797C1.80871 71.0289 2.06875 71.6 2.3762 72.0668C2.65025 72.5544 2.95246 72.942 3.22107 73.2985C3.77274 73.9989 4.27036 74.5159 4.80767 74.9853C5.06353 75.2354 5.35165 75.4464 5.65654 75.6722C5.80946 75.7843 5.96232 75.9064 6.13056 76.0206C6.30437 76.1266 6.48533 76.237 6.67581 76.3533C7.43244 76.8228 8.41014 77.2919 9.78277 77.6827C11.1593 78.08 12.246 78.1019 13.1295 78.1359C13.9675 78.1313 14.6379 78.1275 15.3083 78.1238C16.6491 78.1194 17.9899 78.1151 20.6715 78.1063C24.2475 78.1144 27.8236 78.1225 31.3998 78.1307C34.9749 78.1529 38.5503 78.1752 42.1257 78.1974C47.4899 78.1974 47.4899 78.0227 52.8541 78.0227C58.2169 78.0227 58.2169 77.927 63.5797 77.927C67.1556 77.9335 70.7314 77.9401 74.3072 77.9466C79.67 77.9466 79.67 78.0305 85.0328 78.0305C88.6081 78.019 92.1834 78.0076 95.7587 77.9961C101.123 77.9961 101.123 78.0802 106.486 78.0802C108.243 78.0802 109.998 78.1709 111.752 78.2374C113.401 78.2998 115.191 78.4765 116.814 78.1645C116.921 78.1441 117.021 78.1379 117.116 78.1428C117.319 78.0911 117.509 78.0354 117.692 77.9759C118.003 77.6066 117.904 76.949 117.407 76.7372C117.131 76.6192 116.382 76.7415 116.06 76.7349L114.609 76.693C113.702 76.6604 112.781 76.7278 111.869 76.7501C109.105 76.8177 106.323 76.8267 103.56 76.7272C101.861 76.666 100.17 76.5073 98.47 76.4517C97.5639 76.4221 96.6571 76.4123 95.7504 76.4123C90.385 76.4123 90.385 76.5226 85.0197 76.5226C81.443 76.5333 77.8663 76.5441 74.2895 76.5549C68.9244 76.5549 68.9244 76.4387 63.5592 76.4387C58.194 76.4387 58.1941 76.6769 52.829 76.6769C47.4646 76.6769 47.4646 76.5768 42.1001 76.5768C36.7357 76.5768 36.7359 76.7158 31.3716 76.7158C26.0078 76.7158 26.0078 76.5721 20.6441 76.5721C17.9618 76.5837 16.6207 76.5895 15.2794 76.5953C14.6089 76.6002 13.9384 76.605 13.1003 76.611C12.3201 76.5754 11.3652 76.5623 10.1576 76.2069C8.95483 75.8569 8.09796 75.44 7.44604 75.0088C7.28129 74.9037 7.12476 74.8037 6.9744 74.7078C6.83454 74.597 6.7004 74.4907 6.5701 74.3875C6.30756 74.1841 6.06498 73.9884 5.8497 73.761C5.39475 73.3359 4.97889 72.8688 4.51521 72.2495C4.28681 71.9362 4.03311 71.5945 3.80123 71.1692C3.53695 70.7637 3.32057 70.2653 3.0647 69.7043C2.95741 69.4146 2.8568 69.1431 2.76208 68.8873C2.67687 68.6284 2.62217 68.3777 2.55392 68.1459C2.40212 67.6847 2.37274 67.256 2.28503 66.877C2.1806 66.1105 2.12599 65.4931 2.09215 64.803C2.01331 63.4604 1.93449 62.1178 1.93449 59.4326C1.93449 54.0624 2.17927 54.0624 2.17927 48.6922C2.17927 43.3219 1.91378 43.3217 1.91378 37.9513C1.91376 32.5812 2.16067 32.5812 2.16067 27.211C2.13459 23.6308 2.10852 20.0504 2.08244 16.4697C2.08793 15.1344 2.06826 14.1043 2.08992 13.2973C2.11766 12.9059 2.10525 12.5495 2.1574 12.2197C2.20678 11.8896 2.25323 11.5789 2.29971 11.2682C2.37615 10.9634 2.45261 10.6586 2.53382 10.3348C2.62834 10.0149 2.76276 9.68678 2.89102 9.31532C3.21078 8.6015 3.60085 7.72753 4.38887 6.74078C5.17706 5.76211 5.87857 5.1133 6.52389 4.66623C6.68338 4.55167 6.82907 4.43435 6.97919 4.33691C7.13331 4.24564 7.28111 4.15809 7.42467 4.07309C7.56794 3.98789 7.70702 3.90521 7.84397 3.8238C7.98836 3.7565 8.13051 3.69021 8.27266 3.62397C8.5572 3.49254 8.83577 3.3476 9.15503 3.25013C9.47084 3.14621 9.79383 3.0008 10.1786 2.92354C10.5571 2.82528 10.9727 2.71485 11.4596 2.66109C11.9403 2.56395 12.489 2.56313 13.1147 2.52645C16.6905 2.51217 20.2665 2.49791 23.8425 2.48366C29.2063 2.48366 29.2063 2.66978 34.5701 2.66978C39.9339 2.66978 39.934 2.5005 45.2979 2.5005C48.8742 2.50607 52.4505 2.51164 56.0268 2.51721C61.3907 2.51721 61.3907 2.38342 66.7546 2.38342C72.118 2.38342 72.118 2.55178 77.4814 2.55178C82.8453 2.55178 82.8453 2.3737 88.2091 2.3737C93.5729 2.3737 93.5727 2.54772 98.9364 2.54772C104.3 2.54772 104.3 2.64863 109.663 2.64863C112.345 2.64863 113.686 2.6486 115.027 2.6486H117.869C118.084 2.65978 118.311 2.67161 118.552 2.68419C118.794 2.69241 119.05 2.70475 119.318 2.75726C119.587 2.80465 119.877 2.82937 120.178 2.90028C121.389 3.16134 122.239 3.55154 122.941 3.87479C123.289 4.04434 123.583 4.23455 123.876 4.38998C124.16 4.55837 124.407 4.75036 124.668 4.92233C125.167 5.29531 125.655 5.6951 126.183 6.27708C126.472 6.54769 126.702 6.91812 127.012 7.29963C127.268 7.71814 127.592 8.16957 127.843 8.74893C127.985 9.03086 128.11 9.29822 128.193 9.56453C128.283 9.82736 128.381 10.0696 128.449 10.3057C128.55 10.7871 128.695 11.1984 128.722 11.5929C128.846 12.3732 128.827 12.994 128.824 13.6318C128.768 14.9743 128.711 16.3168 128.711 19.0018C128.711 24.3706 129.008 24.3706 129.008 29.7393C129.013 33.319 129.018 36.8987 129.024 40.4785C129.024 44.0576 129.025 47.6368 129.025 51.2159C129.025 56.5847 128.858 56.5847 128.858 61.9535C128.868 63.2959 128.875 64.3026 128.881 65.1418C128.896 65.5722 128.877 65.9139 128.87 66.2495C128.865 66.4167 128.861 66.579 128.856 66.7389C128.836 66.8974 128.817 67.0536 128.797 67.2097C128.757 67.522 128.733 67.8384 128.643 68.1621C128.56 68.4862 128.51 68.8423 128.363 69.2103C128.237 69.5851 128.099 69.9985 127.871 70.439C127.678 70.896 127.377 71.3647 127.037 71.8987C126.13 73.205 124.93 74.3017 123.565 75.0998C122.877 75.5204 122.128 75.8302 121.368 76.0874C120.724 76.2969 119.898 76.3354 119.264 76.4979Z" fill="black"/>
<path d="M90.6681 22.6109C90.7033 22.5461 90.7399 22.4749 90.7791 22.393C90.8782 22.1855 90.9207 20.0747 90.807 19.7144C90.7354 19.4875 90.6464 19.827 90.5727 19.8358C90.471 19.8481 90.3694 19.8424 90.2677 19.8189C90.0877 19.7774 89.9081 19.6691 89.7285 19.5272C89.5879 19.4161 89.4407 19.6678 89.2985 19.6678C88.5568 19.6678 88.5568 19.4471 87.8151 19.4471C87.0735 19.4471 87.0735 19.7372 86.3319 19.7372C85.5904 19.7372 85.5904 19.4171 84.8488 19.4171C84.1073 19.4171 84.1072 19.484 83.3657 19.484C82.6241 19.484 82.6241 19.697 81.8826 19.697C81.1411 19.697 81.1411 19.2196 80.3997 19.2196C79.6582 19.2196 79.6582 19.8529 78.9168 19.8529C78.1754 19.8529 78.1754 19.7263 77.434 19.7263C76.6925 19.7263 76.6925 19.5428 75.9511 19.5428C75.2096 19.5428 75.2096 19.7648 74.4681 19.7648C73.7266 19.7648 73.7266 19.4736 72.9852 19.4736C72.2437 19.4736 72.2437 19.2787 71.5023 19.2787C70.7608 19.2787 70.7608 19.3436 70.0193 19.3436C69.2779 19.3436 69.2779 19.8451 68.5365 19.8451C67.7949 19.8451 67.795 19.5657 67.0535 19.5657C66.312 19.5657 66.312 19.346 65.5706 19.346C64.8292 19.346 64.8292 19.2253 64.0878 19.2253C63.3464 19.2253 63.3464 19.8535 62.605 19.8535C61.8636 19.8535 61.8636 19.7672 61.1223 19.7672C60.3809 19.7672 60.3809 19.7334 59.6395 19.7334C58.898 19.7334 58.898 19.3111 58.1566 19.3111C57.4152 19.3111 57.4152 19.3824 56.6738 19.3824C55.9325 19.3824 55.9325 19.3428 55.1911 19.3428C54.4498 19.3428 54.4498 19.433 53.7084 19.433C52.967 19.433 52.967 19.428 52.2257 19.428C51.4844 19.428 51.4844 19.5003 50.7431 19.5003C50.0017 19.5003 50.0017 19.4501 49.2602 19.4501C48.519 19.4501 48.519 19.3125 47.7777 19.3125C47.0363 19.3125 47.0363 19.6725 46.2949 19.6725C45.5536 19.6725 45.5536 19.8696 44.8124 19.8696C44.071 19.8696 44.071 19.8294 43.3297 19.8294C42.5884 19.8294 42.5884 19.6565 41.8472 19.6565C41.106 19.6565 41.106 19.7272 40.3647 19.7272C39.6233 19.7272 39.6233 19.554 38.8819 19.554C38.6391 19.554 38.3966 19.3671 38.1541 19.2302C37.9263 19.1015 37.6789 18.7375 37.4544 19.3803C37.4397 19.4224 37.4258 19.4351 37.4127 19.425C37.3846 19.5315 37.3584 19.6464 37.3331 19.7689C37.2902 20.5298 37.3039 21.8846 37.3725 22.3209C37.4107 22.5641 37.5141 22.3121 37.5587 22.3257C37.6256 22.3461 37.6925 22.3762 37.7593 22.412C37.8847 22.4792 38.012 22.3402 38.138 22.2943C38.52 22.1551 38.9046 22.1366 39.2864 22.3415C39.5213 22.4676 39.755 22.7947 39.99 22.9092C40.1152 22.9702 40.2405 22.9904 40.3658 22.9904C41.1074 22.9904 41.1074 22.7631 41.849 22.7631C42.5906 22.7631 42.5906 22.6965 43.3321 22.6965C44.0737 22.6965 44.0737 22.9359 44.8153 22.9359C45.5568 22.9359 45.5568 22.4452 46.2984 22.4452C47.0398 22.4452 47.0398 22.6513 47.7813 22.6513C48.5227 22.6513 48.5227 22.3649 49.2641 22.3649C50.0055 22.3649 50.0055 22.661 50.7469 22.661C51.4884 22.661 51.4884 22.5655 52.2299 22.5655C52.9714 22.5655 52.9714 22.9202 53.7128 22.9202C54.4543 22.9202 54.4543 22.2698 55.1958 22.2698C55.9372 22.2698 55.9372 22.7747 56.6786 22.7747C57.4201 22.7747 57.4201 22.2271 58.1616 22.2271C58.903 22.2271 58.903 22.7363 59.6445 22.7363C60.386 22.7363 60.386 22.575 61.1275 22.575C61.8689 22.575 61.8689 22.5115 62.6103 22.5115C63.3517 22.5115 63.3517 22.6428 64.0931 22.6428C64.8345 22.6428 64.8345 22.5546 65.5759 22.5546C66.3173 22.5546 66.3173 22.9381 67.0587 22.9381C67.8 22.9381 67.8 22.5893 68.5414 22.5893C69.2829 22.5893 69.2829 22.6238 70.0244 22.6238C70.7657 22.6238 70.7657 22.3481 71.5071 22.3481C72.2485 22.3481 72.2485 22.695 72.9898 22.695C73.7312 22.695 73.7312 22.3281 74.4725 22.3281C75.2139 22.3281 75.2139 22.6866 75.9553 22.6866C76.6965 22.6866 76.6965 22.8945 77.4378 22.8945C77.9321 22.8945 78.4264 22.8945 78.9207 22.8944C79.6619 22.8944 79.6619 22.4794 80.4032 22.4794C81.1446 22.4794 81.1446 22.9488 81.886 22.9488C82.6273 22.9488 82.6273 22.3365 83.3685 22.3365C84.1099 22.3365 84.1099 22.3034 84.8513 22.3034C85.5925 22.3034 85.5925 22.2998 86.3337 22.2998C87.075 22.2998 87.075 22.6443 87.8162 22.6443C88.5576 22.6443 88.5576 22.3439 89.299 22.3439C89.5314 22.3439 89.7637 22.3826 89.9961 22.4216C90.1144 22.4415 90.2327 22.4616 90.3511 22.4767C90.45 22.4893 90.5712 22.7885 90.6681 22.6109Z" fill="black"/>
<path d="M29.0308 8.99121H12.6669C10.406 8.99121 8.57324 10.826 8.57324 13.0894V29.4713C8.57324 31.7346 10.406 33.5694 12.6669 33.5694H29.0308C31.2917 33.5694 33.1245 31.7346 33.1245 29.4713V13.0894C33.1245 10.826 31.2917 8.99121 29.0308 8.99121Z" fill="#99C9FF"/>
<path d="M117.805 45.3181C117.875 45.2612 117.948 45.1985 118.026 45.1266C118.223 44.9442 118.307 43.0894 118.081 42.7727C117.939 42.5733 117.762 42.8716 117.615 42.8794C117.413 42.8901 117.21 42.8852 117.008 42.8646C116.65 42.8281 116.293 42.7329 115.935 42.6081C115.656 42.5105 115.363 42.7317 115.08 42.7317C113.604 42.7317 113.604 42.5378 112.128 42.5378C110.653 42.5378 110.653 42.7927 109.178 42.7927C107.702 42.7927 107.702 42.5115 106.227 42.5115C104.751 42.5115 104.751 42.5702 103.276 42.5702C101.801 42.5702 101.801 42.7574 100.325 42.7574C98.8501 42.7574 98.8501 42.3379 97.3748 42.3379C95.8996 42.3379 95.8997 42.8944 94.4245 42.8944C92.9495 42.8944 92.9495 42.7832 91.4745 42.7832C89.9992 42.7832 89.9992 42.6219 88.524 42.6219C87.0487 42.6219 87.0488 42.817 85.5735 42.817C84.0983 42.817 84.0983 42.5611 82.6231 42.5611C81.1479 42.5611 81.148 42.3898 79.6728 42.3898C78.1976 42.3898 78.1975 42.4468 76.7223 42.4468C75.2471 42.4468 75.2472 42.8875 73.772 42.8875C72.2967 42.8875 72.2967 42.642 70.8215 42.642C69.3463 42.642 69.3463 42.4489 67.8712 42.4489C66.396 42.4489 66.3961 42.3428 64.921 42.3428C63.446 42.3428 63.446 42.8949 61.9709 42.8949C60.4959 42.8949 60.4959 42.8191 59.0209 42.8191C57.5459 42.8191 57.5458 42.7893 56.0708 42.7893C54.5955 42.7893 54.5955 42.4183 53.1204 42.4183C51.6453 42.4183 51.6453 42.4809 50.1702 42.4809C48.6953 42.4809 48.6953 42.4461 47.2204 42.4461C45.7454 42.4461 45.7454 42.5253 44.2704 42.5253C42.7953 42.5253 42.7954 42.5209 41.3204 42.5209C39.8455 42.5209 39.8455 42.5845 38.3706 42.5845C36.8955 42.5845 36.8955 42.5404 35.4204 42.5404C33.9456 42.5404 33.9456 42.4195 32.4708 42.4195C30.9957 42.4195 30.9957 42.7358 29.5206 42.7358C28.0458 42.7358 28.0458 42.9091 26.571 42.9091C25.096 42.9091 25.096 42.8737 23.621 42.8737C22.1463 42.8737 22.1463 42.7217 20.6715 42.7217C19.1968 42.7217 19.1967 42.784 17.722 42.784C16.2469 42.784 16.2469 42.6317 14.7719 42.6317C14.2887 42.6317 13.8063 42.4675 13.3238 42.3471C12.8705 42.2341 12.3783 41.9142 11.9318 42.479C11.9025 42.516 11.8749 42.5272 11.8487 42.5183C11.7929 42.6119 11.7406 42.7129 11.6903 42.8206C11.605 43.4892 11.6322 44.6798 11.7687 45.0632C11.8448 45.2769 12.0505 45.0554 12.1393 45.0674C12.2723 45.0854 12.4053 45.1118 12.5383 45.1432C12.7877 45.2023 13.041 45.0802 13.2917 45.0398C14.0518 44.9175 14.8169 44.9012 15.5766 45.0813C16.0439 45.1921 16.509 45.4795 16.9764 45.5802C17.2255 45.6338 17.4749 45.6516 17.7242 45.6516C19.1997 45.6516 19.1997 45.4518 20.6751 45.4518C22.1506 45.4518 22.1505 45.3933 23.6259 45.3933C25.1013 45.3933 25.1013 45.6037 26.5767 45.6037C28.0521 45.6037 28.0521 45.1725 29.5275 45.1725C31.0027 45.1725 31.0027 45.3536 32.4779 45.3536C33.9531 45.3536 33.953 45.1019 35.4282 45.1019C36.9032 45.1019 36.9032 45.3621 38.3782 45.3621C39.8535 45.3621 39.8535 45.2781 41.3287 45.2781C42.804 45.2781 42.804 45.5899 44.2792 45.5899C45.7544 45.5899 45.7544 45.0183 47.2296 45.0183C48.7048 45.0183 48.7048 45.462 50.1799 45.462C51.6551 45.462 51.6552 44.9808 53.1304 44.9808C54.6055 44.9808 54.6055 45.4283 56.0807 45.4283C57.556 45.4283 57.556 45.2865 59.0313 45.2865C60.5064 45.2865 60.5064 45.2307 61.9815 45.2307C63.4567 45.2307 63.4566 45.3461 64.9317 45.3461C66.4068 45.3461 66.4067 45.2686 67.8818 45.2686C69.3569 45.2686 69.3568 45.6056 70.8318 45.6056C72.3069 45.6056 72.3069 45.2991 73.782 45.2991C75.2572 45.2991 75.2572 45.3294 76.7324 45.3294C78.2074 45.3294 78.2074 45.0871 79.6825 45.0871C81.1574 45.0871 81.1574 45.392 82.6323 45.392C84.1073 45.392 84.1073 45.0695 85.5824 45.0695C87.0574 45.0695 87.0573 45.3846 88.5323 45.3846C90.0072 45.3846 90.0072 45.5673 91.4821 45.5673C92.4655 45.5673 93.4489 45.5673 94.4323 45.5673C95.9071 45.5673 95.9071 45.2025 97.3819 45.2025C98.857 45.2025 98.857 45.6151 100.332 45.6151C101.807 45.6151 101.807 45.0769 103.282 45.0769C104.757 45.0769 104.757 45.0479 106.232 45.0479C107.215 45.0479 108.198 45.0468 109.181 45.0447C110.656 45.0447 110.656 45.3474 112.131 45.3474C113.606 45.3474 113.606 45.0834 115.081 45.0834C115.543 45.0834 116.005 45.1174 116.468 45.1517C116.703 45.1692 116.939 45.1869 117.174 45.2001C117.371 45.2112 117.612 45.4741 117.805 45.3181Z" fill="black"/>
<path d="M77.2293 58.7253C77.2726 58.6684 77.3177 58.6058 77.3658 58.5338C77.4876 58.3515 77.5399 56.4966 77.4001 56.1799C77.3121 55.9805 77.2027 56.2788 77.1121 56.2866C76.9871 56.2974 76.8622 56.2924 76.7372 56.2718C76.516 56.2353 76.2952 56.1401 76.0744 56.0154C75.9016 55.9178 75.7207 56.139 75.5458 56.139C74.6342 56.139 74.6342 55.945 73.7225 55.945C72.811 55.945 72.811 56.2 71.8995 56.2C70.988 56.2 70.988 55.9187 70.0765 55.9187C69.165 55.9187 69.165 55.9774 68.2535 55.9774C67.342 55.9774 67.342 56.1646 66.4305 56.1646C65.5191 56.1646 65.5191 55.7451 64.6077 55.7451C63.6963 55.7451 63.6964 56.3016 62.785 56.3016C61.8737 56.3016 61.8737 56.1904 60.9625 56.1904C60.0511 56.1904 60.0511 56.0291 59.1397 56.0291C58.2282 56.0291 58.2283 56.2242 57.3168 56.2242C56.4054 56.2242 56.4055 55.9683 55.4941 55.9683C54.5827 55.9683 54.5827 55.797 53.6714 55.797C52.76 55.797 52.76 55.854 51.8486 55.854C50.9372 55.854 50.9372 56.2947 50.0259 56.2947C49.1144 56.2947 49.1144 56.0492 48.203 56.0492C47.2917 56.0492 47.2917 55.8561 46.3803 55.8561C45.469 55.8561 45.469 55.75 44.5577 55.75C43.6464 55.75 43.6464 56.3021 42.7351 56.3021C41.8238 56.3021 41.8239 56.2263 40.9126 56.2263C40.0013 56.2263 40.0013 56.1965 39.09 56.1965C38.1786 56.1965 38.1786 55.8255 37.2672 55.8255C36.356 55.8255 36.356 55.8882 35.4447 55.8882C34.5334 55.8882 34.5334 55.8534 33.6222 55.8534C32.711 55.8534 32.711 55.9325 31.7997 55.9325C30.8884 55.9325 30.8884 55.9282 29.9772 55.9282C29.066 55.9282 29.066 55.9917 28.1549 55.9917C27.2435 55.9917 27.2435 55.9476 26.3322 55.9476C25.4211 55.9476 25.4211 55.8267 24.5099 55.8267C23.5986 55.8267 23.5986 56.143 22.6873 56.143C21.7761 56.143 21.7761 56.3163 20.865 56.3163C19.9538 56.3163 19.9538 56.2809 19.0425 56.2809C18.1314 56.2809 18.1314 56.129 17.2203 56.129C16.3092 56.129 16.3092 56.1912 15.3981 56.1912C14.4868 56.1912 14.4868 56.039 13.5755 56.039C13.277 56.039 12.979 55.8747 12.6809 55.7543C12.4008 55.6413 12.0967 55.3214 11.8209 55.8863C11.8028 55.9232 11.7857 55.9344 11.7696 55.9256C11.7351 56.0191 11.7028 56.1201 11.6717 56.2278C11.619 56.8965 11.6358 58.0871 11.7201 58.4704C11.7671 58.6841 11.8942 58.4627 11.9491 58.4747C12.0312 58.4926 12.1134 58.5191 12.1956 58.5505C12.3497 58.6095 12.5062 58.4874 12.6611 58.4471C13.1306 58.3247 13.6033 58.3085 14.0727 58.4886C14.3613 58.5993 14.6487 58.8868 14.9374 58.9874C15.0914 59.041 15.2454 59.0588 15.3995 59.0588C16.311 59.0588 16.311 58.8591 17.2225 58.8591C18.134 58.8591 18.134 58.8005 19.0455 58.8005C19.957 58.8005 19.957 59.0109 20.8685 59.0109C21.78 59.0109 21.78 58.5797 22.6915 58.5797C23.6029 58.5797 23.6029 58.7608 24.5143 58.7608C25.4256 58.7608 25.4256 58.5091 26.337 58.5091C27.2482 58.5091 27.2482 58.7693 28.1595 58.7693C29.0709 58.7693 29.0709 58.6854 29.9823 58.6854C30.8937 58.6854 30.8937 58.9971 31.8051 58.9971C32.7165 58.9971 32.7165 58.4256 33.6279 58.4256C34.5393 58.4256 34.5392 58.8692 35.4506 58.8692C36.362 58.8692 36.362 58.388 37.2734 58.388C38.1848 58.388 38.1848 58.8355 39.0961 58.8355C40.0075 58.8355 40.0075 58.6937 40.919 58.6937C41.8303 58.6937 41.8303 58.638 42.7417 58.638C43.653 58.638 43.653 58.7533 44.5643 58.7533C45.4756 58.7533 45.4756 58.6758 46.3868 58.6758C47.2981 58.6758 47.2981 59.0128 48.2094 59.0128C49.1207 59.0128 49.1207 58.7063 50.032 58.7063C50.9434 58.7063 50.9434 58.7366 51.8547 58.7366C52.766 58.7366 52.766 58.4944 53.6773 58.4944C54.5885 58.4944 54.5885 58.7992 55.4997 58.7992C56.411 58.7992 56.411 58.4768 57.3223 58.4768C58.2336 58.4768 58.2335 58.7918 59.1448 58.7918C60.056 58.7918 60.056 58.9745 60.9671 58.9745C61.5747 58.9745 62.1822 58.9745 62.7898 58.9745C63.7009 58.9745 63.7009 58.6097 64.6121 58.6097C65.5234 58.6097 65.5234 59.0223 66.4347 59.0223C67.3458 59.0223 67.3458 58.4842 68.2569 58.4842C69.1682 58.4842 69.1682 58.4551 70.0795 58.4551C70.9906 58.4551 70.9906 58.4519 71.9017 58.4519C72.8128 58.4519 72.8128 58.7546 73.7239 58.7546C74.6352 58.7546 74.6352 58.4906 75.5465 58.4906C75.8321 58.4906 76.1177 58.5247 76.4033 58.5589C76.5488 58.5764 76.6942 58.5941 76.8397 58.6074C76.9613 58.6184 77.1102 58.8814 77.2293 58.7253Z" fill="black"/>
</svg>
