<svg xmlns="http://www.w3.org/2000/svg" width="23" height="32" viewBox="0 0 23 32" fill="none">
  <path d="M7.6818 5.92377V8.76587C7.6818 11.2918 9.72506 13.3395 12.2456 13.3395H14.7699C16.575 13.7798 16.575 16.4058 14.7699 16.8461H7.62147C6.82739 16.8461 6.17541 16.2364 6.10628 15.4586V8.78229C6.10628 8.23 5.65857 7.78229 5.10628 7.78229H1C0.447716 7.78229 0 8.23 0 8.78229V31C0 31.5523 0.447715 32 1 32H5.10628C5.65857 32 6.10628 31.5523 6.10628 31V24.3318C6.17541 23.554 6.82739 22.9443 7.62147 22.9443H15.0346C15.2058 22.9443 15.3767 22.9309 15.5457 22.9042C24.4297 21.5019 24.4297 8.68371 15.5457 7.28142C15.3767 7.25473 15.2058 7.24133 15.0346 7.24133H14.0711C13.903 7.24133 13.7668 7.10482 13.7668 6.93642V5.92377H13.7723V1C13.7723 0.447715 13.3246 0 12.7723 0H8.66602C8.11373 0 7.66602 0.447715 7.66602 1V5.92377H7.6818Z" fill="#0E5249"/>
</svg>