<svg width="18" height="18" viewBox="0 0 18 18" fill="none" xmlns="http://www.w3.org/2000/svg">
<path d="M9.4045 0C8.62882 0 8 0.628815 8 1.4045V3.35496C8 3.50345 7.82048 3.57781 7.71548 3.47281L5.75051 1.50784C5.20202 0.959353 4.31274 0.959351 3.76425 1.50784L2.92208 2.35001C2.37359 2.8985 2.37359 3.78778 2.92208 4.33627L4.30129 5.71548C4.40629 5.82048 4.33192 6 4.18344 6H1.4045C0.628818 6 0 6.62882 0 7.4045V8.5955C0 9.37118 0.628815 10 1.4045 10H3.35498C3.50347 10 3.57783 10.1795 3.47284 10.2845L1.50784 12.2495C0.959348 12.798 0.959348 13.6873 1.50784 14.2358L2.35 15.0779C2.8985 15.6264 3.78777 15.6264 4.33627 15.0779L5.71548 13.6987C5.82047 13.5937 6 13.6681 6 13.8166V16.5955C6 17.3712 6.62881 18 7.40449 18H8.5955C9.37118 18 10 17.3712 10 16.5955V14.645C10 14.4965 10.1795 14.4222 10.2845 14.5272L12.2495 16.4922C12.798 17.0406 13.6873 17.0406 14.2358 16.4922L15.0779 15.65C15.6264 15.1015 15.6264 14.2122 15.0779 13.6637L13.6987 12.2845C13.5937 12.1795 13.6681 12 13.8166 12H16.5955C17.3712 12 18 11.3712 18 10.5955V9.4045C18 8.62882 17.3712 8 16.5955 8H14.645C14.4965 8 14.4222 7.82048 14.5272 7.71548L16.4922 5.75048C17.0407 5.20199 17.0407 4.31271 16.4922 3.76422L15.65 2.92206C15.1015 2.37356 14.2122 2.37356 13.6637 2.92206L12.2845 4.30127C12.1795 4.40626 12 4.3319 12 4.18342V1.4045C12 0.628815 11.3712 0 10.5955 0H9.4045Z" fill="white"/>
</svg>
