<svg xmlns="http://www.w3.org/2000/svg" viewBox="0 0 24 24" {...props}>
  <path d="M20.2295 19.007V19.0069L20.2226 10.6636C20.2226 10.2214 20.1276 9.78428 19.9442 9.38185C19.7639 8.98554 19.4987 8.63363 19.1675 8.35095L13.7611 3.74287C13.2157 3.27147 12.5209 3.00837 11.7999 3.0002C11.079 2.99202 10.3784 3.23929 9.8224 3.6982L4.10325 8.36126C3.75636 8.64494 3.47797 9.00319 3.28873 9.40934C3.09844 9.81958 2.99988 10.2664 3 10.7186V18.9657C3.01375 19.5224 3.00685 20.1684 3.40554 20.5842C3.80423 21 4.45386 20.9828 5.00033 21H7.2206H15.9814H18.2017C18.7756 20.9863 19.4356 20.9794 19.8068 20.5979C20.2295 20.1822 20.2295 19.5636 20.2295 19.007Z" />
</svg>