<svg width="24" height="24" viewBox="0 0 24 24" fill="none" xmlns="http://www.w3.org/2000/svg">
<path d="M12.8803 2.25567C12.6731 2.2376 12.4645 2.26282 12.2675 2.32971C12.0706 2.3966 11.8898 2.50372 11.7365 2.64424C11.5831 2.78477 11.4607 2.95564 11.377 3.14601C11.2932 3.33637 11.25 3.54208 11.25 3.75005V7.56286C11.2474 7.91665 11.3711 8.25978 11.5987 8.53059C11.8264 8.8014 12.1432 8.98214 12.4922 9.04036C13.1493 9.14877 13.7517 9.47277 14.2044 9.96129C14.6571 10.4498 14.9343 11.0751 14.9924 11.7386C15.0505 12.402 14.8862 13.066 14.5254 13.6258C14.1645 14.1856 13.6277 14.6094 12.9994 14.8304C12.9263 14.8572 12.8631 14.9059 12.8185 14.9697C12.774 15.0336 12.75 15.1096 12.75 15.1875V21.3029C12.7497 21.356 12.7606 21.4085 12.7821 21.4571C12.8035 21.5056 12.8351 21.5491 12.8746 21.5845C12.9142 21.62 12.9608 21.6466 13.0114 21.6627C13.062 21.6788 13.1154 21.684 13.1681 21.6779C15.508 21.389 17.6648 20.2647 19.2416 18.512C20.8185 16.7593 21.7092 14.4961 21.75 12.1388C21.8203 7.04911 17.9241 2.70755 12.8803 2.25567Z" fill="#FF8547"/>
<path d="M4.50567 5.792C3.30143 7.22301 2.54183 8.97487 2.32036 10.832C2.31427 10.8846 2.31939 10.9379 2.33537 10.9883C2.35135 11.0388 2.37783 11.0853 2.41308 11.1248C2.44832 11.1643 2.49153 11.1959 2.53986 11.2175C2.58819 11.2391 2.64055 11.2502 2.69348 11.2501H8.76848C8.8487 11.25 8.92678 11.2242 8.99124 11.1764C9.0557 11.1287 9.10314 11.0615 9.12661 10.9848C9.20048 10.7248 9.31776 10.4792 9.47348 10.2582C9.67907 9.97142 9.77601 9.62085 9.74699 9.26914C9.71796 8.91744 9.56487 8.5875 9.31505 8.33825L6.72098 5.68887C6.57339 5.54127 6.39661 5.4261 6.20196 5.35072C6.0073 5.27535 5.79906 5.24143 5.59055 5.25113C5.38204 5.26084 5.17785 5.31396 4.99104 5.40709C4.80423 5.50023 4.63892 5.63132 4.50567 5.792Z" fill="#C285FF"/>
<path d="M9.87775 14.1221C10.1923 14.437 10.573 14.678 10.9923 14.8275C11.0673 14.8532 11.1324 14.9017 11.1785 14.9662C11.2246 15.0308 11.2493 15.1082 11.2491 15.1875V21.3066C11.2495 21.3596 11.2386 21.412 11.2171 21.4605C11.1957 21.509 11.1642 21.5524 11.1248 21.5878C11.0854 21.6233 11.0389 21.65 10.9884 21.6661C10.9379 21.6823 10.8846 21.6875 10.8319 21.6816C8.66498 21.419 6.64862 20.4375 5.10514 18.894C3.56166 17.3505 2.58017 15.3342 2.31757 13.1672C2.3116 13.1145 2.31687 13.0612 2.33303 13.0107C2.34918 12.9602 2.37586 12.9137 2.41129 12.8743C2.44673 12.8349 2.49012 12.8034 2.5386 12.782C2.58709 12.7606 2.63956 12.7497 2.69257 12.75H8.81725C8.8959 12.7508 8.97237 12.7759 9.03617 12.8219C9.09996 12.8679 9.14794 12.9325 9.1735 13.0069C9.32261 13.4263 9.56317 13.8072 9.87775 14.1221Z" fill="#FF8599"/>
</svg>
